<?xml version="1.0" standalone="no"?>
<!DOCTYPE svg PUBLIC "-//W3C//DTD SVG 1.1//EN" "http://www.w3.org/Graphics/SVG/1.1/DTD/svg11.dtd" >
<svg xmlns="http://www.w3.org/2000/svg" xmlns:xlink="http://www.w3.org/1999/xlink" version="1.1">
<metadata>
Created by FontForge 20170731 at Tue Nov 26 23:38:29 2019
 By Aleksey,,,
Copyright (c) 2018 ParaType Inc., ParaType Ltd. All rights reserved.
</metadata>
<defs>
<font id="SBSansInterface-Semibold" horiz-adv-x="450" >
  <font-face 
    font-family="SB Sans Interface Semibold"
    font-weight="600"
    font-stretch="normal"
    units-per-em="1000"
    panose-1="2 11 6 3 4 5 4 2 2 4"
    ascent="750"
    descent="-250"
    x-height="534"
    cap-height="700"
    bbox="-336 -233 1256 970"
    underline-thickness="50"
    underline-position="-163"
    unicode-range="U+000D-FEFF"
  />
<missing-glyph horiz-adv-x="364" 
d="M33 0v666h265v-666h-265zM66 33h199v600h-199v-600z" />
    <glyph glyph-name="f_f" unicode="ff" horiz-adv-x="730" 
d="M446 427h-208v-427h-122v427h-86v107h86v59q0 90 37.5 130t127.5 40q23 0 42 -2t34 -5v-112q-11 4 -24 6.5t-30 2.5q-34 0 -49.5 -18t-15.5 -59v-42h208v59q0 90 37.5 130t127.5 40q29 0 50.5 -3t38.5 -7v-113q-9 5 -26 9t-41 4q-34 0 -49.5 -18t-15.5 -59v-42h132v-107
h-132v-427h-122v427z" />
    <glyph glyph-name="uniFB01" unicode="fi" horiz-adv-x="635" 
d="M444 427h-206v-427h-122v427h-86v107h86v59q0 90 37.5 130t127.5 40q23 0 42 -2t34 -5v-112q-11 4 -24 6.5t-30 2.5q-34 0 -49.5 -18t-15.5 -59v-42h328v-534h-122v427zM505 626q-74 0 -74 68t74 68q73 0 73 -68t-73 -68z" />
    <glyph glyph-name="uniFB02" unicode="fl" horiz-adv-x="685" 
d="M575 -6q-74 0 -107.5 34t-33.5 112v507q-31 2 -59 4t-55 2q-46 0 -64 -17t-18 -57v-45h98v-107h-98v-427h-122v427h-86v107h86v59q0 45 9.5 77t30.5 52.5t56 30.5t86 10q36 0 78.5 -1.5t83.5 -4.5h96v-593q0 -34 11 -46t37 -12q17 0 32.5 5.5t18.5 7.5v-110
q-3 -2 -25 -8.5t-55 -6.5z" />
    <glyph glyph-name="f_f_i" unicode="ffi" horiz-adv-x="955" 
d="M439 427h-201v-427h-122v427h-86v107h86v59q0 90 37.5 130t127.5 40q23 0 42 -2t34 -5v-112q-11 4 -24 6.5t-30 2.5q-34 0 -49.5 -18t-15.5 -59v-42h201v59q0 90 37.5 130t127.5 40q23 0 42 -2t34 -5v-112q-10 4 -23.5 6.5t-30.5 2.5q-34 0 -49.5 -18t-15.5 -59v-42h325
v-534h-122v427h-203v-427h-122v427zM825 626q-74 0 -74 68t74 68q73 0 73 -68t-73 -68z" />
    <glyph glyph-name="f_f_l" unicode="ffl" horiz-adv-x="1015" 
d="M444 427h-206v-427h-122v427h-86v107h86v59q0 90 37.5 130t127.5 40q23 0 42 -2t34 -5v-112q-11 4 -24 6.5t-30 2.5q-34 0 -49.5 -18t-15.5 -59v-42h206v59q0 89 40.5 129.5t141.5 40.5q37 0 80 -1.5t84 -4.5h96v-593q0 -34 11 -46t37 -12q17 0 32.5 5.5t18.5 7.5v-110
q-3 -2 -25 -8.5t-55 -6.5q-74 0 -107.5 34t-33.5 112v507q-31 2 -59.5 4t-55.5 2q-46 0 -64.5 -17t-18.5 -57v-45h100v-107h-100v-427h-122v427z" />
    <glyph glyph-name=".notdef" horiz-adv-x="364" 
d="M33 0v666h265v-666h-265zM66 33h199v600h-199v-600z" />
    <glyph glyph-name="uni0000" horiz-adv-x="0" 
 />
    <glyph glyph-name="uni0000" horiz-adv-x="0" 
 />
    <glyph glyph-name="uni000D" unicode="&#xd;" horiz-adv-x="250" 
 />
    <glyph glyph-name="space" unicode=" " horiz-adv-x="250" 
 />
    <glyph glyph-name="exclam" unicode="!" horiz-adv-x="330" 
d="M165 -7q-40 0 -60.5 21t-20.5 60q0 81 81 81t81 -81q0 -39 -20.5 -60t-60.5 -21zM100 700h130l-10 -459h-110z" />
    <glyph glyph-name="quotedbl" unicode="&#x22;" horiz-adv-x="470" 
d="M80 700h102v-280h-102v280zM288 700h102v-280h-102v280z" />
    <glyph glyph-name="numbersign" unicode="#" horiz-adv-x="600" 
d="M327 187h-111l-33 -187h-100l33 187h-96l16 93h96l25 140h-96l16 93h96l33 187h100l-33 -187h111l33 187h100l-33 -187h96l-16 -93h-96l-25 -140h97l-17 -93h-96l-33 -187h-100zM232 280h111l25 140h-111z" />
    <glyph glyph-name="dollar" unicode="$" horiz-adv-x="600" 
d="M255 -11q-55 4 -100 17.5t-74 31.5v139q13 -12 33.5 -24.5t46.5 -23t58 -17t68 -6.5q64 0 90.5 22.5t26.5 61.5q0 38 -24.5 59.5t-60.5 37t-79 29.5t-79 37t-60.5 60.5t-24.5 99.5q0 84 42.5 133.5t136.5 62.5v91h100v-88q46 -3 85.5 -12.5t65.5 -21.5v-139
q-33 26 -82.5 40.5t-100.5 14.5q-34 0 -56 -5t-35 -14t-18.5 -23t-5.5 -32q0 -36 24.5 -56t60.5 -34.5t79 -28.5t79 -37.5t60.5 -63t24.5 -103.5q0 -88 -43.5 -140.5t-137.5 -65.5v-111h-100v109z" />
    <glyph glyph-name="percent" unicode="%" horiz-adv-x="860" 
d="M611 700h89l-451 -700h-89zM232 374q-82 0 -124.5 42.5t-42.5 123.5q0 80 43 123t124 43t123.5 -42.5t42.5 -123.5q0 -80 -43 -123t-123 -43zM232 452q40 0 60 20.5t20 67.5t-20 67.5t-60 20.5q-41 0 -61 -20.5t-20 -67.5t20 -67.5t61 -20.5zM628 -6q-81 0 -123.5 42.5
t-42.5 123.5q0 80 43 123t123 43q82 0 124.5 -42.5t42.5 -123.5q0 -80 -43 -123t-124 -43zM628 72q41 0 61 20.5t20 67.5t-20 67.5t-61 20.5t-60.5 -20.5t-19.5 -67.5t19.5 -67.5t60.5 -20.5z" />
    <glyph glyph-name="ampersand" unicode="&#x26;" horiz-adv-x="800" 
d="M307 -13q-117 0 -178 56t-61 154q0 73 37 126.5t107 89.5q-20 37 -31.5 74.5t-11.5 71.5q0 75 44 114.5t126 39.5q46 0 78.5 -11t52.5 -30t29 -45.5t9 -57.5q0 -37 -13 -65.5t-36 -51t-54.5 -40.5t-67.5 -33q34 -54 76 -101t96 -87q40 54 62.5 131t24.5 165h107
q-2 -91 -30.5 -181t-79.5 -162q32 -17 64.5 -28t64.5 -14v-115q-52 4 -105.5 25t-100.5 55q-45 -39 -98.5 -59.5t-110.5 -20.5zM317 89q33 0 62 10.5t54 29.5q-55 46 -99 98.5t-76 109.5q-77 -40 -77 -122q0 -60 33 -93t103 -33zM337 621q-33 0 -51.5 -17.5t-18.5 -55.5
q0 -20 7.5 -44.5t22.5 -50.5q51 23 80 46t29 61q0 29 -15.5 45t-53.5 16z" />
    <glyph glyph-name="quotesingle" unicode="'" horiz-adv-x="270" 
d="M80 700h110v-280h-110v280z" />
    <glyph glyph-name="parenleft" unicode="(" horiz-adv-x="380" 
d="M73 288q0 79 15.5 147.5t43.5 127.5t66 110t83 97l70 -61q-36 -45 -65 -91.5t-50 -97.5t-32.5 -108.5t-11.5 -123.5t11.5 -123.5t32.5 -108.5t50 -97.5t65 -91.5l-71 -60q-45 46 -82.5 97t-65.5 110t-43.5 127t-15.5 147z" />
    <glyph glyph-name="parenright" unicode=")" horiz-adv-x="380" 
d="M307 288q0 -79 -15.5 -147t-43.5 -127t-66 -110t-83 -97l-70 60q36 45 65 91.5t50 97.5t32.5 108.5t11.5 124.5q0 66 -11.5 123t-32.5 108t-50 97.5t-65 91.5l71 61q45 -46 82.5 -97t65.5 -110t43.5 -127.5t15.5 -147.5z" />
    <glyph glyph-name="asterisk" unicode="*" horiz-adv-x="500" 
d="M100 367l96 114l-136 32l28 98l130 -62l-16 151h96l-15 -151l129 62l28 -98l-137 -33l97 -113l-78 -57l-72 130l-72 -130z" />
    <glyph glyph-name="plus" unicode="+" horiz-adv-x="600" 
d="M90 410h156v157h108v-157h156v-107h-156v-157h-108v157h-156v107z" />
    <glyph glyph-name="comma" unicode="," horiz-adv-x="320" 
d="M54 -110q46 13 73.5 43t32.5 61q-81 0 -81 80q0 81 81 81q48 0 68.5 -28.5t20.5 -82.5q0 -42 -12.5 -78t-33 -65t-48 -49.5t-57.5 -31.5z" />
    <glyph glyph-name="hyphen" unicode="-" horiz-adv-x="400" 
d="M40 334h320v-107h-320v107z" />
    <glyph glyph-name="period" unicode="." horiz-adv-x="320" 
d="M160 -6q-81 0 -81 80q0 81 81 81t81 -81q0 -80 -81 -80z" />
    <glyph glyph-name="slash" unicode="/" horiz-adv-x="400" 
d="M283 757h112l-278 -937h-112z" />
    <glyph glyph-name="zero" unicode="0" horiz-adv-x="570" 
d="M285 -13q-56 0 -100.5 18.5t-75.5 61t-47.5 112t-16.5 171.5q0 103 16 173t46.5 112t75.5 60t102 18q60 0 105 -17t75 -58.5t45 -111.5t15 -176q0 -104 -15.5 -173.5t-46 -111.5t-75.5 -60t-103 -18zM285 106q27 0 47 9t33.5 35t20.5 74t7 126t-7 125.5t-20.5 74
t-33.5 35.5t-47 9t-47 -9t-33.5 -35.5t-20.5 -74.5t-7 -125q0 -75 7.5 -122.5t22 -74.5t34.5 -37t44 -10z" />
    <glyph glyph-name="one" unicode="1" horiz-adv-x="570" 
d="M80 107h182v450l-182 -119v119l220 143h89v-593h133v-107h-442v107z" />
    <glyph glyph-name="two" unicode="2" horiz-adv-x="570" 
d="M52 85q68 65 126.5 115.5t102 94.5t68 86t24.5 91q0 63 -30.5 92.5t-95.5 29.5q-53 0 -100 -19.5t-82 -50.5v143q39 20 92 33t113 13q66 0 110.5 -15t72.5 -42.5t40 -66t12 -85.5q0 -59 -18.5 -106t-54 -92t-86 -91t-113.5 -101h275v-114h-456v85z" />
    <glyph glyph-name="three" unicode="3" horiz-adv-x="570" 
d="M167 408h63q69 0 97.5 25t28.5 76q0 43 -25.5 64.5t-95.5 21.5q-52 0 -99.5 -17t-81.5 -40v130q42 18 100.5 30.5t111.5 12.5q65 0 108 -12t68.5 -35t36 -56t10.5 -75q0 -133 -130 -169q79 -10 115 -52t36 -114q0 -50 -14 -88.5t-45 -65.5t-80 -41t-118 -14
q-56 0 -112.5 12t-95.5 32v138q35 -26 86 -45.5t106 -19.5q43 0 70.5 7t43 20.5t21 33t5.5 43.5q0 22 -6.5 39.5t-22.5 29.5t-42.5 18t-66.5 6h-72v105z" />
    <glyph glyph-name="four" unicode="4" horiz-adv-x="570" 
d="M335 167h-309v75l278 458h158v-419h83v-114h-83v-167h-127v167zM334 281l1 285l-168 -285h167z" />
    <glyph glyph-name="five" unicode="5" horiz-adv-x="570" 
d="M101 700h392v-114h-296l-11 -149q18 3 48 4.5t61 1.5q61 0 104 -14t70 -41.5t39 -67t12 -90.5q0 -56 -13 -101t-44 -76.5t-82 -48.5t-127 -17q-45 0 -94.5 9t-89.5 26v131q29 -21 78 -36t100 -15q78 0 110 31.5t32 94.5q0 30 -7 51.5t-24 35.5t-45.5 20.5t-71.5 6.5
q-45 0 -91 -4.5t-74 -9.5z" />
    <glyph glyph-name="six" unicode="6" horiz-adv-x="570" 
d="M299 -13q-68 0 -115.5 21.5t-77 64.5t-43 106t-13.5 146q0 196 73.5 292t221.5 96q38 0 75 -5.5t67 -17.5v-130q-23 16 -58.5 27t-87.5 11q-36 0 -68.5 -13t-57 -41t-39 -70.5t-14.5 -102.5v-26q55 109 173 109q98 0 146.5 -57.5t48.5 -160.5q0 -65 -16.5 -111.5
t-47 -77.5t-73 -45.5t-94.5 -14.5zM295 95q45 0 76 31.5t31 100.5q0 70 -26.5 100t-78.5 30q-53 0 -82 -33t-34 -84q1 -63 30.5 -104t83.5 -41z" />
    <glyph glyph-name="seven" unicode="7" horiz-adv-x="570" 
d="M378 586h-338v114h480v-76l-255 -624h-136z" />
    <glyph glyph-name="eight" unicode="8" horiz-adv-x="570" 
d="M286 -13q-126 0 -183.5 54t-57.5 152q0 64 25.5 111t93.5 68q-55 17 -79 54.5t-24 103.5q0 85 54 134t171 49q114 0 167.5 -44.5t53.5 -128.5q0 -62 -21 -104.5t-80 -63.5q68 -17 93.5 -60.5t25.5 -115.5q0 -47 -14 -85t-43.5 -66t-74.5 -43t-107 -15zM286 95
q50 0 78.5 28.5t28.5 87.5q0 58 -28 85.5t-79 27.5q-55 0 -82 -31t-27 -82q0 -61 29.5 -88.5t79.5 -27.5zM286 408q52 0 74 27.5t22 74.5q0 51 -23.5 73t-73.5 22q-99 0 -99 -98q0 -48 26 -73.5t74 -25.5z" />
    <glyph glyph-name="nine" unicode="9" horiz-adv-x="570" 
d="M223 -13q-36 0 -72.5 5.5t-66.5 16.5v131q24 -17 58 -27.5t85 -10.5q36 0 69 13t58 41t39.5 71t14.5 103v14t-1 11q-26 -54 -69 -81.5t-103 -27.5q-97 0 -146 58t-49 160q0 64 16.5 111t46.5 78t72.5 45.5t94.5 14.5q68 0 115.5 -22t77.5 -64.5t43.5 -106t13.5 -147.5
q0 -196 -74 -291t-223 -95zM271 343q55 0 85 32t33 87q-1 69 -30.5 106t-85.5 37q-44 0 -74 -32t-30 -100t26 -99t76 -31z" />
    <glyph glyph-name="colon" unicode=":" horiz-adv-x="330" 
d="M165 -6q-81 0 -81 80q0 81 81 81t81 -81q0 -80 -81 -80zM165 359q-81 0 -81 80q0 81 81 81t81 -81q0 -80 -81 -80z" />
    <glyph glyph-name="semicolon" unicode=";" horiz-adv-x="330" 
d="M59 -110q46 13 73.5 43t32.5 61q-81 0 -81 80q0 81 81 81q48 0 68.5 -28.5t20.5 -82.5q0 -42 -12.5 -78t-33 -65t-48 -49.5t-57.5 -31.5zM165 359q-81 0 -81 80q0 81 81 81t81 -81q0 -80 -81 -80z" />
    <glyph glyph-name="less" unicode="&#x3c;" horiz-adv-x="600" 
d="M90 294v118l420 202v-122l-296 -135l296 -135v-130z" />
    <glyph glyph-name="equal" unicode="=" horiz-adv-x="600" 
d="M90 300h420v-107h-420v107zM90 514h420v-108h-420v108z" />
    <glyph glyph-name="greater" unicode="&#x3e;" horiz-adv-x="600" 
d="M510 412v-118l-420 -202v122l296 135l-296 136v129z" />
    <glyph glyph-name="question" unicode="?" horiz-adv-x="480" 
d="M195 -6q-81 0 -81 80q0 81 81 81t81 -81q0 -80 -81 -80zM136 231q0 44 12.5 73.5t31.5 50.5t40.5 37t40.5 32.5t31.5 37.5t12.5 52q0 40 -25 62.5t-80 22.5q-49 0 -87 -16t-68 -37v133q32 14 75 24t97 10q115 0 166.5 -47t51.5 -135q0 -49 -13.5 -81.5t-34 -55.5
t-44.5 -40t-44.5 -34t-34 -37.5t-13.5 -51.5h-115z" />
    <glyph glyph-name="at" unicode="@" horiz-adv-x="900" 
d="M466 -133q-99 0 -173 31t-123 86.5t-73.5 132t-24.5 167.5q0 90 24.5 168t73.5 135t122.5 90t170.5 33q84 0 152 -26t115 -75.5t72.5 -120t25.5 -160.5q0 -131 -49.5 -197.5t-132.5 -66.5q-53 0 -78 22t-34 70q-23 -92 -123 -92q-78 0 -115 53.5t-37 171.5
q0 117 42.5 171.5t118.5 54.5q50 0 73 -21.5t33 -49.5l8 61h84v-299q0 -35 10 -50.5t33 -15.5q18 0 34.5 9.5t29 31.5t20.5 56.5t8 85.5q0 147 -73 230t-219 83q-80 0 -138.5 -25.5t-97 -72t-57 -111.5t-18.5 -144q0 -71 17 -133t54.5 -108.5t98 -73.5t146.5 -27
q45 0 92.5 11.5t78.5 33.5v-84q-38 -15 -80.5 -25t-90.5 -10zM439 144q42 0 60 31.5t18 91.5v53q0 63 -18.5 88.5t-56.5 25.5q-42 0 -61.5 -32t-19.5 -111q0 -77 15.5 -112t62.5 -35z" />
    <glyph glyph-name="A" unicode="A" horiz-adv-x="640" 
d="M249 700h143l233 -700h-133l-52 166h-246l-52 -166h-127zM227 273h180l-89 287z" />
    <glyph glyph-name="B" unicode="B" horiz-adv-x="625" 
d="M307 -6q-38 0 -76.5 1.5t-70.5 3.5q-37 3 -71 6v690q34 2 71 5q32 2 70 4t75 2q73 0 122 -11t78.5 -33.5t41.5 -57.5t12 -83q0 -125 -113 -156q65 -9 100 -50t35 -116q0 -52 -13.5 -90.5t-45.5 -64t-84.5 -38t-130.5 -12.5zM449 208q0 51 -27 74.5t-99 23.5h-106v-197
q15 -1 32 -2q14 -1 32.5 -1h38.5q37 0 62 5.5t40 18t21 32t6 46.5zM427 502q0 50 -24 71t-91 21q-20 0 -37 -0.5t-30 -1.5q-15 -1 -28 -1v-184h96q64 0 89 22.5t25 72.5z" />
    <glyph glyph-name="C" unicode="C" horiz-adv-x="575" 
d="M362 -13q-81 0 -140.5 20t-99 64t-58.5 114t-19 170q0 189 79 273.5t236 84.5q36 0 67.5 -5t54.5 -11q27 -7 50 -16v-129q-29 17 -69.5 29.5t-98.5 12.5q-47 0 -82 -12.5t-58.5 -41t-35 -74t-11.5 -111.5q0 -69 12 -117t35.5 -77t58.5 -42t82 -13q59 0 102.5 16t67.5 33
v-129q-22 -11 -48 -20q-23 -8 -55 -13.5t-70 -5.5z" />
    <glyph glyph-name="D" unicode="D" horiz-adv-x="680" 
d="M290 -6q-34 0 -69.5 1.5t-64.5 3.5q-34 3 -67 6v690q33 2 68 5q30 2 66.5 4t73.5 2q89 0 153 -19.5t105 -61.5t60.5 -108.5t19.5 -159.5q0 -187 -85.5 -275t-259.5 -88zM503 357q0 64 -11.5 108t-36 71t-63 39t-92.5 12q-16 0 -31 -0.5t-26 -1.5q-14 -1 -26 -2v-466
q11 -1 23 -2q11 -1 24.5 -1.5t28.5 -0.5q54 0 93.5 13t65.5 42.5t38.5 76t12.5 112.5z" />
    <glyph glyph-name="E" unicode="E" horiz-adv-x="575" 
d="M89 700h436v-114h-308v-176h268v-107h-268v-189h308v-114h-436v700z" />
    <glyph glyph-name="F" unicode="F" horiz-adv-x="545" 
d="M89 700h416v-114h-288v-196h258v-114h-258v-276h-128v700z" />
    <glyph glyph-name="G" unicode="G" horiz-adv-x="650" 
d="M373 -13q-85 0 -146.5 20t-102 64.5t-60 114t-19.5 168.5q0 188 81.5 273.5t246.5 85.5q39 0 70.5 -5t54.5 -11q26 -7 47 -16v-129q-29 16 -73.5 29t-98.5 13q-50 0 -86.5 -13t-61 -41.5t-36.5 -74t-12 -110.5q0 -70 12 -117.5t36 -77t61 -42t87 -12.5q29 0 51 4t41 9
v153h-112v107h232v-342q-29 -16 -83 -33t-129 -17z" />
    <glyph glyph-name="H" unicode="H" horiz-adv-x="720" 
d="M89 700h128v-285h286v285h128v-700h-128v301h-286v-301h-128v700z" />
    <glyph glyph-name="I" unicode="I" horiz-adv-x="330" 
d="M101 700h128v-700h-128v700z" />
    <glyph glyph-name="J" unicode="J" horiz-adv-x="420" 
d="M140 -13q-26 0 -46 2.5t-34 5.5q-17 4 -30 9v129q10 -8 24 -14q11 -5 28 -9t37 -4q45 0 65 22.5t20 82.5v489h127v-489q0 -63 -10.5 -106t-34 -69.5t-59.5 -37.5t-87 -11z" />
    <glyph glyph-name="K" unicode="K" horiz-adv-x="655" 
d="M279 299h-62v-299h-128v700h128v-286h62l187 286h149l-230 -341l250 -359h-154z" />
    <glyph glyph-name="L" unicode="L" horiz-adv-x="530" 
d="M89 700h128v-586h288v-114h-416v700z" />
    <glyph glyph-name="M" unicode="M" horiz-adv-x="850" 
d="M89 700h162l177 -405l176 405h157v-700h-123v421v29t0.5 25t1 24.5t2.5 28.5h-3q-6 -16 -10.5 -28.5t-9 -24.5t-10 -24.5t-12.5 -29.5l-119 -270h-106l-119 270q-7 17 -12.5 29.5t-10 24.5t-9 24.5t-10.5 28.5h-3q1 -16 2 -28.5t1.5 -24.5t0.5 -25v-29v-421h-123v700z
" />
    <glyph glyph-name="N" unicode="N" horiz-adv-x="740" 
d="M89 700h150l230 -397q12 -22 22 -42l18 -36q9 -18 16 -36h2l-2 36q-1 16 -1.5 36t-0.5 42v397h128v-700h-150l-230 397q-13 23 -23 43l-18 36q-9 18 -15 35h-2q1 -17 2 -35q1 -16 1.5 -36t0.5 -43v-397h-128v700z" />
    <glyph glyph-name="O" unicode="O" horiz-adv-x="710" 
d="M355 -13q-153 0 -231.5 85.5t-78.5 277.5q0 190 79.5 276.5t230.5 86.5q78 0 136.5 -20t97 -63.5t57.5 -112.5t19 -167q0 -190 -79.5 -276.5t-230.5 -86.5zM355 102q44 0 77 12.5t55.5 41.5t34 76.5t11.5 117.5t-11.5 117.5t-34 76.5t-55.5 41.5t-77 12.5t-77 -12.5
t-55.5 -41.5t-34 -76.5t-11.5 -117.5q0 -69 11.5 -116.5t34 -77t56 -42t76.5 -12.5z" />
    <glyph glyph-name="P" unicode="P" horiz-adv-x="620" 
d="M89 695q33 2 68 5q30 2 67 4t74 2q76 0 129 -14t86 -44t47.5 -76t14.5 -109q0 -128 -66 -191t-211 -63h-31.5t-25.5 1q-13 1 -24 2v-212h-128v695zM443 463q0 33 -7 56.5t-24 38.5t-45 22t-69 7q-17 0 -31.5 -0.5t-25.5 -1.5q-13 -1 -24 -2v-252q11 -1 24 -2
q11 -1 25.5 -1h31.5q40 0 68 7.5t45 23.5t24.5 41.5t7.5 62.5z" />
    <glyph glyph-name="Q" unicode="Q" horiz-adv-x="710" 
d="M342 -13q-73 2 -128.5 23.5t-93 65.5t-56.5 112t-19 162q0 190 79.5 276.5t230.5 86.5q78 0 136.5 -20t97 -63.5t57.5 -112.5t19 -167q0 -146 -47 -230t-138 -115l128 -165h-153zM355 102q44 0 77 12.5t55.5 41.5t34 76.5t11.5 117.5t-11.5 117.5t-34 76.5t-55.5 41.5
t-77 12.5t-77 -12.5t-55.5 -41.5t-34 -76.5t-11.5 -117.5q0 -69 11.5 -116.5t34 -77t56 -42t76.5 -12.5z" />
    <glyph glyph-name="R" unicode="R" horiz-adv-x="640" 
d="M323 247h-21h-85v-247h-128v695q32 2 66 5q29 2 66 4t74 2q73 0 123.5 -13t81.5 -41t45 -70.5t14 -100.5q0 -83 -26.5 -135t-86.5 -76l155 -270h-142zM427 474q0 61 -28 87t-97 26q-17 0 -33 -0.5t-28 -1.5q-14 -1 -27 -1v-223h88q67 0 96 27.5t29 85.5z" />
    <glyph glyph-name="S" unicode="S" horiz-adv-x="580" 
d="M283 -13q-67 0 -122.5 15t-89.5 36v139q13 -12 33.5 -24.5t46.5 -23t58 -17t68 -6.5q64 0 90.5 22.5t26.5 61.5q0 38 -24.5 59.5t-60.5 37t-79 29.5t-79 37t-60.5 60.5t-24.5 99.5q0 96 57 148t184 52q58 0 107.5 -10t81.5 -25v-139q-33 26 -82.5 40.5t-100.5 14.5
q-34 0 -56 -5t-35 -14t-18.5 -23t-5.5 -32q0 -36 24.5 -56t60.5 -34.5t79 -28.5t79 -37.5t60.5 -63t24.5 -103.5q0 -101 -58.5 -155.5t-184.5 -54.5z" />
    <glyph glyph-name="T" unicode="T" horiz-adv-x="580" 
d="M226 586h-196v114h520v-114h-196v-586h-128v586z" />
    <glyph glyph-name="U" unicode="U" horiz-adv-x="670" 
d="M335 -13q-68 0 -117 16t-80.5 50.5t-47 89t-15.5 132.5v425h127v-414q0 -53 7.5 -88t23.5 -55.5t41 -28.5t61 -8t61.5 8t41.5 28t23 55t7 89v414h127v-425q0 -77 -15.5 -132t-47.5 -89.5t-81 -50.5t-116 -16z" />
    <glyph glyph-name="V" unicode="V" horiz-adv-x="620" 
d="M15 700h137l166 -551l155 551h132l-210 -700h-160z" />
    <glyph glyph-name="W" unicode="W" horiz-adv-x="900" 
d="M25 700h136l81 -415q3 -16 5.5 -28.5t4 -24.5t3.5 -24.5t4 -28.5h4q5 32 8.5 53t11.5 53l95 415h145l97 -415q4 -16 6.5 -28.5t5 -24.5t5 -24.5t5.5 -28.5h3q4 32 7.5 53t9.5 53l82 415h131l-142 -700h-159l-101 431q-5 20 -9 39.5t-7 34.5q-4 18 -7 33h-3q-2 -15 -6 -33
q-3 -15 -7 -34.5t-9 -39.5l-99 -431h-159z" />
    <glyph glyph-name="X" unicode="X" horiz-adv-x="630" 
d="M231 358l-200 342h148l138 -240l137 240h145l-200 -339l211 -361h-151l-146 258l-147 -258h-146z" />
    <glyph glyph-name="Y" unicode="Y" horiz-adv-x="610" 
d="M246 259l-231 441h146l150 -298l144 298h140l-221 -441v-259h-128v259z" />
    <glyph glyph-name="Z" unicode="Z" horiz-adv-x="590" 
d="M45 77l325 509h-315v114h480v-77l-325 -509h335v-114h-500v77z" />
    <glyph glyph-name="bracketleft" unicode="[" horiz-adv-x="380" 
d="M93 757h258v-103h-144v-731h144v-103h-258v937z" />
    <glyph glyph-name="backslash" unicode="\" horiz-adv-x="400" 
d="M5 757h116l274 -937h-116z" />
    <glyph glyph-name="bracketright" unicode="]" horiz-adv-x="380" 
d="M29 -77h144v731h-144v103h258v-937h-258v103z" />
    <glyph glyph-name="asciicircum" unicode="^" horiz-adv-x="600" 
d="M249 700h102l179 -347h-101l-131 261l-130 -261h-98z" />
    <glyph glyph-name="underscore" unicode="_" horiz-adv-x="420" 
d="M0 -100h420v-80h-420v80z" />
    <glyph glyph-name="grave" unicode="`" horiz-adv-x="300" 
d="M29 769h158l84 -151h-100z" />
    <glyph glyph-name="a" unicode="a" horiz-adv-x="535" 
d="M198 -13q-78 0 -118.5 41t-40.5 120q0 42 11 73t36 51.5t65 31t98 10.5h100v36q0 47 -23 66.5t-85 19.5q-47 0 -89.5 -12t-68.5 -29v120q30 13 77 22t101 9q58 0 98.5 -10t65 -33t35.5 -60t11 -91v-352h-110l-5 85q-15 -40 -54 -69t-104 -29zM242 91q50 0 78.5 29.5
t28.5 86.5v29h-86q-56 0 -77 -18.5t-21 -58.5q0 -34 18 -51t59 -17z" />
    <glyph glyph-name="b" unicode="b" horiz-adv-x="590" 
d="M344 -13q-33 0 -58 8t-43.5 20.5t-31 29t-20.5 33.5l-5 -78h-117v757h122v-303q10 19 24.5 36t34.5 29.5t46.5 19.5t60.5 7q49 0 85.5 -15t60.5 -47.5t36 -84.5t12 -127q0 -153 -51.5 -219t-155.5 -66zM309 97q29 0 51 8t36.5 28.5t21.5 54t7 84.5q0 47 -7 78.5
t-21.5 50.5t-36 27t-49.5 8q-58 0 -89 -33.5t-31 -107.5v-56q0 -73 31.5 -107.5t86.5 -34.5z" />
    <glyph glyph-name="c" unicode="c" horiz-adv-x="475" 
d="M295 -13q-66 0 -114.5 15.5t-80 50t-46.5 88.5t-15 131q0 142 64 208t189 66q31 0 57 -3.5t45 -8.5t30.5 -9.5t14.5 -5.5v-127q-24 18 -56.5 31t-77.5 13q-72 0 -106 -37.5t-34 -126.5q0 -95 36.5 -135t113.5 -40q38 0 74 13t56 32v-121q-3 -2 -15 -7.5t-31.5 -11.5
t-46 -10.5t-57.5 -4.5z" />
    <glyph glyph-name="d" unicode="d" horiz-adv-x="590" 
d="M399 81q-8 -17 -21.5 -33.5t-33 -30t-46 -22t-59.5 -8.5q-51 0 -88.5 15.5t-62.5 49.5t-37 88t-12 132q0 144 50.5 209t153.5 65q59 0 98 -24t58 -66v301h122v-757h-117zM165 272q0 -51 7.5 -84.5t22 -53.5t36 -28.5t50.5 -8.5q55 0 86.5 34.5t31.5 108.5v56
q0 140 -119 140q-58 0 -86.5 -35.5t-28.5 -128.5z" />
    <glyph glyph-name="e" unicode="e" horiz-adv-x="550" 
d="M293 -13q-136 0 -195 70t-59 217q0 138 63.5 205t177.5 67q124 0 177.5 -64.5t53.5 -188.5v-58h-350q3 -76 37.5 -110t108.5 -34q51 0 98.5 16.5t73.5 40.5v-113q-29 -19 -73 -33.5t-113 -14.5zM280 450q-57 0 -86 -32.5t-33 -104.5h228q0 67 -23 102t-86 35z" />
    <glyph glyph-name="f" unicode="f" horiz-adv-x="400" 
d="M116 427h-86v107h86v59q0 90 37.5 130t127.5 40q29 0 50.5 -3t38.5 -7v-113q-9 5 -26 9t-41 4q-34 0 -49.5 -18t-15.5 -59v-42h132v-107h-132v-427h-122v427z" />
    <glyph glyph-name="g" unicode="g" horiz-adv-x="590" 
d="M263 -193q-59 0 -106.5 10.5t-73.5 23.5v130q10 -9 27 -18.5t40 -17.5t52 -13t63 -5q71 0 102.5 31t31.5 98v59q-8 -17 -21.5 -33.5t-33 -30t-46 -22t-59.5 -8.5q-101 0 -150.5 62.5t-49.5 201.5q0 143 50.5 207t153.5 64q59 0 98 -24t58 -66l5 78h117v-480
q0 -132 -63.5 -189.5t-194.5 -57.5zM280 121q56 0 87.5 34.5t31.5 105.5v40q0 66 -30 100.5t-89 34.5q-58 0 -86.5 -34t-28.5 -118q0 -92 29 -127.5t86 -35.5z" />
    <glyph glyph-name="h" unicode="h" horiz-adv-x="585" 
d="M69 757h122v-305q43 94 156 94q85 0 129.5 -45.5t44.5 -149.5v-351h-122v307q0 75 -24 102t-77 27q-51 0 -79 -30.5t-28 -98.5v-307h-122v757z" />
    <glyph glyph-name="i" unicode="i" horiz-adv-x="290" 
d="M84 534h122v-534h-122v534zM145 626q-74 0 -74 68t74 68t74 -68t-74 -68z" />
    <glyph glyph-name="j" unicode="j" horiz-adv-x="290" 
d="M62 -186q-30 0 -53.5 5t-26.5 7v114q11 -7 24 -11.5t28 -4.5q26 0 38 14t12 52v544h122v-550q0 -92 -36 -131t-108 -39zM145 626q-74 0 -74 68t74 68t74 -68t-74 -68z" />
    <glyph glyph-name="k" unicode="k" horiz-adv-x="555" 
d="M69 757h122v-427h49l136 204h137l-177 -254l195 -280h-142l-148 223h-50v-223h-122v757z" />
    <glyph glyph-name="l" unicode="l" horiz-adv-x="315" 
d="M205 -6q-74 0 -107.5 34t-33.5 112v617h122v-593q0 -34 11 -46t37 -12q17 0 32.5 5.5t18.5 7.5v-110q-3 -2 -25 -8.5t-55 -6.5z" />
    <glyph glyph-name="m" unicode="m" horiz-adv-x="835" 
d="M69 534h117l5 -83q40 95 143 95q56 0 90 -28t45 -79q21 59 59 83t95 24q69 0 108.5 -43.5t39.5 -141.5v-361h-122v327q0 62 -20.5 85.5t-61.5 23.5q-40 0 -63 -26t-23 -83v-327h-122v327q0 62 -20 85.5t-60 23.5q-42 0 -65 -26t-23 -83v-327h-122v534z" />
    <glyph glyph-name="n" unicode="n" horiz-adv-x="585" 
d="M69 534h117l5 -82q43 94 156 94q85 0 129.5 -45.5t44.5 -149.5v-351h-122v310q0 36 -6 60.5t-18 39t-31 20.5t-46 6q-51 0 -79 -30t-28 -96v-310h-122v534z" />
    <glyph glyph-name="o" unicode="o" horiz-adv-x="570" 
d="M285 -13q-122 0 -184 66.5t-62 213.5q0 143 64 211t182 68q125 0 185.5 -64.5t60.5 -214.5q0 -147 -62.5 -213.5t-183.5 -66.5zM285 97q30 0 52.5 8.5t37.5 28t22.5 52.5t7.5 81t-7.5 80.5t-22.5 52t-37.5 28t-52.5 8.5q-59 0 -89.5 -37.5t-30.5 -131.5q0 -48 7.5 -81
t22.5 -52.5t37.5 -28t52.5 -8.5z" />
    <glyph glyph-name="p" unicode="p" horiz-adv-x="590" 
d="M69 534h117l5 -80q10 19 24.5 36t34.5 29.5t46.5 19.5t60.5 7q49 0 85.5 -15t60.5 -47.5t36 -84.5t12 -127q0 -153 -51.5 -219t-155.5 -66q-33 0 -58 8t-43.5 20.5t-31 29t-20.5 33.5v-258h-122v714zM425 272q0 47 -7 78.5t-21.5 50.5t-36 27t-50.5 8q-57 0 -88 -33.5
t-31 -107.5v-56q0 -73 31.5 -107.5t86.5 -34.5q29 0 51 8t36.5 28.5t21.5 54t7 84.5z" />
    <glyph glyph-name="q" unicode="q" horiz-adv-x="590" 
d="M399 81q-8 -17 -21.5 -33.5t-33 -30t-46 -22t-59.5 -8.5q-51 0 -88.5 15.5t-62.5 49.5t-37 88t-12 132q0 144 50.5 209t153.5 65q59 0 98 -24t58 -66l5 78h117v-714h-122v261zM165 272q0 -51 7.5 -84.5t22 -53.5t36 -28.5t50.5 -8.5q55 0 86.5 34.5t31.5 108.5v56
q0 140 -119 140q-58 0 -86.5 -35.5t-28.5 -128.5z" />
    <glyph glyph-name="r" unicode="r" horiz-adv-x="410" 
d="M69 534h112l5 -85q19 51 53.5 74t79.5 23q20 0 34.5 -2.5t17.5 -3.5v-127q-12 9 -32 16t-46 7q-49 0 -75.5 -31.5t-26.5 -108.5v-296h-122v534z" />
    <glyph glyph-name="s" unicode="s" horiz-adv-x="475" 
d="M223 -13q-38 0 -81 8t-83 25v123q29 -25 71 -38.5t90 -13.5q45 0 62.5 15t17.5 44q0 27 -18 41t-45.5 23.5t-59.5 18.5t-59.5 26t-45.5 45.5t-18 77.5q0 82 45.5 123t153.5 41q39 0 79 -7t69 -18v-122q-32 23 -66.5 33.5t-77.5 10.5q-44 0 -60.5 -13.5t-16.5 -39.5
q0 -25 18 -37.5t45.5 -21.5t59.5 -18t59.5 -26.5t45.5 -47.5t18 -80q0 -86 -47 -129t-156 -43z" />
    <glyph glyph-name="t" unicode="t" horiz-adv-x="435" 
d="M273 -6q-85 0 -121 40.5t-36 135.5v257h-86v107h86v98l122 42v-140h152v-107h-152v-243q0 -43 14 -61.5t49 -18.5q27 0 49.5 8t39.5 21v-114q-14 -9 -45 -17t-72 -8z" />
    <glyph glyph-name="u" unicode="u" horiz-adv-x="580" 
d="M237 -13q-83 0 -128 46t-45 150v351h122v-310q0 -73 23 -100t74 -27t78.5 30.5t27.5 96.5v310h122v-534h-117l-5 81q-44 -94 -152 -94z" />
    <glyph glyph-name="v" unicode="v" horiz-adv-x="520" 
d="M15 534h132l116 -394l117 394h125l-174 -534h-142z" />
    <glyph glyph-name="w" unicode="w" horiz-adv-x="760" 
d="M24 534h127l66 -305q3 -15 5.5 -29.5t4.5 -25.5q2 -13 4 -25h2q1 12 4 25q3 24 11 55l74 305h118l76 -305q4 -15 7 -29.5t5 -25.5q3 -13 4 -25h2q2 12 4 25q2 11 4 25.5t6 29.5l66 305h122l-117 -534h-145l-77 301q-4 15 -7 29.5t-5 25.5l-5 25h-2l-5 -25
q-2 -11 -5.5 -25.5t-6.5 -29.5l-75 -301h-145z" />
    <glyph glyph-name="x" unicode="x" horiz-adv-x="540" 
d="M187 274l-151 260h136l100 -173l100 173h132l-151 -257l163 -277h-138l-110 194l-110 -194h-134z" />
    <glyph glyph-name="y" unicode="y" horiz-adv-x="520" 
d="M174 -193q-26 0 -47 5.5t-24 7.5v112q11 -7 22.5 -11t27.5 -4q10 0 19.5 3t17.5 12t15.5 25.5t14.5 42.5l-205 534h132l129 -366l104 366h125l-162 -528q-20 -64 -38 -103t-37.5 -60.5t-42.5 -28.5t-51 -7z" />
    <glyph glyph-name="z" unicode="z" horiz-adv-x="490" 
d="M40 74l249 353h-239v107h397v-75l-249 -352h252v-107h-410v74z" />
    <glyph glyph-name="braceleft" unicode="{" horiz-adv-x="380" 
d="M289 -180q-47 0 -80 12.5t-54 35t-30.5 53.5t-9.5 69v165q0 43 -20 66.5t-53 24.5v85q33 1 53 25t20 66v171q0 75 40 119.5t134 44.5h67v-103h-45q-46 0 -63.5 -21.5t-17.5 -63.5v-148q0 -55 -17.5 -87.5t-69.5 -45.5q52 -11 69.5 -45t17.5 -89v-139q0 -42 17.5 -67
t63.5 -25h45v-103h-67z" />
    <glyph glyph-name="bar" unicode="|" horiz-adv-x="300" 
d="M93 757h114v-937h-114v937z" />
    <glyph glyph-name="braceright" unicode="}" horiz-adv-x="380" 
d="M24 -77h45q46 0 63.5 21.5t17.5 63.5v148q0 27 3.5 49t13.5 38.5t27 27.5t43 17q-26 6 -43 17.5t-27 28.5t-13.5 39.5t-3.5 49.5v146q0 42 -17.5 63.5t-63.5 21.5h-45v103h67q94 0 134 -44.5t40 -119.5v-171q0 -43 20 -66.5t53 -24.5v-85q-33 -1 -53 -25t-20 -66v-172
q0 -74 -40 -118.5t-134 -44.5h-67v103z" />
    <glyph glyph-name="asciitilde" unicode="~" horiz-adv-x="600" 
d="M90 395q19 22 44.5 37t62.5 15q34 0 61 -11.5t50.5 -25t46 -25t48.5 -11.5q34 0 62.5 18t44.5 38v-105q-19 -22 -44.5 -37t-62.5 -15q-34 0 -61 11.5t-50.5 25t-46.5 25t-48 11.5q-34 0 -62.5 -18t-44.5 -38v105z" />
    <glyph glyph-name="uni00A0" unicode="&#xa0;" horiz-adv-x="250" 
 />
    <glyph glyph-name="exclamdown" unicode="&#xa1;" horiz-adv-x="330" 
d="M165 540q81 0 81 -81q0 -39 -20.5 -60t-60.5 -21t-60.5 21t-20.5 60q0 81 81 81zM230 -180h-130l10 472h110z" />
    <glyph glyph-name="cent" unicode="&#xa2;" horiz-adv-x="600" 
d="M291 -8q-101 15 -146.5 81.5t-45.5 198.5q0 121 47.5 186.5t144.5 81.5v94h101v-89q58 -3 90 -14.5t37 -13.5v-127q-24 18 -59 32t-85 14q-79 0 -114.5 -37.5t-35.5 -126.5q0 -95 38 -135t122 -40q43 0 81.5 14t58.5 32v-120q-5 -4 -39 -17.5t-94 -17.5v-108h-101v112z
" />
    <glyph glyph-name="sterling" unicode="&#xa3;" horiz-adv-x="600" 
d="M48 110h100v200h-100v93h100v75q0 42 11.5 83.5t39 75.5t74 55t116.5 21q44 0 82.5 -7.5t70.5 -16.5v-111q-34 11 -64.5 18t-68.5 7q-69 0 -101.5 -37.5t-32.5 -97.5v-65h174v-93h-174v-200h267v-110h-494v110z" />
    <glyph glyph-name="currency" unicode="&#xa4;" horiz-adv-x="600" 
d="M425 168q-56 -39 -126 -39q-71 0 -127 39l-63 -63l-55 54l64 64q-40 55 -40 127q0 70 39 126l-63 64l56 56l64 -64q26 18 58 28.5t67 10.5t67.5 -10.5t59.5 -29.5l65 65l55 -55l-66 -65q19 -27 29.5 -59t10.5 -67t-10.5 -67t-28.5 -58l65 -65l-56 -56zM300 225
q26 0 48.5 10t39.5 27t27 39.5t10 48.5t-10 48.5t-27 39.5t-39.5 27t-48.5 10t-49 -10t-40 -27t-27 -39.5t-10 -48.5t10 -48.5t27 -39.5t40 -27t49 -10z" />
    <glyph glyph-name="yen" unicode="&#xa5;" horiz-adv-x="600" 
d="M74 349h120l-179 351h146l145 -301l139 301h140l-171 -351h122v-92h-167v-58h167v-92h-167v-107h-128v107h-167v92h167v58h-167v92z" />
    <glyph glyph-name="brokenbar" unicode="&#xa6;" horiz-adv-x="300" 
d="M93 213h114v-393h-114v393zM93 757h114v-394h-114v394z" />
    <glyph glyph-name="section" unicode="&#xa7;" horiz-adv-x="530" 
d="M236 -113q-42 0 -83.5 7t-83.5 22v103q47 -20 81 -27.5t72 -7.5q59 0 81.5 15t22.5 43q0 31 -27 50t-81 43q-32 13 -62.5 28t-54 35.5t-38 47.5t-14.5 63q0 42 23 75.5t63 59.5q-32 22 -46.5 48.5t-14.5 63.5q0 34 13 62.5t39.5 49.5t66.5 33t94 12q51 0 90 -9t65 -17
v-101q-49 17 -81.5 23.5t-61.5 6.5q-18 0 -35 -2.5t-30 -9.5t-21 -18t-8 -29q0 -14 4 -24t14.5 -19.5t28.5 -19t45 -22.5q34 -16 67.5 -31.5t59 -35t41.5 -45.5t16 -63q0 -42 -24 -77.5t-60 -61.5q28 -20 43.5 -46t15.5 -65q0 -75 -55.5 -117.5t-164.5 -42.5zM321 197
q17 16 30 36.5t13 45.5q0 32 -22 54t-66 43q-3 1 -11.5 5t-18.5 8.5t-19 9l-13 6.5q-48 -35 -48 -78q0 -35 23 -57t73 -45q5 -2 14 -6t18 -8.5t16.5 -8.5t10.5 -5z" />
    <glyph glyph-name="dieresis" unicode="&#xa8;" horiz-adv-x="410" 
d="M101 628q-71 0 -71 66q0 65 71 65t71 -65q0 -66 -71 -66zM309 628q-71 0 -71 66q0 65 71 65t71 -65q0 -66 -71 -66z" />
    <glyph glyph-name="copyright" unicode="&#xa9;" horiz-adv-x="830" 
d="M431 158q-101 0 -146.5 52.5t-45.5 141.5q0 97 48.5 147t145.5 50q29 0 52 -4t37 -9v-73q-17 7 -38.5 10t-38.5 3q-60 0 -90 -29t-30 -93q0 -67 31.5 -94.5t88.5 -27.5q19 0 39 3.5t39 12.5v-75q-17 -6 -39.5 -10.5t-52.5 -4.5zM415 -13q-77 0 -143 28t-115 77t-77 115
t-28 143q0 76 28 142.5t77 115.5t115 77t143 28q76 0 142.5 -28t115.5 -77t77 -115.5t28 -142.5t-28 -142t-77 -115t-115.5 -77.5t-142.5 -28.5zM415 57q62 0 115 22.5t92 62.5t61.5 93t22.5 115q0 63 -22.5 116.5t-61.5 92.5t-92 61.5t-115 22.5t-115 -22.5t-92 -61.5
t-61.5 -92.5t-22.5 -116.5t22.5 -116.5t61.5 -92.5t92 -61.5t115 -22.5z" />
    <glyph glyph-name="ordfeminine" unicode="&#xaa;" horiz-adv-x="370" 
d="M141 374q-57 0 -81.5 24t-24.5 72q0 25 7 44.5t23.5 32t43 19t66.5 6.5h65v15q0 26 -14 37.5t-54 11.5q-30 0 -60 -7t-47 -17v77q20 7 52 12t68 5q76 0 108 -27t32 -92v-207h-77l-6 50q-10 -21 -34 -38.5t-67 -17.5zM174 439q29 0 47.5 17.5t18.5 46.5v18h-54
q-36 0 -49 -10.5t-13 -33.5q0 -20 11 -29t39 -9z" />
    <glyph glyph-name="guillemotleft" unicode="&#xab;" horiz-adv-x="550" 
d="M167 496h114l-127 -211l127 -213h-117l-125 210zM377 496h114l-127 -211l127 -213h-117l-125 210z" />
    <glyph glyph-name="logicalnot" unicode="&#xac;" horiz-adv-x="600" 
d="M90 410h420v-237h-107v130h-313v107z" />
    <glyph glyph-name="uni00AD" unicode="&#xad;" horiz-adv-x="400" 
d="M40 334h320v-107h-320v107z" />
    <glyph glyph-name="registered" unicode="&#xae;" horiz-adv-x="600" 
d="M50 520q0 54 18 100t51 79.5t79 52t102 18.5t102 -18.5t79 -52t51 -79.5t18 -100t-18 -99t-51 -78t-79 -51.5t-102 -18.5t-102 18.5t-79 51.5t-51 78t-18 99zM104 521q0 -43 14 -79t40 -62t62 -40.5t80 -14.5t80.5 14.5t62 40.5t39.5 62t14 79t-14 79t-39.5 62t-62 40.5
t-80.5 14.5t-80 -14.5t-62 -40.5t-40 -62t-14 -79zM200 659h109q17 0 34 -3.5t31 -12.5t22.5 -26t8.5 -44q0 -29 -13.5 -48.5t-33.5 -27.5l64 -104h-68l-55 94h-36v-94h-63v266zM301 537q16 0 28 7.5t12 27.5q0 22 -11.5 28t-28.5 6h-39v-69h39z" />
    <glyph glyph-name="macron" unicode="&#xaf;" horiz-adv-x="320" 
d="M19 726h282v-84h-282v84z" />
    <glyph glyph-name="degree" unicode="&#xb0;" horiz-adv-x="400" 
d="M200 387q-34 0 -63.5 13t-51.5 35t-35 51.5t-13 63.5t13 63.5t35 51.5t51.5 35t63.5 13t63.5 -13t51.5 -35t35 -51.5t13 -63.5t-13 -63.5t-35 -51.5t-51.5 -35t-63.5 -13zM200 471q33 0 56.5 23t23.5 56t-23.5 56t-56.5 23t-56 -23t-23 -56t23 -56t56 -23z" />
    <glyph glyph-name="plusminus" unicode="&#xb1;" horiz-adv-x="600" 
d="M90 489h156v156h108v-156h156v-108h-156v-120h-108v120h-156v108zM90 182h420v-107h-420v107z" />
    <glyph glyph-name="uni00B2" unicode="&#xb2;" 
d="M50 466l129 82q58 38 82 63.5t24 54.5q0 26 -20 42.5t-68 16.5q-34 0 -68.5 -6.5t-62.5 -20.5v84q37 13 71.5 18.5t73.5 5.5q90 0 132 -33t42 -90q0 -25 -8.5 -47t-27.5 -43.5t-49.5 -44t-73.5 -49.5l-59 -36v-1h223v-82h-340v86z" />
    <glyph glyph-name="uni00B3" unicode="&#xb3;" 
d="M118 629h74q43 0 65 11t22 37t-21 37.5t-71 11.5q-36 0 -71 -4.5t-61 -14.5v79q35 12 78 16t81 4q46 0 78 -9t51.5 -24t28 -34.5t8.5 -40.5q0 -42 -26.5 -63.5t-75.5 -35.5v-1q66 -11 89 -38t23 -61q0 -59 -50.5 -92t-142.5 -33q-31 0 -70 3.5t-77 15.5v82
q34 -12 68.5 -16.5t66.5 -4.5q59 0 81.5 14.5t22.5 38.5q0 30 -21 42t-67 12h-83v68z" />
    <glyph glyph-name="acute" unicode="&#xb4;" horiz-adv-x="300" 
d="M115 769h156l-144 -151h-98z" />
    <glyph glyph-name="uni03BC" unicode="&#xb5;" horiz-adv-x="585" 
d="M69 534h122v-310q0 -73 23 -100t74 -27t78.5 30.5t27.5 96.5v310h122v-534h-117l-5 81q-44 -94 -152 -94q-29 0 -51 6v-173h-122v714z" />
    <glyph glyph-name="uni03BC" unicode="&#x3bc;" horiz-adv-x="585" 
d="M69 534h122v-310q0 -73 23 -100t74 -27t78.5 30.5t27.5 96.5v310h122v-534h-117l-5 81q-44 -94 -152 -94q-29 0 -51 6v-173h-122v714z" />
    <glyph glyph-name="paragraph" unicode="&#xb6;" horiz-adv-x="570" 
d="M214 346q-42 0 -74.5 13t-55 36t-34 55t-11.5 70q0 59 22.5 94.5t55.5 54.5t69 25t63 6h245v-880h-94v798h-92v-798h-94v526z" />
    <glyph glyph-name="periodcentered" unicode="&#xb7;" horiz-adv-x="320" 
d="M160 271q-81 0 -81 80q0 81 81 81t81 -81q0 -80 -81 -80z" />
    <glyph glyph-name="cedilla" unicode="&#xb8;" horiz-adv-x="250" 
d="M103 -226q-27 0 -46.5 3.5t-37.5 11.5l10 58q28 -12 60 -12q27 0 38 10t11 28q0 19 -11.5 28.5t-40.5 9.5q-8 0 -17 -0.5t-15 -1.5l17 94h69l-9 -46q45 -1 72.5 -20.5t27.5 -64.5t-32.5 -71.5t-95.5 -26.5z" />
    <glyph glyph-name="uni00B9" unicode="&#xb9;" 
d="M219 697l-115 -62l-38 73l172 92h79v-420h-98v317z" />
    <glyph glyph-name="ordmasculine" unicode="&#xba;" horiz-adv-x="370" 
d="M185 374q-81 0 -120.5 42.5t-39.5 123.5q0 80 40 123t120 43q81 0 120.5 -42.5t39.5 -123.5q0 -80 -40 -123t-120 -43zM185 444q36 0 56.5 21t20.5 75t-20.5 75t-56.5 21t-56.5 -21t-20.5 -75t20.5 -75t56.5 -21z" />
    <glyph glyph-name="guillemotright" unicode="&#xbb;" horiz-adv-x="550" 
d="M186 282l-127 214h117l125 -211l-128 -213h-114zM396 282l-127 214h117l125 -211l-128 -213h-114z" />
    <glyph glyph-name="onequarter" unicode="&#xbc;" horiz-adv-x="950" 
d="M651 700h89l-451 -700h-89zM195 598l-115 -62l-38 73l172 92h79v-420h-98v317zM487 163l235 258h113v-255h57v-77h-57v-88h-95v88h-253v74zM741 340h-1l-160 -174h161v174z" />
    <glyph glyph-name="onehalf" unicode="&#xbd;" horiz-adv-x="950" 
d="M628 700h89l-451 -700h-89zM187 598l-115 -62l-38 73l172 92h79v-420h-98v317zM560 87l129 82q58 38 82 63.5t24 54.5q0 26 -20 42.5t-68 16.5q-34 0 -68.5 -6.5t-62.5 -20.5v84q37 13 71.5 18.5t73.5 5.5q90 0 132 -33t42 -90q0 -25 -8.5 -47t-27.5 -43.5t-49.5 -44
t-73.5 -49.5l-59 -36v-1h223v-82h-340v86z" />
    <glyph glyph-name="threequarters" unicode="&#xbe;" horiz-adv-x="950" 
d="M674 700h89l-451 -700h-89zM502 163l235 258h113v-255h57v-77h-57v-88h-95v88h-253v74zM756 340h-1l-160 -174h161v174zM107 530h74q43 0 65 11t22 37t-21 37.5t-71 11.5q-36 0 -71 -4.5t-61 -14.5v79q35 12 78 16t81 4q46 0 78 -9t51.5 -24t28 -34.5t8.5 -40.5
q0 -42 -26.5 -63.5t-75.5 -35.5v-1q66 -11 89 -38t23 -61q0 -59 -50.5 -92t-142.5 -33q-31 0 -70 3.5t-77 15.5v82q34 -12 68.5 -16.5t66.5 -4.5q59 0 81.5 14.5t22.5 38.5q0 30 -21 42t-67 12h-83v68z" />
    <glyph glyph-name="questiondown" unicode="&#xbf;" horiz-adv-x="480" 
d="M285 540q81 0 81 -81q0 -39 -20.5 -60t-60.5 -21t-60.5 21t-20.5 60q0 81 81 81zM344 303q0 -44 -12.5 -74t-31.5 -51t-40.5 -37.5t-40.5 -34t-31.5 -39.5t-12.5 -54q0 -45 25 -68.5t80 -23.5q49 0 87 16t68 37v-133q-32 -14 -75 -24t-97 -10q-115 0 -166.5 48t-51.5 140
q0 51 13.5 85t34 57.5t44.5 41t44.5 34.5t34 38t13.5 52h115z" />
    <glyph glyph-name="Agrave" unicode="&#xc0;" horiz-adv-x="640" 
d="M249 700h143l233 -700h-133l-52 166h-246l-52 -166h-127zM227 273h180l-89 287zM125 915h160l92 -150h-102z" />
    <glyph glyph-name="Aacute" unicode="&#xc1;" horiz-adv-x="640" 
d="M249 700h143l233 -700h-133l-52 166h-246l-52 -166h-127zM227 273h180l-89 287zM355 915h158l-152 -150h-100z" />
    <glyph glyph-name="Acircumflex" unicode="&#xc2;" horiz-adv-x="640" 
d="M249 700h143l233 -700h-133l-52 166h-246l-52 -166h-127zM227 273h180l-89 287zM255 915h130l119 -150h-103l-81 85l-83 -85h-101z" />
    <glyph glyph-name="Atilde" unicode="&#xc3;" horiz-adv-x="640" 
d="M249 700h143l233 -700h-133l-52 166h-246l-52 -166h-127zM227 273h180l-89 287zM137 778q3 57 33 86.5t72 29.5q21 0 41.5 -6t43.5 -17q24 -11 37.5 -16t27.5 -5q15 0 27 10t16 33l68 -12q-4 -54 -33.5 -84.5t-71.5 -30.5q-22 0 -39.5 3.5t-45.5 17.5q-21 10 -35 17
t-28 7t-26.5 -10.5t-17.5 -34.5z" />
    <glyph glyph-name="Adieresis" unicode="&#xc4;" horiz-adv-x="640" 
d="M249 700h143l233 -700h-133l-52 166h-246l-52 -166h-127zM227 273h180l-89 287zM212 773q-73 0 -73 67t73 67t73 -67t-73 -67zM429 773q-73 0 -73 67t73 67t73 -67t-73 -67z" />
    <glyph glyph-name="Aring" unicode="&#xc5;" horiz-adv-x="640" 
d="M249 700h143l233 -700h-133l-52 166h-246l-52 -166h-127zM227 273h180l-89 287zM210 840q0 47 30.5 77t79.5 30t79.5 -30t30.5 -77t-30.5 -77t-79.5 -30t-79.5 30t-30.5 77zM273 840q0 -22 12.5 -34.5t34.5 -12.5t34.5 12.5t12.5 34.5t-12.5 34.5t-34.5 12.5t-34.5 -12.5
t-12.5 -34.5z" />
    <glyph glyph-name="AE" unicode="&#xc6;" horiz-adv-x="935" 
d="M449 166h-218l-85 -166h-131l368 700h502v-114h-308v-176h268v-107h-268v-189h308v-114h-436v166zM449 273v316l-163 -316h163z" />
    <glyph glyph-name="Ccedilla" unicode="&#xc7;" horiz-adv-x="575" 
d="M335 -226q-27 0 -47.5 3.5t-37.5 11.5l9 59q28 -12 61 -12q29 0 40 9.5t11 27.5q0 19 -11.5 28t-42.5 9q-8 0 -16.5 -0.5t-15.5 -1.5l15 82q-65 7 -113 31t-79.5 68.5t-47 110t-15.5 155.5q0 189 79 273.5t236 84.5q36 0 67.5 -5t54.5 -11q27 -7 50 -16v-129
q-29 17 -69.5 29.5t-98.5 12.5q-47 0 -82 -12.5t-58.5 -41t-35 -74t-11.5 -111.5q0 -69 12 -117t35.5 -77t58.5 -42t82 -13q59 0 102.5 16t67.5 33v-129q-20 -11 -46 -19q-22 -8 -52.5 -13.5t-67.5 -6.5l-5 -30q45 -1 72.5 -20.5t27.5 -64.5t-32.5 -71.5t-96.5 -26.5z" />
    <glyph glyph-name="Egrave" unicode="&#xc8;" horiz-adv-x="575" 
d="M89 700h436v-114h-308v-176h268v-107h-268v-189h308v-114h-436v700zM115 915h160l92 -150h-102z" />
    <glyph glyph-name="Eacute" unicode="&#xc9;" horiz-adv-x="575" 
d="M89 700h436v-114h-308v-176h268v-107h-268v-189h308v-114h-436v700zM343 915h158l-152 -150h-100z" />
    <glyph glyph-name="Ecircumflex" unicode="&#xca;" horiz-adv-x="575" 
d="M89 700h436v-114h-308v-176h268v-107h-268v-189h308v-114h-436v700zM242 915h130l119 -150h-103l-81 85l-83 -85h-101z" />
    <glyph glyph-name="Edieresis" unicode="&#xcb;" horiz-adv-x="575" 
d="M89 700h436v-114h-308v-176h268v-107h-268v-189h308v-114h-436v700zM199 773q-73 0 -73 67t73 67t73 -67t-73 -67zM416 773q-73 0 -73 67t73 67t73 -67t-73 -67z" />
    <glyph glyph-name="Igrave" unicode="&#xcc;" horiz-adv-x="330" 
d="M101 700h128v-700h-128v700zM-35 915h160l92 -150h-102z" />
    <glyph glyph-name="Iacute" unicode="&#xcd;" horiz-adv-x="330" 
d="M101 700h128v-700h-128v700zM209 915h158l-152 -150h-100z" />
    <glyph glyph-name="Icircumflex" unicode="&#xce;" horiz-adv-x="330" 
d="M101 700h128v-700h-128v700zM101 915h130l119 -150h-103l-81 85l-83 -85h-101z" />
    <glyph glyph-name="Idieresis" unicode="&#xcf;" horiz-adv-x="330" 
d="M101 700h128v-700h-128v700zM58 773q-73 0 -73 67t73 67t73 -67t-73 -67zM275 773q-73 0 -73 67t73 67t73 -67t-73 -67z" />
    <glyph glyph-name="Eth" unicode="&#xd0;" horiz-adv-x="690" 
d="M13 401h86v294q33 2 68 5q30 2 66.5 4t73.5 2q89 0 153 -19.5t105 -61.5t60.5 -108.5t19.5 -159.5q0 -187 -85.5 -275t-259.5 -88q-34 0 -69.5 1.5t-64.5 3.5q-34 3 -67 6v304h-86v92zM513 357q0 64 -11.5 108t-36 71t-63 39t-92.5 12q-16 0 -31 -0.5t-26 -1.5
q-14 -1 -26 -2v-182h141v-92h-141v-192q11 -1 23 -2q11 -1 24.5 -1.5t28.5 -0.5q54 0 93.5 13t65.5 42.5t38.5 76t12.5 112.5z" />
    <glyph glyph-name="Ntilde" unicode="&#xd1;" horiz-adv-x="740" 
d="M89 700h150l230 -397q12 -22 22 -42l18 -36q9 -18 16 -36h2l-2 36q-1 16 -1.5 36t-0.5 42v397h128v-700h-150l-230 397q-13 23 -23 43l-18 36q-9 18 -15 35h-2q1 -17 2 -35q1 -16 1.5 -36t0.5 -43v-397h-128v700zM187 778q3 57 33 86.5t72 29.5q21 0 41.5 -6t43.5 -17
q24 -11 37.5 -16t27.5 -5q15 0 27 10t16 33l68 -12q-4 -54 -33.5 -84.5t-71.5 -30.5q-22 0 -39.5 3.5t-45.5 17.5q-21 10 -35 17t-28 7t-26.5 -10.5t-17.5 -34.5z" />
    <glyph glyph-name="Ograve" unicode="&#xd2;" horiz-adv-x="710" 
d="M355 -13q-153 0 -231.5 85.5t-78.5 277.5q0 190 79.5 276.5t230.5 86.5q78 0 136.5 -20t97 -63.5t57.5 -112.5t19 -167q0 -190 -79.5 -276.5t-230.5 -86.5zM355 102q44 0 77 12.5t55.5 41.5t34 76.5t11.5 117.5t-11.5 117.5t-34 76.5t-55.5 41.5t-77 12.5t-77 -12.5
t-55.5 -41.5t-34 -76.5t-11.5 -117.5q0 -69 11.5 -116.5t34 -77t56 -42t76.5 -12.5zM163 915h160l92 -150h-102z" />
    <glyph glyph-name="Oacute" unicode="&#xd3;" horiz-adv-x="710" 
d="M355 -13q-153 0 -231.5 85.5t-78.5 277.5q0 190 79.5 276.5t230.5 86.5q78 0 136.5 -20t97 -63.5t57.5 -112.5t19 -167q0 -190 -79.5 -276.5t-230.5 -86.5zM355 102q44 0 77 12.5t55.5 41.5t34 76.5t11.5 117.5t-11.5 117.5t-34 76.5t-55.5 41.5t-77 12.5t-77 -12.5
t-55.5 -41.5t-34 -76.5t-11.5 -117.5q0 -69 11.5 -116.5t34 -77t56 -42t76.5 -12.5zM390 915h158l-152 -150h-100z" />
    <glyph glyph-name="Ocircumflex" unicode="&#xd4;" horiz-adv-x="710" 
d="M355 -13q-153 0 -231.5 85.5t-78.5 277.5q0 190 79.5 276.5t230.5 86.5q78 0 136.5 -20t97 -63.5t57.5 -112.5t19 -167q0 -190 -79.5 -276.5t-230.5 -86.5zM355 102q44 0 77 12.5t55.5 41.5t34 76.5t11.5 117.5t-11.5 117.5t-34 76.5t-55.5 41.5t-77 12.5t-77 -12.5
t-55.5 -41.5t-34 -76.5t-11.5 -117.5q0 -69 11.5 -116.5t34 -77t56 -42t76.5 -12.5zM290 915h130l119 -150h-103l-81 85l-83 -85h-101z" />
    <glyph glyph-name="Otilde" unicode="&#xd5;" horiz-adv-x="710" 
d="M355 -13q-153 0 -231.5 85.5t-78.5 277.5q0 190 79.5 276.5t230.5 86.5q78 0 136.5 -20t97 -63.5t57.5 -112.5t19 -167q0 -190 -79.5 -276.5t-230.5 -86.5zM355 102q44 0 77 12.5t55.5 41.5t34 76.5t11.5 117.5t-11.5 117.5t-34 76.5t-55.5 41.5t-77 12.5t-77 -12.5
t-55.5 -41.5t-34 -76.5t-11.5 -117.5q0 -69 11.5 -116.5t34 -77t56 -42t76.5 -12.5zM172 778q3 57 33 86.5t72 29.5q21 0 41.5 -6t43.5 -17q24 -11 37.5 -16t27.5 -5q15 0 27 10t16 33l68 -12q-4 -54 -33.5 -84.5t-71.5 -30.5q-22 0 -39.5 3.5t-45.5 17.5q-21 10 -35 17
t-28 7t-26.5 -10.5t-17.5 -34.5z" />
    <glyph glyph-name="Odieresis" unicode="&#xd6;" horiz-adv-x="710" 
d="M355 -13q-153 0 -231.5 85.5t-78.5 277.5q0 190 79.5 276.5t230.5 86.5q78 0 136.5 -20t97 -63.5t57.5 -112.5t19 -167q0 -190 -79.5 -276.5t-230.5 -86.5zM355 102q44 0 77 12.5t55.5 41.5t34 76.5t11.5 117.5t-11.5 117.5t-34 76.5t-55.5 41.5t-77 12.5t-77 -12.5
t-55.5 -41.5t-34 -76.5t-11.5 -117.5q0 -69 11.5 -116.5t34 -77t56 -42t76.5 -12.5zM247 773q-73 0 -73 67t73 67t73 -67t-73 -67zM464 773q-73 0 -73 67t73 67t73 -67t-73 -67z" />
    <glyph glyph-name="multiply" unicode="&#xd7;" horiz-adv-x="600" 
d="M101 233l127 127l-127 127l72 72l127 -127l127 127l72 -72l-127 -127l127 -127l-72 -72l-127 127l-127 -127z" />
    <glyph glyph-name="Oslash" unicode="&#xd8;" horiz-adv-x="710" 
d="M355 -13q-102 0 -172 38l-46 -69l-62 44l48 72q-78 88 -78 278t79.5 276.5t230.5 86.5q52 0 95 -8.5t78 -27.5l45 67l62 -44l-47 -70q77 -86 77 -280q0 -190 -79.5 -276.5t-230.5 -86.5zM355 102q44 0 77 12.5t55.5 41.5t34 76.5t11.5 117.5q0 101 -26 159l-255 -381
q40 -26 103 -26zM177 350q0 -103 25 -159l255 381q-39 26 -102 26q-44 0 -77 -12.5t-55.5 -41.5t-34 -76.5t-11.5 -117.5z" />
    <glyph glyph-name="Ugrave" unicode="&#xd9;" horiz-adv-x="670" 
d="M335 -13q-68 0 -117 16t-80.5 50.5t-47 89t-15.5 132.5v425h127v-414q0 -53 7.5 -88t23.5 -55.5t41 -28.5t61 -8t61.5 8t41.5 28t23 55t7 89v414h127v-425q0 -77 -15.5 -132t-47.5 -89.5t-81 -50.5t-116 -16zM143 915h160l92 -150h-102z" />
    <glyph glyph-name="Uacute" unicode="&#xda;" horiz-adv-x="670" 
d="M335 -13q-68 0 -117 16t-80.5 50.5t-47 89t-15.5 132.5v425h127v-414q0 -53 7.5 -88t23.5 -55.5t41 -28.5t61 -8t61.5 8t41.5 28t23 55t7 89v414h127v-425q0 -77 -15.5 -132t-47.5 -89.5t-81 -50.5t-116 -16zM370 915h158l-152 -150h-100z" />
    <glyph glyph-name="Ucircumflex" unicode="&#xdb;" horiz-adv-x="670" 
d="M335 -13q-68 0 -117 16t-80.5 50.5t-47 89t-15.5 132.5v425h127v-414q0 -53 7.5 -88t23.5 -55.5t41 -28.5t61 -8t61.5 8t41.5 28t23 55t7 89v414h127v-425q0 -77 -15.5 -132t-47.5 -89.5t-81 -50.5t-116 -16zM270 915h130l119 -150h-103l-81 85l-83 -85h-101z" />
    <glyph glyph-name="Udieresis" unicode="&#xdc;" horiz-adv-x="670" 
d="M335 -13q-68 0 -117 16t-80.5 50.5t-47 89t-15.5 132.5v425h127v-414q0 -53 7.5 -88t23.5 -55.5t41 -28.5t61 -8t61.5 8t41.5 28t23 55t7 89v414h127v-425q0 -77 -15.5 -132t-47.5 -89.5t-81 -50.5t-116 -16zM227 773q-73 0 -73 67t73 67t73 -67t-73 -67zM444 773
q-73 0 -73 67t73 67t73 -67t-73 -67z" />
    <glyph glyph-name="Yacute" unicode="&#xdd;" horiz-adv-x="610" 
d="M246 259l-231 441h146l150 -298l144 298h140l-221 -441v-259h-128v259zM340 915h158l-152 -150h-100z" />
    <glyph glyph-name="Thorn" unicode="&#xde;" horiz-adv-x="620" 
d="M89 700h128v-95q20 2 40 3t41 1q76 0 129 -14.5t86 -44.5t47.5 -76t14.5 -109q0 -128 -66 -191t-211 -63q-29 0 -49.5 1.5t-31.5 1.5v-114h-128v700zM443 365q0 67 -31.5 96t-113.5 29q-29 0 -49.5 -1.5t-31.5 -2.5v-253q11 0 31.5 -1.5t49.5 -1.5q81 0 113 31t32 104z
" />
    <glyph glyph-name="germandbls" unicode="&#xdf;" horiz-adv-x="615" 
d="M69 510q0 129 62.5 194.5t181.5 65.5q110 0 166.5 -53t56.5 -143q0 -63 -27 -106t-75 -62v-2q66 -10 101.5 -58t35.5 -133q0 -118 -53.5 -172t-166.5 -54q-31 0 -54 3t-43 9v113q14 -5 34 -8t45 -3q54 0 80.5 28.5t26.5 92.5q0 66 -27.5 95.5t-85.5 29.5h-52v100h41
q42 0 65.5 25t23.5 81q0 103 -98 103q-56 0 -84 -33t-28 -113v-510h-126v510z" />
    <glyph glyph-name="agrave" unicode="&#xe0;" horiz-adv-x="535" 
d="M198 -13q-78 0 -118.5 41t-40.5 120q0 42 11 73t36 51.5t65 31t98 10.5h100v36q0 47 -23 66.5t-85 19.5q-47 0 -89.5 -12t-68.5 -29v120q30 13 77 22t101 9q58 0 98.5 -10t65 -33t35.5 -60t11 -91v-352h-110l-5 85q-15 -40 -54 -69t-104 -29zM242 91q50 0 78.5 29.5
t28.5 86.5v29h-86q-56 0 -77 -18.5t-21 -58.5q0 -34 18 -51t59 -17zM88 769h158l84 -151h-100z" />
    <glyph glyph-name="aacute" unicode="&#xe1;" horiz-adv-x="535" 
d="M198 -13q-78 0 -118.5 41t-40.5 120q0 42 11 73t36 51.5t65 31t98 10.5h100v36q0 47 -23 66.5t-85 19.5q-47 0 -89.5 -12t-68.5 -29v120q30 13 77 22t101 9q58 0 98.5 -10t65 -33t35.5 -60t11 -91v-352h-110l-5 85q-15 -40 -54 -69t-104 -29zM242 91q50 0 78.5 29.5
t28.5 86.5v29h-86q-56 0 -77 -18.5t-21 -58.5q0 -34 18 -51t59 -17zM300 769h156l-144 -151h-98z" />
    <glyph glyph-name="acircumflex" unicode="&#xe2;" horiz-adv-x="535" 
d="M198 -13q-78 0 -118.5 41t-40.5 120q0 42 11 73t36 51.5t65 31t98 10.5h100v36q0 47 -23 66.5t-85 19.5q-47 0 -89.5 -12t-68.5 -29v120q30 13 77 22t101 9q58 0 98.5 -10t65 -33t35.5 -60t11 -91v-352h-110l-5 85q-15 -40 -54 -69t-104 -29zM242 91q50 0 78.5 29.5
t28.5 86.5v29h-86q-56 0 -77 -18.5t-21 -58.5q0 -34 18 -51t59 -17zM208 769h128l112 -151h-101l-74 88l-78 -88h-99z" />
    <glyph glyph-name="atilde" unicode="&#xe3;" horiz-adv-x="535" 
d="M198 -13q-78 0 -118.5 41t-40.5 120q0 42 11 73t36 51.5t65 31t98 10.5h100v36q0 47 -23 66.5t-85 19.5q-47 0 -89.5 -12t-68.5 -29v120q30 13 77 22t101 9q58 0 98.5 -10t65 -33t35.5 -60t11 -91v-352h-110l-5 85q-15 -40 -54 -69t-104 -29zM242 91q50 0 78.5 29.5
t28.5 86.5v29h-86q-56 0 -77 -18.5t-21 -58.5q0 -34 18 -51t59 -17zM95 632q2 56 30 86t70 30q20 0 39 -6.5t42 -17.5q24 -11 35.5 -16.5t25.5 -5.5q31 0 38 45l68 -12q-4 -54 -31 -84.5t-68 -30.5q-11 0 -20 1t-18 3.5t-19.5 6.5t-24.5 11q-21 10 -33.5 17t-26.5 7
q-13 0 -23.5 -11t-15.5 -35z" />
    <glyph glyph-name="adieresis" unicode="&#xe4;" horiz-adv-x="535" 
d="M198 -13q-78 0 -118.5 41t-40.5 120q0 42 11 73t36 51.5t65 31t98 10.5h100v36q0 47 -23 66.5t-85 19.5q-47 0 -89.5 -12t-68.5 -29v120q30 13 77 22t101 9q58 0 98.5 -10t65 -33t35.5 -60t11 -91v-352h-110l-5 85q-15 -40 -54 -69t-104 -29zM242 91q50 0 78.5 29.5
t28.5 86.5v29h-86q-56 0 -77 -18.5t-21 -58.5q0 -34 18 -51t59 -17zM168 628q-71 0 -71 66q0 65 71 65t71 -65q0 -66 -71 -66zM376 628q-71 0 -71 66q0 65 71 65t71 -65q0 -66 -71 -66z" />
    <glyph glyph-name="aring" unicode="&#xe5;" horiz-adv-x="535" 
d="M198 -13q-78 0 -118.5 41t-40.5 120q0 42 11 73t36 51.5t65 31t98 10.5h100v36q0 47 -23 66.5t-85 19.5q-47 0 -89.5 -12t-68.5 -29v120q30 13 77 22t101 9q58 0 98.5 -10t65 -33t35.5 -60t11 -91v-352h-110l-5 85q-15 -40 -54 -69t-104 -29zM242 91q50 0 78.5 29.5
t28.5 86.5v29h-86q-56 0 -77 -18.5t-21 -58.5q0 -34 18 -51t59 -17zM166 694q0 47 29.5 76t78.5 29t78.5 -29t29.5 -76q0 -48 -29.5 -76.5t-78.5 -28.5t-78.5 28.5t-29.5 76.5zM228 694q0 -22 12.5 -34t33.5 -12t33.5 12.5t12.5 33.5t-12.5 33.5t-33.5 12.5t-33.5 -12.5
t-12.5 -33.5z" />
    <glyph glyph-name="ae" unicode="&#xe6;" horiz-adv-x="860" 
d="M606 -13q-138 0 -195 84q-66 -84 -196 -84q-91 0 -133.5 41t-42.5 120q0 42 11 73t36.5 51.5t66 31t100.5 10.5h103v36q0 47 -23.5 66.5t-87.5 19.5q-50 0 -93 -12t-69 -29v120q30 13 77.5 22t104.5 9q65 0 106.5 -13t64.5 -44q58 57 157 57q122 0 175 -64.5t53 -188.5
v-58h-344q3 -76 37 -110t106 -34q25 0 49.5 4t46.5 11t41 17t32 22v-113q-27 -18 -71 -31.5t-112 -13.5zM593 450q-55 0 -83.5 -32.5t-32.5 -104.5h222q0 67 -22.5 102t-83.5 35zM245 91q53 0 82 29.5t29 86.5v29h-89q-59 0 -80.5 -18.5t-21.5 -58.5q0 -34 18.5 -51
t61.5 -17z" />
    <glyph glyph-name="ccedilla" unicode="&#xe7;" horiz-adv-x="475" 
d="M270 -226q-27 0 -46.5 3.5t-37.5 11.5l10 58q28 -12 60 -12q27 0 38 10t11 28q0 19 -11.5 28.5t-40.5 9.5q-8 0 -17 -0.5t-15 -1.5l15 82q-101 13 -149 79t-48 202q0 142 64 208t189 66q31 0 57 -3.5t45 -8.5t30.5 -9.5t14.5 -5.5v-127q-24 18 -56.5 31t-77.5 13
q-72 0 -106 -37.5t-34 -126.5q0 -95 36.5 -135t113.5 -40q38 0 74 13t56 32v-121q-3 -2 -14.5 -7t-29.5 -11t-42.5 -10.5t-54.5 -5.5l-6 -30q45 -1 72.5 -20.5t27.5 -64.5t-32.5 -71.5t-95.5 -26.5z" />
    <glyph glyph-name="egrave" unicode="&#xe8;" horiz-adv-x="550" 
d="M293 -13q-136 0 -195 70t-59 217q0 138 63.5 205t177.5 67q124 0 177.5 -64.5t53.5 -188.5v-58h-350q3 -76 37.5 -110t108.5 -34q51 0 98.5 16.5t73.5 40.5v-113q-29 -19 -73 -33.5t-113 -14.5zM280 450q-57 0 -86 -32.5t-33 -104.5h228q0 67 -23 102t-86 35zM93 769h158
l84 -151h-100z" />
    <glyph glyph-name="eacute" unicode="&#xe9;" horiz-adv-x="550" 
d="M293 -13q-136 0 -195 70t-59 217q0 138 63.5 205t177.5 67q124 0 177.5 -64.5t53.5 -188.5v-58h-350q3 -76 37.5 -110t108.5 -34q51 0 98.5 16.5t73.5 40.5v-113q-29 -19 -73 -33.5t-113 -14.5zM280 450q-57 0 -86 -32.5t-33 -104.5h228q0 67 -23 102t-86 35zM305 769
h156l-144 -151h-98z" />
    <glyph glyph-name="ecircumflex" unicode="&#xea;" horiz-adv-x="550" 
d="M293 -13q-136 0 -195 70t-59 217q0 138 63.5 205t177.5 67q124 0 177.5 -64.5t53.5 -188.5v-58h-350q3 -76 37.5 -110t108.5 -34q51 0 98.5 16.5t73.5 40.5v-113q-29 -19 -73 -33.5t-113 -14.5zM280 450q-57 0 -86 -32.5t-33 -104.5h228q0 67 -23 102t-86 35zM213 769
h128l112 -151h-101l-74 88l-78 -88h-99z" />
    <glyph glyph-name="edieresis" unicode="&#xeb;" horiz-adv-x="550" 
d="M293 -13q-136 0 -195 70t-59 217q0 138 63.5 205t177.5 67q124 0 177.5 -64.5t53.5 -188.5v-58h-350q3 -76 37.5 -110t108.5 -34q51 0 98.5 16.5t73.5 40.5v-113q-29 -19 -73 -33.5t-113 -14.5zM280 450q-57 0 -86 -32.5t-33 -104.5h228q0 67 -23 102t-86 35zM173 628
q-71 0 -71 66q0 65 71 65t71 -65q0 -66 -71 -66zM381 628q-71 0 -71 66q0 65 71 65t71 -65q0 -66 -71 -66z" />
    <glyph glyph-name="igrave" unicode="&#xec;" horiz-adv-x="290" 
d="M84 534h122v-534h-122v534zM-46 769h158l84 -151h-100z" />
    <glyph glyph-name="iacute" unicode="&#xed;" horiz-adv-x="290" 
d="M84 534h122v-534h-122v534zM182 769h156l-144 -151h-98z" />
    <glyph glyph-name="icircumflex" unicode="&#xee;" horiz-adv-x="290" 
d="M84 534h122v-534h-122v534zM82 769h128l112 -151h-101l-74 88l-78 -88h-99z" />
    <glyph glyph-name="idieresis" unicode="&#xef;" horiz-adv-x="290" 
d="M84 534h122v-534h-122v534zM42 628q-71 0 -71 66q0 65 71 65t71 -65q0 -66 -71 -66zM250 628q-71 0 -71 66q0 65 71 65t71 -65q0 -66 -71 -66z" />
    <glyph glyph-name="eth" unicode="&#xf0;" horiz-adv-x="585" 
d="M135 616l90 48q-60 32 -128 47l40 72q104 -25 181 -69l129 70l28 -55l-100 -53q86 -68 126 -166t40 -228q0 -83 -21 -139.5t-56.5 -91t-82 -49.5t-98.5 -15q-64 0 -110 19.5t-76 55t-44 85.5t-14 111q0 127 54 194.5t168 67.5q33 0 71.5 -11.5t72.5 -49.5l3 2
q-13 50 -45.5 92t-77.5 75l-123 -66zM290 97q65 0 95 36.5t30 125.5q0 82 -27.5 116.5t-97.5 34.5q-32 0 -55.5 -7t-39 -24.5t-23 -46.5t-7.5 -73q0 -89 32 -125.5t93 -36.5z" />
    <glyph glyph-name="ntilde" unicode="&#xf1;" horiz-adv-x="585" 
d="M69 534h117l5 -82q43 94 156 94q85 0 129.5 -45.5t44.5 -149.5v-351h-122v310q0 36 -6 60.5t-18 39t-31 20.5t-46 6q-51 0 -79 -30t-28 -96v-310h-122v534zM120 632q2 56 30 86t70 30q20 0 39 -6.5t42 -17.5q24 -11 35.5 -16.5t25.5 -5.5q31 0 38 45l68 -12
q-4 -54 -31 -84.5t-68 -30.5q-11 0 -20 1t-18 3.5t-19.5 6.5t-24.5 11q-21 10 -33.5 17t-26.5 7q-13 0 -23.5 -11t-15.5 -35z" />
    <glyph glyph-name="ograve" unicode="&#xf2;" horiz-adv-x="570" 
d="M285 -13q-122 0 -184 66.5t-62 213.5q0 143 64 211t182 68q125 0 185.5 -64.5t60.5 -214.5q0 -147 -62.5 -213.5t-183.5 -66.5zM285 97q30 0 52.5 8.5t37.5 28t22.5 52.5t7.5 81t-7.5 80.5t-22.5 52t-37.5 28t-52.5 8.5q-59 0 -89.5 -37.5t-30.5 -131.5q0 -48 7.5 -81
t22.5 -52.5t37.5 -28t52.5 -8.5zM102 769h158l84 -151h-100z" />
    <glyph glyph-name="oacute" unicode="&#xf3;" horiz-adv-x="570" 
d="M285 -13q-122 0 -184 66.5t-62 213.5q0 143 64 211t182 68q125 0 185.5 -64.5t60.5 -214.5q0 -147 -62.5 -213.5t-183.5 -66.5zM285 97q30 0 52.5 8.5t37.5 28t22.5 52.5t7.5 81t-7.5 80.5t-22.5 52t-37.5 28t-52.5 8.5q-59 0 -89.5 -37.5t-30.5 -131.5q0 -48 7.5 -81
t22.5 -52.5t37.5 -28t52.5 -8.5zM313 769h156l-144 -151h-98z" />
    <glyph glyph-name="ocircumflex" unicode="&#xf4;" horiz-adv-x="570" 
d="M285 -13q-122 0 -184 66.5t-62 213.5q0 143 64 211t182 68q125 0 185.5 -64.5t60.5 -214.5q0 -147 -62.5 -213.5t-183.5 -66.5zM285 97q30 0 52.5 8.5t37.5 28t22.5 52.5t7.5 81t-7.5 80.5t-22.5 52t-37.5 28t-52.5 8.5q-59 0 -89.5 -37.5t-30.5 -131.5q0 -48 7.5 -81
t22.5 -52.5t37.5 -28t52.5 -8.5zM221 769h128l112 -151h-101l-74 88l-78 -88h-99z" />
    <glyph glyph-name="otilde" unicode="&#xf5;" horiz-adv-x="570" 
d="M285 -13q-122 0 -184 66.5t-62 213.5q0 143 64 211t182 68q125 0 185.5 -64.5t60.5 -214.5q0 -147 -62.5 -213.5t-183.5 -66.5zM285 97q30 0 52.5 8.5t37.5 28t22.5 52.5t7.5 81t-7.5 80.5t-22.5 52t-37.5 28t-52.5 8.5q-59 0 -89.5 -37.5t-30.5 -131.5q0 -48 7.5 -81
t22.5 -52.5t37.5 -28t52.5 -8.5zM111 632q2 56 30 86t70 30q20 0 39 -6.5t42 -17.5q24 -11 35.5 -16.5t25.5 -5.5q31 0 38 45l68 -12q-4 -54 -31 -84.5t-68 -30.5q-11 0 -20 1t-18 3.5t-19.5 6.5t-24.5 11q-21 10 -33.5 17t-26.5 7q-13 0 -23.5 -11t-15.5 -35z" />
    <glyph glyph-name="odieresis" unicode="&#xf6;" horiz-adv-x="570" 
d="M285 -13q-122 0 -184 66.5t-62 213.5q0 143 64 211t182 68q125 0 185.5 -64.5t60.5 -214.5q0 -147 -62.5 -213.5t-183.5 -66.5zM285 97q30 0 52.5 8.5t37.5 28t22.5 52.5t7.5 81t-7.5 80.5t-22.5 52t-37.5 28t-52.5 8.5q-59 0 -89.5 -37.5t-30.5 -131.5q0 -48 7.5 -81
t22.5 -52.5t37.5 -28t52.5 -8.5zM181 628q-71 0 -71 66q0 65 71 65t71 -65q0 -66 -71 -66zM389 628q-71 0 -71 66q0 65 71 65t71 -65q0 -66 -71 -66z" />
    <glyph glyph-name="divide" unicode="&#xf7;" horiz-adv-x="600" 
d="M90 410h420v-107h-420v107zM300 85q-81 0 -81 81t81 81t81 -81t-81 -81zM300 466q-40 0 -60.5 21t-20.5 60q0 81 81 81t81 -81q0 -39 -20.5 -60t-60.5 -21z" />
    <glyph glyph-name="oslash" unicode="&#xf8;" horiz-adv-x="570" 
d="M285 -13q-77 0 -128 25l-35 -53l-59 41l37 55q-61 67 -61 212q0 143 64 211t182 68q75 0 128 -24l35 52l59 -40l-36 -54q30 -34 45 -86t15 -127q0 -147 -62.5 -213.5t-183.5 -66.5zM285 97q30 0 52.5 8.5t37.5 28t22.5 52.5t7.5 81q0 59 -12 97l-170 -254q25 -13 62 -13z
M165 267q0 -61 12 -98l170 254q-25 13 -62 13q-59 0 -89.5 -37.5t-30.5 -131.5z" />
    <glyph glyph-name="ugrave" unicode="&#xf9;" horiz-adv-x="580" 
d="M237 -13q-83 0 -128 46t-45 150v351h122v-310q0 -73 23 -100t74 -27t78.5 30.5t27.5 96.5v310h122v-534h-117l-5 81q-44 -94 -152 -94zM104 769h158l84 -151h-100z" />
    <glyph glyph-name="uacute" unicode="&#xfa;" horiz-adv-x="580" 
d="M237 -13q-83 0 -128 46t-45 150v351h122v-310q0 -73 23 -100t74 -27t78.5 30.5t27.5 96.5v310h122v-534h-117l-5 81q-44 -94 -152 -94zM315 769h156l-144 -151h-98z" />
    <glyph glyph-name="ucircumflex" unicode="&#xfb;" horiz-adv-x="580" 
d="M237 -13q-83 0 -128 46t-45 150v351h122v-310q0 -73 23 -100t74 -27t78.5 30.5t27.5 96.5v310h122v-534h-117l-5 81q-44 -94 -152 -94zM223 769h128l112 -151h-101l-74 88l-78 -88h-99z" />
    <glyph glyph-name="udieresis" unicode="&#xfc;" horiz-adv-x="580" 
d="M237 -13q-83 0 -128 46t-45 150v351h122v-310q0 -73 23 -100t74 -27t78.5 30.5t27.5 96.5v310h122v-534h-117l-5 81q-44 -94 -152 -94zM183 628q-71 0 -71 66q0 65 71 65t71 -65q0 -66 -71 -66zM391 628q-71 0 -71 66q0 65 71 65t71 -65q0 -66 -71 -66z" />
    <glyph glyph-name="yacute" unicode="&#xfd;" horiz-adv-x="520" 
d="M174 -193q-26 0 -47 5.5t-24 7.5v112q11 -7 22.5 -11t27.5 -4q10 0 19.5 3t17.5 12t15.5 25.5t14.5 42.5l-205 534h132l129 -366l104 366h125l-162 -528q-20 -64 -38 -103t-37.5 -60.5t-42.5 -28.5t-51 -7zM288 769h156l-144 -151h-98z" />
    <glyph glyph-name="thorn" unicode="&#xfe;" horiz-adv-x="590" 
d="M69 757h122v-303q10 19 24.5 36t34.5 29.5t46.5 19.5t60.5 7q49 0 85.5 -15t60.5 -47.5t36 -84.5t12 -127q0 -153 -51.5 -219t-155.5 -66q-33 0 -58 8t-43.5 20.5t-31 29t-20.5 33.5v-258h-122v937zM425 272q0 47 -7 78.5t-21.5 50.5t-36 27t-50.5 8q-57 0 -88 -33.5
t-31 -107.5v-56q0 -73 31.5 -107.5t86.5 -34.5q29 0 51 8t36.5 28.5t21.5 54t7 84.5z" />
    <glyph glyph-name="ydieresis" unicode="&#xff;" horiz-adv-x="520" 
d="M174 -193q-26 0 -47 5.5t-24 7.5v112q11 -7 22.5 -11t27.5 -4q10 0 19.5 3t17.5 12t15.5 25.5t14.5 42.5l-205 534h132l129 -366l104 366h125l-162 -528q-20 -64 -38 -103t-37.5 -60.5t-42.5 -28.5t-51 -7zM156 628q-71 0 -71 66q0 65 71 65t71 -65q0 -66 -71 -66z
M364 628q-71 0 -71 66q0 65 71 65t71 -65q0 -66 -71 -66z" />
    <glyph glyph-name="Amacron" unicode="&#x100;" horiz-adv-x="640" 
d="M249 700h143l233 -700h-133l-52 166h-246l-52 -166h-127zM227 273h180l-89 287zM163 874h314v-88h-314v88z" />
    <glyph glyph-name="amacron" unicode="&#x101;" horiz-adv-x="535" 
d="M198 -13q-78 0 -118.5 41t-40.5 120q0 42 11 73t36 51.5t65 31t98 10.5h100v36q0 47 -23 66.5t-85 19.5q-47 0 -89.5 -12t-68.5 -29v120q30 13 77 22t101 9q58 0 98.5 -10t65 -33t35.5 -60t11 -91v-352h-110l-5 85q-15 -40 -54 -69t-104 -29zM242 91q50 0 78.5 29.5
t28.5 86.5v29h-86q-56 0 -77 -18.5t-21 -58.5q0 -34 18 -51t59 -17zM134 726h282v-84h-282v84z" />
    <glyph glyph-name="Abreve" unicode="&#x102;" horiz-adv-x="640" 
d="M249 700h143l233 -700h-133l-52 166h-246l-52 -166h-127zM227 273h180l-89 287zM320 761q-68 0 -111 34t-60 102l80 22q20 -73 91 -73q70 0 92 73l79 -22q-17 -69 -60 -102.5t-111 -33.5z" />
    <glyph glyph-name="abreve" unicode="&#x103;" horiz-adv-x="535" 
d="M198 -13q-78 0 -118.5 41t-40.5 120q0 42 11 73t36 51.5t65 31t98 10.5h100v36q0 47 -23 66.5t-85 19.5q-47 0 -89.5 -12t-68.5 -29v120q30 13 77 22t101 9q58 0 98.5 -10t65 -33t35.5 -60t11 -91v-352h-110l-5 85q-15 -40 -54 -69t-104 -29zM242 91q50 0 78.5 29.5
t28.5 86.5v29h-86q-56 0 -77 -18.5t-21 -58.5q0 -34 18 -51t59 -17zM272 615q-66 0 -109 34t-57 103l78 20q8 -38 31 -56t57 -18t58 18t32 56l76 -21q-14 -69 -56.5 -102.5t-109.5 -33.5z" />
    <glyph glyph-name="Aogonek" unicode="&#x104;" horiz-adv-x="640" 
d="M539 -203q-60 0 -86 22.5t-26 62.5q0 35 21.5 64t63.5 54h-20l-52 166h-246l-52 -166h-127l234 700h143l233 -700q-51 -23 -74 -49.5t-23 -48.5q0 -33 39 -33q29 0 58 16v-69q-16 -8 -36.5 -13.5t-49.5 -5.5zM227 273h180l-89 287z" />
    <glyph glyph-name="aogonek" unicode="&#x105;" horiz-adv-x="535" 
d="M385 -203q-60 0 -86 22.5t-26 62.5q0 68 88 120l-5 83q-15 -40 -54 -69t-104 -29q-78 0 -118.5 41t-40.5 120q0 42 11 73t36 51.5t65 31t98 10.5h100v36q0 47 -23 66.5t-85 19.5q-47 0 -89.5 -12t-68.5 -29v120q30 13 77 22t101 9q58 0 98.5 -10t65 -33t35.5 -60t11 -91
v-352q-52 -23 -75 -49.5t-23 -48.5q0 -34 40 -34q29 0 58 16v-68q-16 -8 -37 -13.5t-49 -5.5zM242 91q50 0 78.5 29.5t28.5 86.5v29h-86q-56 0 -77 -18.5t-21 -58.5q0 -34 18 -51t59 -17z" />
    <glyph glyph-name="Cacute" unicode="&#x106;" horiz-adv-x="575" 
d="M362 -13q-81 0 -140.5 20t-99 64t-58.5 114t-19 170q0 189 79 273.5t236 84.5q36 0 67.5 -5t54.5 -11q27 -7 50 -16v-129q-29 17 -69.5 29.5t-98.5 12.5q-47 0 -82 -12.5t-58.5 -41t-35 -74t-11.5 -111.5q0 -69 12 -117t35.5 -77t58.5 -42t82 -13q59 0 102.5 16t67.5 33
v-129q-22 -11 -48 -20q-23 -8 -55 -13.5t-70 -5.5zM372 915h158l-152 -150h-100z" />
    <glyph glyph-name="cacute" unicode="&#x107;" horiz-adv-x="475" 
d="M295 -13q-66 0 -114.5 15.5t-80 50t-46.5 88.5t-15 131q0 142 64 208t189 66q31 0 57 -3.5t45 -8.5t30.5 -9.5t14.5 -5.5v-127q-24 18 -56.5 31t-77.5 13q-72 0 -106 -37.5t-34 -126.5q0 -95 36.5 -135t113.5 -40q38 0 74 13t56 32v-121q-3 -2 -15 -7.5t-31.5 -11.5
t-46 -10.5t-57.5 -4.5zM300 769h156l-144 -151h-98z" />
    <glyph glyph-name="Ccircumflex" unicode="&#x108;" horiz-adv-x="575" 
d="M362 -13q-81 0 -140.5 20t-99 64t-58.5 114t-19 170q0 189 79 273.5t236 84.5q36 0 67.5 -5t54.5 -11q27 -7 50 -16v-129q-29 17 -69.5 29.5t-98.5 12.5q-47 0 -82 -12.5t-58.5 -41t-35 -74t-11.5 -111.5q0 -69 12 -117t35.5 -77t58.5 -42t82 -13q59 0 102.5 16t67.5 33
v-129q-22 -11 -48 -20q-23 -8 -55 -13.5t-70 -5.5zM272 915h130l119 -150h-103l-81 85l-83 -85h-101z" />
    <glyph glyph-name="ccircumflex" unicode="&#x109;" horiz-adv-x="475" 
d="M295 -13q-66 0 -114.5 15.5t-80 50t-46.5 88.5t-15 131q0 142 64 208t189 66q31 0 57 -3.5t45 -8.5t30.5 -9.5t14.5 -5.5v-127q-24 18 -56.5 31t-77.5 13q-72 0 -106 -37.5t-34 -126.5q0 -95 36.5 -135t113.5 -40q38 0 74 13t56 32v-121q-3 -2 -15 -7.5t-31.5 -11.5
t-46 -10.5t-57.5 -4.5zM208 769h128l112 -151h-101l-74 88l-78 -88h-99z" />
    <glyph glyph-name="Cdotaccent" unicode="&#x10a;" horiz-adv-x="575" 
d="M362 -13q-81 0 -140.5 20t-99 64t-58.5 114t-19 170q0 189 79 273.5t236 84.5q36 0 67.5 -5t54.5 -11q27 -7 50 -16v-129q-29 17 -69.5 29.5t-98.5 12.5q-47 0 -82 -12.5t-58.5 -41t-35 -74t-11.5 -111.5q0 -69 12 -117t35.5 -77t58.5 -42t82 -13q59 0 102.5 16t67.5 33
v-129q-22 -11 -48 -20q-23 -8 -55 -13.5t-70 -5.5zM337 770q-76 0 -76 70t76 70t76 -70t-76 -70z" />
    <glyph glyph-name="cdotaccent" unicode="&#x10b;" horiz-adv-x="475" 
d="M295 -13q-66 0 -114.5 15.5t-80 50t-46.5 88.5t-15 131q0 142 64 208t189 66q31 0 57 -3.5t45 -8.5t30.5 -9.5t14.5 -5.5v-127q-24 18 -56.5 31t-77.5 13q-72 0 -106 -37.5t-34 -126.5q0 -95 36.5 -135t113.5 -40q38 0 74 13t56 32v-121q-3 -2 -15 -7.5t-31.5 -11.5
t-46 -10.5t-57.5 -4.5zM272 626q-74 0 -74 68t74 68t74 -68t-74 -68z" />
    <glyph glyph-name="Ccaron" unicode="&#x10c;" horiz-adv-x="575" 
d="M362 -13q-81 0 -140.5 20t-99 64t-58.5 114t-19 170q0 189 79 273.5t236 84.5q36 0 67.5 -5t54.5 -11q27 -7 50 -16v-129q-29 17 -69.5 29.5t-98.5 12.5q-47 0 -82 -12.5t-58.5 -41t-35 -74t-11.5 -111.5q0 -69 12 -117t35.5 -77t58.5 -42t82 -13q59 0 102.5 16t67.5 33
v-129q-22 -11 -48 -20q-23 -8 -55 -13.5t-70 -5.5zM153 915h103l81 -85l83 85h101l-119 -150h-130z" />
    <glyph glyph-name="ccaron" unicode="&#x10d;" horiz-adv-x="475" 
d="M295 -13q-66 0 -114.5 15.5t-80 50t-46.5 88.5t-15 131q0 142 64 208t189 66q31 0 57 -3.5t45 -8.5t30.5 -9.5t14.5 -5.5v-127q-24 18 -56.5 31t-77.5 13q-72 0 -106 -37.5t-34 -126.5q0 -95 36.5 -135t113.5 -40q38 0 74 13t56 32v-121q-3 -2 -15 -7.5t-31.5 -11.5
t-46 -10.5t-57.5 -4.5zM96 769h101l75 -87l77 87h99l-112 -151h-128z" />
    <glyph glyph-name="Dcaron" unicode="&#x10e;" horiz-adv-x="680" 
d="M290 -6q-34 0 -69.5 1.5t-64.5 3.5q-34 3 -67 6v690q33 2 68 5q30 2 66.5 4t73.5 2q89 0 153 -19.5t105 -61.5t60.5 -108.5t19.5 -159.5q0 -187 -85.5 -275t-259.5 -88zM503 357q0 64 -11.5 108t-36 71t-63 39t-92.5 12q-16 0 -31 -0.5t-26 -1.5q-14 -1 -26 -2v-466
q11 -1 23 -2q11 -1 24.5 -1.5t28.5 -0.5q54 0 93.5 13t65.5 42.5t38.5 76t12.5 112.5zM132 915h103l81 -85l83 85h101l-119 -150h-130z" />
    <glyph glyph-name="dcaron" unicode="&#x10f;" horiz-adv-x="660" 
d="M619 757h115l-63 -191h-82zM399 81q-8 -17 -21.5 -33.5t-33 -30t-46 -22t-59.5 -8.5q-51 0 -88.5 15.5t-62.5 49.5t-37 88t-12 132q0 144 50.5 209t153.5 65q59 0 98 -24t58 -66v301h122v-757h-117zM165 272q0 -51 7.5 -84.5t22 -53.5t36 -28.5t50.5 -8.5q55 0 86.5 34.5
t31.5 108.5v56q0 140 -119 140q-58 0 -86.5 -35.5t-28.5 -128.5z" />
    <glyph glyph-name="Dcroat" unicode="&#x110;" horiz-adv-x="690" 
d="M13 401h86v294q33 2 68 5q30 2 66.5 4t73.5 2q89 0 153 -19.5t105 -61.5t60.5 -108.5t19.5 -159.5q0 -187 -85.5 -275t-259.5 -88q-34 0 -69.5 1.5t-64.5 3.5q-34 3 -67 6v304h-86v92zM513 357q0 64 -11.5 108t-36 71t-63 39t-92.5 12q-16 0 -31 -0.5t-26 -1.5
q-14 -1 -26 -2v-182h141v-92h-141v-192q11 -1 23 -2q11 -1 24.5 -1.5t28.5 -0.5q54 0 93.5 13t65.5 42.5t38.5 76t12.5 112.5z" />
    <glyph glyph-name="dcroat" unicode="&#x111;" horiz-adv-x="590" 
d="M213 680h186v77h122v-77h86v-86h-86v-594h-117l-5 81q-8 -17 -21.5 -33.5t-33 -30t-46 -22t-59.5 -8.5q-51 0 -88.5 15.5t-62.5 49.5t-37 88t-12 132q0 144 50.5 209t153.5 65q59 0 98 -24t58 -66v138h-186v86zM165 272q0 -51 7.5 -84.5t22 -53.5t36 -28.5t50.5 -8.5
q55 0 86.5 34.5t31.5 108.5v56q0 140 -119 140q-58 0 -86.5 -35.5t-28.5 -128.5z" />
    <glyph glyph-name="Emacron" unicode="&#x112;" horiz-adv-x="575" 
d="M89 700h436v-114h-308v-176h268v-107h-268v-189h308v-114h-436v700zM150 874h314v-88h-314v88z" />
    <glyph glyph-name="emacron" unicode="&#x113;" horiz-adv-x="550" 
d="M293 -13q-136 0 -195 70t-59 217q0 138 63.5 205t177.5 67q124 0 177.5 -64.5t53.5 -188.5v-58h-350q3 -76 37.5 -110t108.5 -34q51 0 98.5 16.5t73.5 40.5v-113q-29 -19 -73 -33.5t-113 -14.5zM280 450q-57 0 -86 -32.5t-33 -104.5h228q0 67 -23 102t-86 35zM139 726
h282v-84h-282v84z" />
    <glyph glyph-name="Edotaccent" unicode="&#x116;" horiz-adv-x="575" 
d="M89 700h436v-114h-308v-176h268v-107h-268v-189h308v-114h-436v700zM307 770q-76 0 -76 70t76 70t76 -70t-76 -70z" />
    <glyph glyph-name="edotaccent" unicode="&#x117;" horiz-adv-x="550" 
d="M293 -13q-136 0 -195 70t-59 217q0 138 63.5 205t177.5 67q124 0 177.5 -64.5t53.5 -188.5v-58h-350q3 -76 37.5 -110t108.5 -34q51 0 98.5 16.5t73.5 40.5v-113q-29 -19 -73 -33.5t-113 -14.5zM280 450q-57 0 -86 -32.5t-33 -104.5h228q0 67 -23 102t-86 35zM277 626
q-74 0 -74 68t74 68t74 -68t-74 -68z" />
    <glyph glyph-name="Eogonek" unicode="&#x118;" horiz-adv-x="575" 
d="M89 700h436v-114h-308v-176h268v-107h-268v-189h308v-114q-51 -23 -74 -49.5t-23 -48.5q0 -33 39 -33q29 0 58 16v-69q-16 -8 -36.5 -13.5t-49.5 -5.5q-60 0 -86 22.5t-26 62.5q0 35 21.5 64t63.5 54h-323v700z" />
    <glyph glyph-name="eogonek" unicode="&#x119;" horiz-adv-x="550" 
d="M293 -13q-136 0 -195 70t-59 217q0 138 63.5 205t177.5 67q124 0 177.5 -64.5t53.5 -188.5v-58h-350q3 -76 37.5 -110t108.5 -34q51 0 98.5 16.5t73.5 40.5v-113q-2 -2 -4 -3l-4 -2q-36 -24 -59.5 -42.5t-36.5 -33.5t-18 -27.5t-5 -24.5q0 -34 40 -34q29 0 59 16v-68
q-16 -8 -37 -13.5t-50 -5.5q-60 0 -85.5 22.5t-25.5 62.5q0 32 17 57.5t49 48.5q-6 -1 -12.5 -1h-13.5zM280 450q-57 0 -86 -32.5t-33 -104.5h228q0 67 -23 102t-86 35z" />
    <glyph glyph-name="Ecaron" unicode="&#x11a;" horiz-adv-x="575" 
d="M89 700h436v-114h-308v-176h268v-107h-268v-189h308v-114h-436v700zM123 915h103l81 -85l83 85h101l-119 -150h-130z" />
    <glyph glyph-name="ecaron" unicode="&#x11b;" horiz-adv-x="550" 
d="M293 -13q-136 0 -195 70t-59 217q0 138 63.5 205t177.5 67q124 0 177.5 -64.5t53.5 -188.5v-58h-350q3 -76 37.5 -110t108.5 -34q51 0 98.5 16.5t73.5 40.5v-113q-29 -19 -73 -33.5t-113 -14.5zM280 450q-57 0 -86 -32.5t-33 -104.5h228q0 67 -23 102t-86 35zM101 769
h101l75 -87l77 87h99l-112 -151h-128z" />
    <glyph glyph-name="Gcircumflex" unicode="&#x11c;" horiz-adv-x="650" 
d="M373 -13q-85 0 -146.5 20t-102 64.5t-60 114t-19.5 168.5q0 188 81.5 273.5t246.5 85.5q39 0 70.5 -5t54.5 -11q26 -7 47 -16v-129q-29 16 -73.5 29t-98.5 13q-50 0 -86.5 -13t-61 -41.5t-36.5 -74t-12 -110.5q0 -70 12 -117.5t36 -77t61 -42t87 -12.5q29 0 51 4t41 9
v153h-112v107h232v-342q-29 -16 -83 -33t-129 -17zM288 915h130l119 -150h-103l-81 85l-83 -85h-101z" />
    <glyph glyph-name="gcircumflex" unicode="&#x11d;" horiz-adv-x="590" 
d="M263 -193q-59 0 -106.5 10.5t-73.5 23.5v130q10 -9 27 -18.5t40 -17.5t52 -13t63 -5q71 0 102.5 31t31.5 98v59q-8 -17 -21.5 -33.5t-33 -30t-46 -22t-59.5 -8.5q-101 0 -150.5 62.5t-49.5 201.5q0 143 50.5 207t153.5 64q59 0 98 -24t58 -66l5 78h117v-480
q0 -132 -63.5 -189.5t-194.5 -57.5zM280 121q56 0 87.5 34.5t31.5 105.5v40q0 66 -30 100.5t-89 34.5q-58 0 -86.5 -34t-28.5 -118q0 -92 29 -127.5t86 -35.5zM216 769h128l112 -151h-101l-74 88l-78 -88h-99z" />
    <glyph glyph-name="Gbreve" unicode="&#x11e;" horiz-adv-x="650" 
d="M373 -13q-85 0 -146.5 20t-102 64.5t-60 114t-19.5 168.5q0 188 81.5 273.5t246.5 85.5q39 0 70.5 -5t54.5 -11q26 -7 47 -16v-129q-29 16 -73.5 29t-98.5 13q-50 0 -86.5 -13t-61 -41.5t-36.5 -74t-12 -110.5q0 -70 12 -117.5t36 -77t61 -42t87 -12.5q29 0 51 4t41 9
v153h-112v107h232v-342q-29 -16 -83 -33t-129 -17zM353 761q-68 0 -111 34t-60 102l80 22q20 -73 91 -73q70 0 92 73l79 -22q-17 -69 -60 -102.5t-111 -33.5z" />
    <glyph glyph-name="gbreve" unicode="&#x11f;" horiz-adv-x="590" 
d="M263 -193q-59 0 -106.5 10.5t-73.5 23.5v130q10 -9 27 -18.5t40 -17.5t52 -13t63 -5q71 0 102.5 31t31.5 98v59q-8 -17 -21.5 -33.5t-33 -30t-46 -22t-59.5 -8.5q-101 0 -150.5 62.5t-49.5 201.5q0 143 50.5 207t153.5 64q59 0 98 -24t58 -66l5 78h117v-480
q0 -132 -63.5 -189.5t-194.5 -57.5zM280 121q56 0 87.5 34.5t31.5 105.5v40q0 66 -30 100.5t-89 34.5q-58 0 -86.5 -34t-28.5 -118q0 -92 29 -127.5t86 -35.5zM280 615q-66 0 -109 34t-57 103l78 20q8 -38 31 -56t57 -18t58 18t32 56l76 -21q-14 -69 -56.5 -102.5
t-109.5 -33.5z" />
    <glyph glyph-name="Gdotaccent" unicode="&#x120;" horiz-adv-x="650" 
d="M373 -13q-85 0 -146.5 20t-102 64.5t-60 114t-19.5 168.5q0 188 81.5 273.5t246.5 85.5q39 0 70.5 -5t54.5 -11q26 -7 47 -16v-129q-29 16 -73.5 29t-98.5 13q-50 0 -86.5 -13t-61 -41.5t-36.5 -74t-12 -110.5q0 -70 12 -117.5t36 -77t61 -42t87 -12.5q29 0 51 4t41 9
v153h-112v107h232v-342q-29 -16 -83 -33t-129 -17zM353 770q-76 0 -76 70t76 70t76 -70t-76 -70z" />
    <glyph glyph-name="gdotaccent" unicode="&#x121;" horiz-adv-x="590" 
d="M263 -193q-59 0 -106.5 10.5t-73.5 23.5v130q10 -9 27 -18.5t40 -17.5t52 -13t63 -5q71 0 102.5 31t31.5 98v59q-8 -17 -21.5 -33.5t-33 -30t-46 -22t-59.5 -8.5q-101 0 -150.5 62.5t-49.5 201.5q0 143 50.5 207t153.5 64q59 0 98 -24t58 -66l5 78h117v-480
q0 -132 -63.5 -189.5t-194.5 -57.5zM280 121q56 0 87.5 34.5t31.5 105.5v40q0 66 -30 100.5t-89 34.5q-58 0 -86.5 -34t-28.5 -118q0 -92 29 -127.5t86 -35.5zM280 626q-74 0 -74 68t74 68t74 -68t-74 -68z" />
    <glyph glyph-name="uni0122" unicode="&#x122;" horiz-adv-x="650" 
d="M373 -13q-85 0 -146.5 20t-102 64.5t-60 114t-19.5 168.5q0 188 81.5 273.5t246.5 85.5q39 0 70.5 -5t54.5 -11q26 -7 47 -16v-129q-29 16 -73.5 29t-98.5 13q-50 0 -86.5 -13t-61 -41.5t-36.5 -74t-12 -110.5q0 -70 12 -117.5t36 -77t61 -42t87 -12.5q29 0 51 4t41 9
v153h-112v107h232v-342q-29 -16 -83 -33t-129 -17zM284 -178q29 1 50.5 7t26.5 29q-29 0 -47 3t-27.5 9t-13 14.5t-3.5 19.5q0 20 18.5 34.5t64.5 14.5q43 0 63 -18.5t20 -50.5q0 -22 -9.5 -42.5t-28.5 -37t-47 -26.5t-64 -11z" />
    <glyph glyph-name="uni0123" unicode="&#x123;" horiz-adv-x="590" 
d="M263 -193q-59 0 -106.5 10.5t-73.5 23.5v130q10 -9 27 -18.5t40 -17.5t52 -13t63 -5q71 0 102.5 31t31.5 98v59q-8 -17 -21.5 -33.5t-33 -30t-46 -22t-59.5 -8.5q-101 0 -150.5 62.5t-49.5 201.5q0 143 50.5 207t153.5 64q59 0 98 -24t58 -66l5 78h117v-480
q0 -132 -63.5 -189.5t-194.5 -57.5zM280 121q56 0 87.5 34.5t31.5 105.5v40q0 66 -30 100.5t-89 34.5q-58 0 -86.5 -34t-28.5 -118q0 -92 29 -127.5t86 -35.5zM345.004 748.979q-31.9961 -2 -50.9932 -9.49902q-18.998 -7.49902 -22.9971 -28.4971
q52.9932 0 70.4912 -11.498q17.498 -11.499 17.498 -33.4961q0 -19.998 -17.998 -34.4961t-60.9932 -14.498q-39.9941 0 -59.4922 18.998q-19.498 18.9971 -19.498 50.9932q0 20.998 8.49902 41.4951q8.49902 20.498 25.4971 36.4961t43.4951 26.4961
q26.4961 10.499 63.4922 11.499z" />
    <glyph glyph-name="Hcircumflex" unicode="&#x124;" horiz-adv-x="720" 
d="M89 700h128v-285h286v285h128v-700h-128v301h-286v-301h-128v700zM295 915h130l119 -150h-103l-81 85l-83 -85h-101z" />
    <glyph glyph-name="hcircumflex" unicode="&#x125;" horiz-adv-x="585" 
d="M69 757h122v-305q43 94 156 94q85 0 129.5 -45.5t44.5 -149.5v-351h-122v307q0 75 -24 102t-77 27q-51 0 -79 -30.5t-28 -98.5v-307h-122v757zM67 970h128l112 -151h-101l-74 88l-78 -88h-99z" />
    <glyph glyph-name="Hbar" unicode="&#x126;" horiz-adv-x="740" 
d="M13 596h86v104h128v-104h286v104h128v-104h86v-92h-86v-504h-128v301h-286v-301h-128v504h-86v92zM513 415v89h-286v-89h286z" />
    <glyph glyph-name="hbar" unicode="&#x127;" horiz-adv-x="605" 
d="M3 681h86v76h122v-76h200v-88h-200v-141q43 94 156 94q85 0 129.5 -45.5t44.5 -149.5v-351h-122v307q0 75 -24 102t-77 27q-51 0 -79 -30.5t-28 -98.5v-307h-122v593h-86v88z" />
    <glyph glyph-name="Imacron" unicode="&#x12a;" horiz-adv-x="330" 
d="M101 700h128v-700h-128v700zM9 874h314v-88h-314v88z" />
    <glyph glyph-name="imacron" unicode="&#x12b;" horiz-adv-x="290" 
d="M84 534h122v-534h-122v534zM8 726h282v-84h-282v84z" />
    <glyph glyph-name="Iogonek" unicode="&#x12e;" horiz-adv-x="330" 
d="M101 700h128v-696l6 -4q-52 -23 -75 -49.5t-23 -48.5q0 -34 40 -34q29 0 58 16v-68q-16 -8 -37 -13.5t-49 -5.5q-60 0 -86 22.5t-26 62.5q0 35 21.5 63.5t63.5 54.5h-21v700z" />
    <glyph glyph-name="iogonek" unicode="&#x12f;" horiz-adv-x="290" 
d="M84 534h122v-528l10 -6q-52 -23 -75 -49.5t-23 -48.5q0 -34 40 -34q29 0 58 16v-68q-16 -8 -37 -13.5t-49 -5.5q-60 0 -86 22.5t-26 62.5q0 35 21.5 63.5t63.5 54.5h-19v534zM145 626q-74 0 -74 68t74 68t74 -68t-74 -68z" />
    <glyph glyph-name="Idotaccent" unicode="&#x130;" horiz-adv-x="330" 
d="M101 700h128v-700h-128v700zM165 770q-76 0 -76 70t76 70t76 -70t-76 -70z" />
    <glyph glyph-name="dotlessi" unicode="&#x131;" horiz-adv-x="290" 
d="M84 534h122v-534h-122v534z" />
    <glyph glyph-name="Jcircumflex" unicode="&#x134;" horiz-adv-x="420" 
d="M140 -13q-26 0 -46 2.5t-34 5.5q-17 4 -30 9v129q10 -8 24 -14q11 -5 28 -9t37 -4q45 0 65 22.5t20 82.5v489h127v-489q0 -63 -10.5 -106t-34 -69.5t-59.5 -37.5t-87 -11zM202 915h130l119 -150h-103l-81 85l-83 -85h-101z" />
    <glyph glyph-name="jcircumflex" unicode="&#x135;" horiz-adv-x="290" 
d="M62 -186q-30 0 -53.5 5t-26.5 7v114q11 -7 24 -11.5t28 -4.5q26 0 38 14t12 52v544h122v-550q0 -92 -36 -131t-108 -39zM82 769h128l112 -151h-101l-74 88l-78 -88h-99z" />
    <glyph glyph-name="uni0136" unicode="&#x136;" horiz-adv-x="655" 
d="M279 299h-62v-299h-128v700h128v-286h62l187 286h149l-230 -341l250 -359h-154zM293 -178q29 1 50.5 7t26.5 29q-29 0 -47 3t-27.5 9t-13 14.5t-3.5 19.5q0 20 18.5 34.5t64.5 14.5q43 0 63 -18.5t20 -50.5q0 -22 -9.5 -42.5t-28.5 -37t-47 -26.5t-64 -11z" />
    <glyph glyph-name="uni0137" unicode="&#x137;" horiz-adv-x="555" 
d="M69 757h122v-427h49l136 204h137l-177 -254l195 -280h-142l-148 223h-50v-223h-122v757zM235 -179q32 2 51 9.5t23 28.5q-53 0 -70.5 11.5t-17.5 33.5q0 20 18 34.5t61 14.5q40 0 59.5 -19t19.5 -51q0 -21 -8.5 -41.5t-25.5 -36.5t-43.5 -26.5t-63.5 -11.5z" />
    <glyph glyph-name="Lacute" unicode="&#x139;" horiz-adv-x="530" 
d="M89 700h128v-586h288v-114h-416v700zM195 915h158l-152 -150h-100z" />
    <glyph glyph-name="lacute" unicode="&#x13a;" horiz-adv-x="315" 
d="M205 -6q-74 0 -107.5 34t-33.5 112v617h122v-593q0 -34 11 -46t37 -12q17 0 32.5 5.5t18.5 7.5v-110q-3 -2 -25 -8.5t-55 -6.5zM157 896h136l-125 -109h-86z" />
    <glyph glyph-name="uni013B" unicode="&#x13b;" horiz-adv-x="530" 
d="M89 700h128v-586h288v-114h-416v700zM228 -178q29 1 50.5 7t26.5 29q-29 0 -47 3t-27.5 9t-13 14.5t-3.5 19.5q0 20 18.5 34.5t64.5 14.5q43 0 63 -18.5t20 -50.5q0 -22 -9.5 -42.5t-28.5 -37t-47 -26.5t-64 -11z" />
    <glyph glyph-name="uni013C" unicode="&#x13c;" horiz-adv-x="315" 
d="M205 -6q-74 0 -107.5 34t-33.5 112v617h122v-593q0 -34 11 -46t37 -12q17 0 32.5 5.5t18.5 7.5v-110q-3 -2 -25 -8.5t-55 -6.5zM117 -179q32 2 51 9.5t23 28.5q-53 0 -70.5 11.5t-17.5 33.5q0 20 18 34.5t61 14.5q40 0 59.5 -19t19.5 -51q0 -21 -8.5 -41.5t-25.5 -36.5
t-43.5 -26.5t-63.5 -11.5z" />
    <glyph glyph-name="Lcaron" unicode="&#x13d;" horiz-adv-x="530" 
d="M357 700h120l-69 -194h-86zM89 700h128v-586h288v-114h-416v700z" />
    <glyph glyph-name="lcaron" unicode="&#x13e;" horiz-adv-x="375" 
d="M288 757h115l-67 -191h-81zM205 -6q-74 0 -107.5 34t-33.5 112v617h122v-593q0 -34 11 -46t37 -12q17 0 32.5 5.5t18.5 7.5v-110q-3 -2 -25 -8.5t-55 -6.5z" />
    <glyph glyph-name="Ldot" unicode="&#x13f;" horiz-adv-x="530" 
d="M89 700h128v-586h288v-114h-416v700zM417 300q-81 0 -81 80q0 81 81 81t81 -81q0 -80 -81 -80z" />
    <glyph glyph-name="ldot" unicode="&#x140;" horiz-adv-x="415" 
d="M205 -6q-74 0 -107.5 34t-33.5 112v617h122v-593q0 -34 11 -46t37 -12q17 0 32.5 5.5t18.5 7.5v-110q-3 -2 -25 -8.5t-55 -6.5zM334 300q-81 0 -81 80q0 81 81 81t81 -81q0 -80 -81 -80z" />
    <glyph glyph-name="Lslash" unicode="&#x141;" horiz-adv-x="540" 
d="M13 340l86 49v311h128v-237l144 83v-102l-144 -83v-247h288v-114h-416v287l-86 -49v102z" />
    <glyph glyph-name="lslash" unicode="&#x142;" horiz-adv-x="370" 
d="M13 359l100 57v341h122v-271l103 60v-97l-103 -60v-225q0 -34 11 -46t37 -12q16 0 32 5.5t19 7.5v-110q-3 -2 -25.5 -8.5t-54.5 -6.5q-74 0 -107.5 34t-33.5 112v179l-100 -58v98z" />
    <glyph glyph-name="Nacute" unicode="&#x143;" horiz-adv-x="740" 
d="M89 700h150l230 -397q12 -22 22 -42l18 -36q9 -18 16 -36h2l-2 36q-1 16 -1.5 36t-0.5 42v397h128v-700h-150l-230 397q-13 23 -23 43l-18 36q-9 18 -15 35h-2q1 -17 2 -35q1 -16 1.5 -36t0.5 -43v-397h-128v700zM405 915h158l-152 -150h-100z" />
    <glyph glyph-name="nacute" unicode="&#x144;" horiz-adv-x="585" 
d="M69 534h117l5 -82q43 94 156 94q85 0 129.5 -45.5t44.5 -149.5v-351h-122v310q0 36 -6 60.5t-18 39t-31 20.5t-46 6q-51 0 -79 -30t-28 -96v-310h-122v534zM323 769h156l-144 -151h-98z" />
    <glyph glyph-name="uni0145" unicode="&#x145;" horiz-adv-x="740" 
d="M89 700h150l230 -397q12 -22 22 -42l18 -36q9 -18 16 -36h2l-2 36q-1 16 -1.5 36t-0.5 42v397h128v-700h-150l-230 397q-13 23 -23 43l-18 36q-9 18 -15 35h-2q1 -17 2 -35q1 -16 1.5 -36t0.5 -43v-397h-128v700zM301 -178q29 1 50.5 7t26.5 29q-29 0 -47 3t-27.5 9
t-13 14.5t-3.5 19.5q0 20 18.5 34.5t64.5 14.5q43 0 63 -18.5t20 -50.5q0 -22 -9.5 -42.5t-28.5 -37t-47 -26.5t-64 -11z" />
    <glyph glyph-name="uni0146" unicode="&#x146;" horiz-adv-x="585" 
d="M69 534h117l5 -82q43 94 156 94q85 0 129.5 -45.5t44.5 -149.5v-351h-122v310q0 36 -6 60.5t-18 39t-31 20.5t-46 6q-51 0 -79 -30t-28 -96v-310h-122v534zM230 -179q32 2 51 9.5t23 28.5q-53 0 -70.5 11.5t-17.5 33.5q0 20 18 34.5t61 14.5q40 0 59.5 -19t19.5 -51
q0 -21 -8.5 -41.5t-25.5 -36.5t-43.5 -26.5t-63.5 -11.5z" />
    <glyph glyph-name="Ncaron" unicode="&#x147;" horiz-adv-x="740" 
d="M89 700h150l230 -397q12 -22 22 -42l18 -36q9 -18 16 -36h2l-2 36q-1 16 -1.5 36t-0.5 42v397h128v-700h-150l-230 397q-13 23 -23 43l-18 36q-9 18 -15 35h-2q1 -17 2 -35q1 -16 1.5 -36t0.5 -43v-397h-128v700zM186 915h103l81 -85l83 85h101l-119 -150h-130z" />
    <glyph glyph-name="ncaron" unicode="&#x148;" horiz-adv-x="585" 
d="M69 534h117l5 -82q43 94 156 94q85 0 129.5 -45.5t44.5 -149.5v-351h-122v310q0 36 -6 60.5t-18 39t-31 20.5t-46 6q-51 0 -79 -30t-28 -96v-310h-122v534zM119 769h101l75 -87l77 87h99l-112 -151h-128z" />
    <glyph glyph-name="Omacron" unicode="&#x14c;" horiz-adv-x="710" 
d="M355 -13q-153 0 -231.5 85.5t-78.5 277.5q0 190 79.5 276.5t230.5 86.5q78 0 136.5 -20t97 -63.5t57.5 -112.5t19 -167q0 -190 -79.5 -276.5t-230.5 -86.5zM355 102q44 0 77 12.5t55.5 41.5t34 76.5t11.5 117.5t-11.5 117.5t-34 76.5t-55.5 41.5t-77 12.5t-77 -12.5
t-55.5 -41.5t-34 -76.5t-11.5 -117.5q0 -69 11.5 -116.5t34 -77t56 -42t76.5 -12.5zM198 874h314v-88h-314v88z" />
    <glyph glyph-name="omacron" unicode="&#x14d;" horiz-adv-x="570" 
d="M285 -13q-122 0 -184 66.5t-62 213.5q0 143 64 211t182 68q125 0 185.5 -64.5t60.5 -214.5q0 -147 -62.5 -213.5t-183.5 -66.5zM285 97q30 0 52.5 8.5t37.5 28t22.5 52.5t7.5 81t-7.5 80.5t-22.5 52t-37.5 28t-52.5 8.5q-59 0 -89.5 -37.5t-30.5 -131.5q0 -48 7.5 -81
t22.5 -52.5t37.5 -28t52.5 -8.5zM147 726h282v-84h-282v84z" />
    <glyph glyph-name="Ohungarumlaut" unicode="&#x150;" horiz-adv-x="710" 
d="M355 -13q-153 0 -231.5 85.5t-78.5 277.5q0 190 79.5 276.5t230.5 86.5q78 0 136.5 -20t97 -63.5t57.5 -112.5t19 -167q0 -190 -79.5 -276.5t-230.5 -86.5zM355 102q44 0 77 12.5t55.5 41.5t34 76.5t11.5 117.5t-11.5 117.5t-34 76.5t-55.5 41.5t-77 12.5t-77 -12.5
t-55.5 -41.5t-34 -76.5t-11.5 -117.5q0 -69 11.5 -116.5t34 -77t56 -42t76.5 -12.5zM272 915h130l-97 -150h-90zM484 915h147l-152 -150h-102z" />
    <glyph glyph-name="ohungarumlaut" unicode="&#x151;" horiz-adv-x="570" 
d="M285 -13q-122 0 -184 66.5t-62 213.5q0 143 64 211t182 68q125 0 185.5 -64.5t60.5 -214.5q0 -147 -62.5 -213.5t-183.5 -66.5zM285 97q30 0 52.5 8.5t37.5 28t22.5 52.5t7.5 81t-7.5 80.5t-22.5 52t-37.5 28t-52.5 8.5q-59 0 -89.5 -37.5t-30.5 -131.5q0 -48 7.5 -81
t22.5 -52.5t37.5 -28t52.5 -8.5zM197 769h128l-86 -151h-89zM400 769h146l-142 -151h-100z" />
    <glyph glyph-name="OE" unicode="&#x152;" horiz-adv-x="935" 
d="M355 -13q-78 0 -136.5 20t-97 64t-57.5 114t-19 170q0 189 78.5 273.5t231.5 84.5q41 0 75 -4t57 -9h398v-114h-302v-176h262v-107h-262v-189h302v-114h-394q-23 -5 -57 -9t-79 -4zM358 106q56 0 98 6v474q-21 4 -46 6t-52 2q-45 0 -78.5 -12.5t-56.5 -41t-34.5 -74
t-11.5 -111.5q0 -69 11.5 -117t34.5 -77t57 -42t78 -13z" />
    <glyph glyph-name="oe" unicode="&#x153;" horiz-adv-x="920" 
d="M663 -13q-136 0 -193 85q-29 -44 -75.5 -64.5t-109.5 -20.5q-122 0 -184 66.5t-62 213.5q0 143 64 211t182 68q65 0 111.5 -20t75.5 -65q29 43 74.5 64t103.5 21q124 0 177.5 -64.5t53.5 -188.5v-58h-350q3 -76 37.5 -110t108.5 -34q51 0 98.5 16.5t73.5 40.5v-113
q-29 -19 -73 -33.5t-113 -14.5zM285 97q30 0 52.5 8.5t38 28t23 52.5t7.5 81t-7.5 80.5t-22.5 52t-38 28t-53 8.5q-59 0 -89.5 -37.5t-30.5 -131.5q0 -48 7.5 -81t22.5 -52.5t37.5 -28t52.5 -8.5zM650 450q-58 0 -87 -31.5t-32 -105.5h228q0 69 -23 103t-86 34z" />
    <glyph glyph-name="Racute" unicode="&#x154;" horiz-adv-x="640" 
d="M323 247h-21h-85v-247h-128v695q32 2 66 5q29 2 66 4t74 2q73 0 123.5 -13t81.5 -41t45 -70.5t14 -100.5q0 -83 -26.5 -135t-86.5 -76l155 -270h-142zM427 474q0 61 -28 87t-97 26q-17 0 -33 -0.5t-28 -1.5q-14 -1 -27 -1v-223h88q67 0 96 27.5t29 85.5zM342 915h158
l-152 -150h-100z" />
    <glyph glyph-name="racute" unicode="&#x155;" horiz-adv-x="410" 
d="M69 534h112l5 -85q19 51 53.5 74t79.5 23q20 0 34.5 -2.5t17.5 -3.5v-127q-12 9 -32 16t-46 7q-49 0 -75.5 -31.5t-26.5 -108.5v-296h-122v534zM248 769h156l-144 -151h-98z" />
    <glyph glyph-name="uni0156" unicode="&#x156;" horiz-adv-x="640" 
d="M323 247h-21h-85v-247h-128v695q32 2 66 5q29 2 66 4t74 2q73 0 123.5 -13t81.5 -41t45 -70.5t14 -100.5q0 -83 -26.5 -135t-86.5 -76l155 -270h-142zM427 474q0 61 -28 87t-97 26q-17 0 -33 -0.5t-28 -1.5q-14 -1 -27 -1v-223h88q67 0 96 27.5t29 85.5zM276 -178
q29 1 50.5 7t26.5 29q-29 0 -47 3t-27.5 9t-13 14.5t-3.5 19.5q0 20 18.5 34.5t64.5 14.5q43 0 63 -18.5t20 -50.5q0 -22 -9.5 -42.5t-28.5 -37t-47 -26.5t-64 -11z" />
    <glyph glyph-name="uni0157" unicode="&#x157;" horiz-adv-x="410" 
d="M69 534h112l5 -85q19 51 53.5 74t79.5 23q20 0 34.5 -2.5t17.5 -3.5v-127q-12 9 -32 16t-46 7q-49 0 -75.5 -31.5t-26.5 -108.5v-296h-122v534zM65 -179q32 2 51 9.5t23 28.5q-53 0 -70.5 11.5t-17.5 33.5q0 20 18 34.5t61 14.5q40 0 59.5 -19t19.5 -51q0 -21 -8.5 -41.5
t-25.5 -36.5t-43.5 -26.5t-63.5 -11.5z" />
    <glyph glyph-name="Rcaron" unicode="&#x158;" horiz-adv-x="640" 
d="M323 247h-21h-85v-247h-128v695q32 2 66 5q29 2 66 4t74 2q73 0 123.5 -13t81.5 -41t45 -70.5t14 -100.5q0 -83 -26.5 -135t-86.5 -76l155 -270h-142zM427 474q0 61 -28 87t-97 26q-17 0 -33 -0.5t-28 -1.5q-14 -1 -27 -1v-223h88q67 0 96 27.5t29 85.5zM123 915h103
l81 -85l83 85h101l-119 -150h-130z" />
    <glyph glyph-name="rcaron" unicode="&#x159;" horiz-adv-x="410" 
d="M69 534h112l5 -85q19 51 53.5 74t79.5 23q20 0 34.5 -2.5t17.5 -3.5v-127q-12 9 -32 16t-46 7q-49 0 -75.5 -31.5t-26.5 -108.5v-296h-122v534zM44 769h101l75 -87l77 87h99l-112 -151h-128z" />
    <glyph glyph-name="Sacute" unicode="&#x15a;" horiz-adv-x="580" 
d="M283 -13q-67 0 -122.5 15t-89.5 36v139q13 -12 33.5 -24.5t46.5 -23t58 -17t68 -6.5q64 0 90.5 22.5t26.5 61.5q0 38 -24.5 59.5t-60.5 37t-79 29.5t-79 37t-60.5 60.5t-24.5 99.5q0 96 57 148t184 52q58 0 107.5 -10t81.5 -25v-139q-33 26 -82.5 40.5t-100.5 14.5
q-34 0 -56 -5t-35 -14t-18.5 -23t-5.5 -32q0 -36 24.5 -56t60.5 -34.5t79 -28.5t79 -37.5t60.5 -63t24.5 -103.5q0 -101 -58.5 -155.5t-184.5 -54.5zM330 915h158l-152 -150h-100z" />
    <glyph glyph-name="sacute" unicode="&#x15b;" horiz-adv-x="475" 
d="M223 -13q-38 0 -81 8t-83 25v123q29 -25 71 -38.5t90 -13.5q45 0 62.5 15t17.5 44q0 27 -18 41t-45.5 23.5t-59.5 18.5t-59.5 26t-45.5 45.5t-18 77.5q0 82 45.5 123t153.5 41q39 0 79 -7t69 -18v-122q-32 23 -66.5 33.5t-77.5 10.5q-44 0 -60.5 -13.5t-16.5 -39.5
q0 -25 18 -37.5t45.5 -21.5t59.5 -18t59.5 -26.5t45.5 -47.5t18 -80q0 -86 -47 -129t-156 -43zM268 769h156l-144 -151h-98z" />
    <glyph glyph-name="Scircumflex" unicode="&#x15c;" horiz-adv-x="580" 
d="M283 -13q-67 0 -122.5 15t-89.5 36v139q13 -12 33.5 -24.5t46.5 -23t58 -17t68 -6.5q64 0 90.5 22.5t26.5 61.5q0 38 -24.5 59.5t-60.5 37t-79 29.5t-79 37t-60.5 60.5t-24.5 99.5q0 96 57 148t184 52q58 0 107.5 -10t81.5 -25v-139q-33 26 -82.5 40.5t-100.5 14.5
q-34 0 -56 -5t-35 -14t-18.5 -23t-5.5 -32q0 -36 24.5 -56t60.5 -34.5t79 -28.5t79 -37.5t60.5 -63t24.5 -103.5q0 -101 -58.5 -155.5t-184.5 -54.5zM230 915h130l119 -150h-103l-81 85l-83 -85h-101z" />
    <glyph glyph-name="scircumflex" unicode="&#x15d;" horiz-adv-x="475" 
d="M223 -13q-38 0 -81 8t-83 25v123q29 -25 71 -38.5t90 -13.5q45 0 62.5 15t17.5 44q0 27 -18 41t-45.5 23.5t-59.5 18.5t-59.5 26t-45.5 45.5t-18 77.5q0 82 45.5 123t153.5 41q39 0 79 -7t69 -18v-122q-32 23 -66.5 33.5t-77.5 10.5q-44 0 -60.5 -13.5t-16.5 -39.5
q0 -25 18 -37.5t45.5 -21.5t59.5 -18t59.5 -26.5t45.5 -47.5t18 -80q0 -86 -47 -129t-156 -43zM176 769h128l112 -151h-101l-74 88l-78 -88h-99z" />
    <glyph glyph-name="Scedilla" unicode="&#x15e;" horiz-adv-x="580" 
d="M279 -226q-27 0 -46.5 3.5t-37.5 11.5l10 58q28 -12 60 -12q27 0 38 10t11 28q0 19 -11.5 28.5t-40.5 9.5q-8 0 -17 -0.5t-15 -1.5l14 80q-55 4 -99.5 17.5t-73.5 31.5v139q13 -12 33.5 -24.5t46.5 -23t58 -17t68 -6.5q64 0 90.5 22.5t26.5 61.5q0 38 -24.5 59.5
t-60.5 37t-79 29.5t-79 37t-60.5 60.5t-24.5 99.5q0 96 57 148t184 52q58 0 107.5 -10t81.5 -25v-139q-33 26 -82.5 40.5t-100.5 14.5q-34 0 -56 -5t-35 -14t-18.5 -23t-5.5 -32q0 -36 24.5 -56t60.5 -34.5t79 -28.5t79 -37.5t60.5 -63t24.5 -103.5q0 -96 -51 -149t-162 -60
l-6 -31q45 -1 72.5 -20.5t27.5 -64.5t-32.5 -71.5t-95.5 -26.5z" />
    <glyph glyph-name="scedilla" unicode="&#x15f;" horiz-adv-x="475" 
d="M224 -226q-27 0 -46.5 3.5t-37.5 11.5l10 58q28 -12 60 -12q27 0 38 10t11 28q0 19 -11.5 28.5t-40.5 9.5q-8 0 -17 -0.5t-15 -1.5l14 80q-32 2 -65.5 9.5t-64.5 21.5v123q29 -25 71 -38.5t90 -13.5q45 0 62.5 15t17.5 44q0 27 -18 41t-45.5 23.5t-59.5 18.5t-59.5 26
t-45.5 45.5t-18 77.5q0 82 45.5 123t153.5 41q39 0 79 -7t69 -18v-122q-32 23 -66.5 33.5t-77.5 10.5q-44 0 -60.5 -13.5t-16.5 -39.5q0 -25 18 -37.5t45.5 -21.5t59.5 -18t59.5 -26.5t45.5 -47.5t18 -80q0 -79 -39 -121.5t-129 -49.5l-6 -31q45 -1 72.5 -20.5t27.5 -64.5
t-32.5 -71.5t-95.5 -26.5z" />
    <glyph glyph-name="Scaron" unicode="&#x160;" horiz-adv-x="580" 
d="M283 -13q-67 0 -122.5 15t-89.5 36v139q13 -12 33.5 -24.5t46.5 -23t58 -17t68 -6.5q64 0 90.5 22.5t26.5 61.5q0 38 -24.5 59.5t-60.5 37t-79 29.5t-79 37t-60.5 60.5t-24.5 99.5q0 96 57 148t184 52q58 0 107.5 -10t81.5 -25v-139q-33 26 -82.5 40.5t-100.5 14.5
q-34 0 -56 -5t-35 -14t-18.5 -23t-5.5 -32q0 -36 24.5 -56t60.5 -34.5t79 -28.5t79 -37.5t60.5 -63t24.5 -103.5q0 -101 -58.5 -155.5t-184.5 -54.5zM111 915h103l81 -85l83 85h101l-119 -150h-130z" />
    <glyph glyph-name="scaron" unicode="&#x161;" horiz-adv-x="475" 
d="M223 -13q-38 0 -81 8t-83 25v123q29 -25 71 -38.5t90 -13.5q45 0 62.5 15t17.5 44q0 27 -18 41t-45.5 23.5t-59.5 18.5t-59.5 26t-45.5 45.5t-18 77.5q0 82 45.5 123t153.5 41q39 0 79 -7t69 -18v-122q-32 23 -66.5 33.5t-77.5 10.5q-44 0 -60.5 -13.5t-16.5 -39.5
q0 -25 18 -37.5t45.5 -21.5t59.5 -18t59.5 -26.5t45.5 -47.5t18 -80q0 -86 -47 -129t-156 -43zM64 769h101l75 -87l77 87h99l-112 -151h-128z" />
    <glyph glyph-name="uni0162" unicode="&#x162;" horiz-adv-x="580" 
d="M226 586h-196v114h520v-114h-196v-586h-26l-8 -43q47 -1 75 -20.5t28 -64.5t-33 -71.5t-101 -26.5q-52 0 -88 15l11 60q30 -12 62 -12q31 0 42.5 9.5t11.5 26.5t-11.5 26.5t-43.5 9.5q-8 0 -17.5 -0.5t-16.5 -1.5l17 93h-30v586z" />
    <glyph glyph-name="uni0163" unicode="&#x163;" horiz-adv-x="435" 
d="M248 -226q-27 0 -46.5 3.5t-37.5 11.5l10 58q28 -12 60 -12q27 0 38 10t11 28q0 19 -11.5 28.5t-40.5 9.5q-8 0 -17 -0.5t-15 -1.5l16 91q-53 11 -76 51.5t-23 118.5v257h-86v107h86v98l122 42v-140h152v-107h-152v-243q0 -43 14 -61.5t49 -18.5q27 0 49.5 8t39.5 21
v-114q-13 -9 -41.5 -16t-65.5 -9l-7 -37q45 -1 72.5 -20.5t27.5 -64.5t-32.5 -71.5t-95.5 -26.5z" />
    <glyph glyph-name="Tcaron" unicode="&#x164;" horiz-adv-x="580" 
d="M226 586h-196v114h520v-114h-196v-586h-128v586zM106 915h103l81 -85l83 85h101l-119 -150h-130z" />
    <glyph glyph-name="tcaron" unicode="&#x165;" horiz-adv-x="435" 
d="M335 794h115l-66 -191h-82zM273 -6q-85 0 -121 40.5t-36 135.5v257h-86v107h86v98l122 42v-140h152v-107h-152v-243q0 -43 14 -61.5t49 -18.5q27 0 49.5 8t39.5 21v-114q-14 -9 -45 -17t-72 -8z" />
    <glyph glyph-name="Umacron" unicode="&#x16a;" horiz-adv-x="670" 
d="M335 -13q-68 0 -117 16t-80.5 50.5t-47 89t-15.5 132.5v425h127v-414q0 -53 7.5 -88t23.5 -55.5t41 -28.5t61 -8t61.5 8t41.5 28t23 55t7 89v414h127v-425q0 -77 -15.5 -132t-47.5 -89.5t-81 -50.5t-116 -16zM178 874h314v-88h-314v88z" />
    <glyph glyph-name="umacron" unicode="&#x16b;" horiz-adv-x="580" 
d="M237 -13q-83 0 -128 46t-45 150v351h122v-310q0 -73 23 -100t74 -27t78.5 30.5t27.5 96.5v310h122v-534h-117l-5 81q-44 -94 -152 -94zM149 726h282v-84h-282v84z" />
    <glyph glyph-name="Ubreve" unicode="&#x16c;" horiz-adv-x="670" 
d="M335 -13q-68 0 -117 16t-80.5 50.5t-47 89t-15.5 132.5v425h127v-414q0 -53 7.5 -88t23.5 -55.5t41 -28.5t61 -8t61.5 8t41.5 28t23 55t7 89v414h127v-425q0 -77 -15.5 -132t-47.5 -89.5t-81 -50.5t-116 -16zM335 761q-68 0 -111 34t-60 102l80 22q20 -73 91 -73
q70 0 92 73l79 -22q-17 -69 -60 -102.5t-111 -33.5z" />
    <glyph glyph-name="ubreve" unicode="&#x16d;" horiz-adv-x="580" 
d="M237 -13q-83 0 -128 46t-45 150v351h122v-310q0 -73 23 -100t74 -27t78.5 30.5t27.5 96.5v310h122v-534h-117l-5 81q-44 -94 -152 -94zM287 615q-66 0 -109 34t-57 103l78 20q8 -38 31 -56t57 -18t58 18t32 56l76 -21q-14 -69 -56.5 -102.5t-109.5 -33.5z" />
    <glyph glyph-name="Uring" unicode="&#x16e;" horiz-adv-x="670" 
d="M335 -13q-68 0 -117 16t-80.5 50.5t-47 89t-15.5 132.5v425h127v-414q0 -53 7.5 -88t23.5 -55.5t41 -28.5t61 -8t61.5 8t41.5 28t23 55t7 89v414h127v-425q0 -77 -15.5 -132t-47.5 -89.5t-81 -50.5t-116 -16zM225 840q0 47 30.5 77t79.5 30t79.5 -30t30.5 -77t-30.5 -77
t-79.5 -30t-79.5 30t-30.5 77zM288 840q0 -22 12.5 -34.5t34.5 -12.5t34.5 12.5t12.5 34.5t-12.5 34.5t-34.5 12.5t-34.5 -12.5t-12.5 -34.5z" />
    <glyph glyph-name="uring" unicode="&#x16f;" horiz-adv-x="580" 
d="M237 -13q-83 0 -128 46t-45 150v351h122v-310q0 -73 23 -100t74 -27t78.5 30.5t27.5 96.5v310h122v-534h-117l-5 81q-44 -94 -152 -94zM182 694q0 47 29.5 76t78.5 29t78.5 -29t29.5 -76q0 -48 -29.5 -76.5t-78.5 -28.5t-78.5 28.5t-29.5 76.5zM244 694q0 -22 12.5 -34
t33.5 -12t33.5 12.5t12.5 33.5t-12.5 33.5t-33.5 12.5t-33.5 -12.5t-12.5 -33.5z" />
    <glyph glyph-name="Uhungarumlaut" unicode="&#x170;" horiz-adv-x="670" 
d="M335 -13q-68 0 -117 16t-80.5 50.5t-47 89t-15.5 132.5v425h127v-414q0 -53 7.5 -88t23.5 -55.5t41 -28.5t61 -8t61.5 8t41.5 28t23 55t7 89v414h127v-425q0 -77 -15.5 -132t-47.5 -89.5t-81 -50.5t-116 -16zM252 915h130l-97 -150h-90zM464 915h147l-152 -150h-102z" />
    <glyph glyph-name="uhungarumlaut" unicode="&#x171;" horiz-adv-x="580" 
d="M237 -13q-83 0 -128 46t-45 150v351h122v-310q0 -73 23 -100t74 -27t78.5 30.5t27.5 96.5v310h122v-534h-117l-5 81q-44 -94 -152 -94zM199 769h128l-86 -151h-89zM402 769h146l-142 -151h-100z" />
    <glyph glyph-name="Uogonek" unicode="&#x172;" horiz-adv-x="670" 
d="M335 -13q-68 0 -117 16t-80.5 50.5t-47 89t-15.5 132.5v425h127v-414q0 -53 7.5 -88t23.5 -55.5t41 -28.5t61 -8t61.5 8t41.5 28t23 55t7 89v414h127v-425q0 -102 -26.5 -164.5t-83.5 -92.5q-51 -34 -73 -61.5t-22 -54.5q0 -15 9 -23.5t32 -8.5q32 0 62 16v-70
q-16 -8 -38.5 -13.5t-51.5 -5.5q-63 0 -89 22.5t-26 62.5q0 58 65 105h-18v0z" />
    <glyph glyph-name="uogonek" unicode="&#x173;" horiz-adv-x="580" 
d="M425 -203q-60 0 -86 22.5t-26 62.5q0 35 21.5 63.5t63.5 54.5h-4l-5 81q-44 -94 -152 -94q-83 0 -128 46t-45 150v351h122v-310q0 -73 23 -100t74 -27t78.5 30.5t27.5 96.5v310h122v-534q-52 -23 -75 -49.5t-23 -48.5q0 -34 40 -34q29 0 58 16v-68q-16 -8 -37 -13.5
t-49 -5.5z" />
    <glyph glyph-name="Ydieresis" unicode="&#x178;" horiz-adv-x="610" 
d="M246 259l-231 441h146l150 -298l144 298h140l-221 -441v-259h-128v259zM197 773q-73 0 -73 67t73 67t73 -67t-73 -67zM414 773q-73 0 -73 67t73 67t73 -67t-73 -67z" />
    <glyph glyph-name="Zacute" unicode="&#x179;" horiz-adv-x="590" 
d="M45 77l325 509h-315v114h480v-77l-325 -509h335v-114h-500v77zM330 915h158l-152 -150h-100z" />
    <glyph glyph-name="zacute" unicode="&#x17a;" horiz-adv-x="490" 
d="M40 74l249 353h-239v107h397v-75l-249 -352h252v-107h-410v74zM277 769h156l-144 -151h-98z" />
    <glyph glyph-name="Zdotaccent" unicode="&#x17b;" horiz-adv-x="590" 
d="M45 77l325 509h-315v114h480v-77l-325 -509h335v-114h-500v77zM295 770q-76 0 -76 70t76 70t76 -70t-76 -70z" />
    <glyph glyph-name="zdotaccent" unicode="&#x17c;" horiz-adv-x="490" 
d="M40 74l249 353h-239v107h397v-75l-249 -352h252v-107h-410v74zM248 626q-74 0 -74 68t74 68t74 -68t-74 -68z" />
    <glyph glyph-name="Zcaron" unicode="&#x17d;" horiz-adv-x="590" 
d="M45 77l325 509h-315v114h480v-77l-325 -509h335v-114h-500v77zM111 915h103l81 -85l83 85h101l-119 -150h-130z" />
    <glyph glyph-name="zcaron" unicode="&#x17e;" horiz-adv-x="490" 
d="M40 74l249 353h-239v107h397v-75l-249 -352h252v-107h-410v74zM72 769h101l75 -87l77 87h99l-112 -151h-128z" />
    <glyph glyph-name="uni018F" unicode="&#x18f;" horiz-adv-x="690" 
d="M343 -13q-141 0 -219.5 85.5t-78.5 269.5v47h462q-2 39 -10 76.5t-30 67t-61 47.5t-103 18q-53 0 -103 -8.5t-89 -25.5v120q50 14 102.5 21.5t108.5 7.5q101 0 164 -29.5t98.5 -79t48 -113.5t12.5 -134q0 -75 -15.5 -142t-51 -117.5t-93 -80.5t-142.5 -30zM343 102
q34 0 63 10t51 32.5t35 58.5t15 89h-330q0 -95 38 -142.5t128 -47.5z" />
    <glyph glyph-name="florin" unicode="&#x192;" horiz-adv-x="600" 
d="M146 534h109l9 46q18 88 71 135.5t144 47.5q23 0 41.5 -2t38.5 -6l-22 -108q-6 2 -17.5 4.5t-27.5 2.5q-48 0 -70 -22t-33 -76l-5 -22h131l-22 -109h-130l-80 -400q-10 -51 -26 -90.5t-41.5 -66.5t-61.5 -40.5t-86 -13.5q-19 0 -36 2t-28 4l22 106q16 -3 35 -3
q16 0 30 3.5t25.5 14t21 30t15.5 51.5l80 403h-109z" />
    <glyph glyph-name="uni01DD" unicode="&#x1dd;" horiz-adv-x="550" 
d="M270 -13q-62 0 -106 16.5t-72 48.5t-40.5 79.5t-12.5 109.5v58h350q-3 75 -37.5 109.5t-108.5 34.5q-51 0 -98.5 -16.5t-73.5 -41.5v114q19 16 68 31.5t118 15.5q136 0 195 -69.5t59 -216.5q0 -138 -63.5 -205.5t-177.5 -67.5zM270 84q57 0 86 31t33 106h-228
q0 -70 23 -103.5t86 -33.5z" />
    <glyph glyph-name="Gcaron" unicode="&#x1e6;" horiz-adv-x="650" 
d="M373 -13q-85 0 -146.5 20t-102 64.5t-60 114t-19.5 168.5q0 188 81.5 273.5t246.5 85.5q39 0 70.5 -5t54.5 -11q26 -7 47 -16v-129q-29 16 -73.5 29t-98.5 13q-50 0 -86.5 -13t-61 -41.5t-36.5 -74t-12 -110.5q0 -70 12 -117.5t36 -77t61 -42t87 -12.5q29 0 51 4t41 9
v153h-112v107h232v-342q-29 -16 -83 -33t-129 -17zM169 915h103l81 -85l83 85h101l-119 -150h-130z" />
    <glyph glyph-name="gcaron" unicode="&#x1e7;" horiz-adv-x="590" 
d="M263 -193q-59 0 -106.5 10.5t-73.5 23.5v130q10 -9 27 -18.5t40 -17.5t52 -13t63 -5q71 0 102.5 31t31.5 98v59q-8 -17 -21.5 -33.5t-33 -30t-46 -22t-59.5 -8.5q-101 0 -150.5 62.5t-49.5 201.5q0 143 50.5 207t153.5 64q59 0 98 -24t58 -66l5 78h117v-480
q0 -132 -63.5 -189.5t-194.5 -57.5zM280 121q56 0 87.5 34.5t31.5 105.5v40q0 66 -30 100.5t-89 34.5q-58 0 -86.5 -34t-28.5 -118q0 -92 29 -127.5t86 -35.5zM84 769h101l75 -87l77 87h99l-112 -151h-128z" />
    <glyph glyph-name="uni0218" unicode="&#x218;" horiz-adv-x="580" 
d="M283 -13q-67 0 -122.5 15t-89.5 36v139q13 -12 33.5 -24.5t46.5 -23t58 -17t68 -6.5q64 0 90.5 22.5t26.5 61.5q0 38 -24.5 59.5t-60.5 37t-79 29.5t-79 37t-60.5 60.5t-24.5 99.5q0 96 57 148t184 52q58 0 107.5 -10t81.5 -25v-139q-33 26 -82.5 40.5t-100.5 14.5
q-34 0 -56 -5t-35 -14t-18.5 -23t-5.5 -32q0 -36 24.5 -56t60.5 -34.5t79 -28.5t79 -37.5t60.5 -63t24.5 -103.5q0 -101 -58.5 -155.5t-184.5 -54.5zM226 -178q29 1 50.5 7t26.5 29q-29 0 -47 3t-27.5 9t-13 14.5t-3.5 19.5q0 20 18.5 34.5t64.5 14.5q43 0 63 -18.5
t20 -50.5q0 -22 -9.5 -42.5t-28.5 -37t-47 -26.5t-64 -11z" />
    <glyph glyph-name="uni0219" unicode="&#x219;" horiz-adv-x="475" 
d="M223 -13q-38 0 -81 8t-83 25v123q29 -25 71 -38.5t90 -13.5q45 0 62.5 15t17.5 44q0 27 -18 41t-45.5 23.5t-59.5 18.5t-59.5 26t-45.5 45.5t-18 77.5q0 82 45.5 123t153.5 41q39 0 79 -7t69 -18v-122q-32 23 -66.5 33.5t-77.5 10.5q-44 0 -60.5 -13.5t-16.5 -39.5
q0 -25 18 -37.5t45.5 -21.5t59.5 -18t59.5 -26.5t45.5 -47.5t18 -80q0 -86 -47 -129t-156 -43zM175 -179q32 2 51 9.5t23 28.5q-53 0 -70.5 11.5t-17.5 33.5q0 20 18 34.5t61 14.5q40 0 59.5 -19t19.5 -51q0 -21 -8.5 -41.5t-25.5 -36.5t-43.5 -26.5t-63.5 -11.5z" />
    <glyph glyph-name="uni021A" unicode="&#x21a;" horiz-adv-x="580" 
d="M226 586h-196v114h520v-114h-196v-586h-128v586zM221 -178q29 1 50.5 7t26.5 29q-29 0 -47 3t-27.5 9t-13 14.5t-3.5 19.5q0 20 18.5 34.5t64.5 14.5q43 0 63 -18.5t20 -50.5q0 -22 -9.5 -42.5t-28.5 -37t-47 -26.5t-64 -11z" />
    <glyph glyph-name="uni021B" unicode="&#x21b;" horiz-adv-x="435" 
d="M273 -6q-85 0 -121 40.5t-36 135.5v257h-86v107h86v98l122 42v-140h152v-107h-152v-243q0 -43 14 -61.5t49 -18.5q27 0 49.5 8t39.5 21v-114q-14 -9 -45 -17t-72 -8zM187 -179q32 2 51 9.5t23 28.5q-53 0 -70.5 11.5t-17.5 33.5q0 20 18 34.5t61 14.5q40 0 59.5 -19
t19.5 -51q0 -21 -8.5 -41.5t-25.5 -36.5t-43.5 -26.5t-63.5 -11.5z" />
    <glyph glyph-name="uni0237" unicode="&#x237;" horiz-adv-x="290" 
d="M62 -186q-30 0 -53.5 5t-26.5 7v114q11 -7 24 -11.5t28 -4.5q26 0 38 14t12 52v544h122v-550q0 -92 -36 -131t-108 -39z" />
    <glyph glyph-name="uni0259" unicode="&#x259;" horiz-adv-x="550" 
d="M270 -13q-62 0 -106 16.5t-72 48.5t-40.5 79.5t-12.5 109.5v58h350q-3 75 -37.5 109.5t-108.5 34.5q-51 0 -98.5 -16.5t-73.5 -41.5v114q19 16 68 31.5t118 15.5q136 0 195 -69.5t59 -216.5q0 -138 -63.5 -205.5t-177.5 -67.5zM270 84q57 0 86 31t33 106h-228
q0 -70 23 -103.5t86 -33.5z" />
    <glyph glyph-name="uni02BC" unicode="&#x2bc;" horiz-adv-x="240" 
d="M97 700h120l-87 -214h-87z" />
    <glyph glyph-name="circumflex" unicode="&#x2c6;" horiz-adv-x="400" 
d="M136 769h128l112 -151h-101l-74 88l-78 -88h-99z" />
    <glyph glyph-name="caron" unicode="&#x2c7;" horiz-adv-x="400" 
d="M24 769h101l75 -87l77 87h99l-112 -151h-128z" />
    <glyph glyph-name="breve" unicode="&#x2d8;" horiz-adv-x="370" 
d="M185 615q-66 0 -109 34t-57 103l78 20q8 -38 31 -56t57 -18t58 18t32 56l76 -21q-14 -69 -56.5 -102.5t-109.5 -33.5z" />
    <glyph glyph-name="dotaccent" unicode="&#x2d9;" horiz-adv-x="210" 
d="M105 626q-74 0 -74 68t74 68t74 -68t-74 -68z" />
    <glyph glyph-name="ring" unicode="&#x2da;" horiz-adv-x="260" 
d="M22 694q0 47 29.5 76t78.5 29t78.5 -29t29.5 -76q0 -48 -29.5 -76.5t-78.5 -28.5t-78.5 28.5t-29.5 76.5zM84 694q0 -22 12.5 -34t33.5 -12t33.5 12.5t12.5 33.5t-12.5 33.5t-33.5 12.5t-33.5 -12.5t-12.5 -33.5z" />
    <glyph glyph-name="ogonek" unicode="&#x2db;" horiz-adv-x="240" 
d="M133 -203q-60 0 -86 22.5t-26 62.5q0 46 37.5 82t109.5 68l51 -32q-52 -23 -75 -49.5t-23 -48.5q0 -34 40 -34q29 0 58 16v-68q-16 -8 -37 -13.5t-49 -5.5z" />
    <glyph glyph-name="tilde" unicode="&#x2dc;" horiz-adv-x="400" 
d="M26 632q2 56 30 86t70 30q20 0 39 -6.5t42 -17.5q24 -11 35.5 -16.5t25.5 -5.5q31 0 38 45l68 -12q-4 -54 -31 -84.5t-68 -30.5q-11 0 -20 1t-18 3.5t-19.5 6.5t-24.5 11q-21 10 -33.5 17t-26.5 7q-13 0 -23.5 -11t-15.5 -35z" />
    <glyph glyph-name="hungarumlaut" unicode="&#x2dd;" horiz-adv-x="460" 
d="M79 769h128l-86 -151h-89zM282 769h146l-142 -151h-100z" />
    <glyph glyph-name="acutecomb" unicode="&#x301;" horiz-adv-x="0" 
d="M-250 769h156l-144 -151h-98z" />
    <glyph glyph-name="uni0394" unicode="&#x394;" horiz-adv-x="640" 
d="M249 700h143l233 -700h-610zM458 115l-139 441h-2l-140 -441h281z" />
    <glyph glyph-name="uni0394" unicode="&#x2206;" horiz-adv-x="640" 
d="M249 700h143l233 -700h-610zM458 115l-139 441h-2l-140 -441h281z" />
    <glyph glyph-name="uni03A9" unicode="&#x3a9;" horiz-adv-x="740" 
d="M57 110h160v48q-33 13 -64 35t-55 53.5t-38.5 73t-14.5 95.5q0 66 23 121t66 94t102.5 61t133.5 22q73 0 133 -22t103 -61t66 -94t23 -121q0 -54 -15 -95.5t-39 -73t-54.5 -53t-61.5 -35.5v-48h158v-110h-270v225q40 7 68.5 25t46.5 42.5t26.5 53t8.5 56.5
q0 43 -14.5 79.5t-40 62t-61 40t-77.5 14.5t-77.5 -14.5t-61 -40t-40 -62t-14.5 -79.5q0 -28 8.5 -56.5t26.5 -53t47 -42.5t70 -25v-225h-272v110z" />
    <glyph glyph-name="uni03A9" unicode="&#x2126;" horiz-adv-x="740" 
d="M57 110h160v48q-33 13 -64 35t-55 53.5t-38.5 73t-14.5 95.5q0 66 23 121t66 94t102.5 61t133.5 22q73 0 133 -22t103 -61t66 -94t23 -121q0 -54 -15 -95.5t-39 -73t-54.5 -53t-61.5 -35.5v-48h158v-110h-270v225q40 7 68.5 25t46.5 42.5t26.5 53t8.5 56.5
q0 43 -14.5 79.5t-40 62t-61 40t-77.5 14.5t-77.5 -14.5t-61 -40t-40 -62t-14.5 -79.5q0 -28 8.5 -56.5t26.5 -53t47 -42.5t70 -25v-225h-272v110z" />
    <glyph glyph-name="pi" unicode="&#x3c0;" horiz-adv-x="710" 
d="M584 -6q-69 0 -100.5 33.5t-31.5 108.5v288h-184v-424h-122v424q-23 0 -46 -9t-40 -23l-41 98q18 12 36.5 20t40 13.5t48 8t60.5 2.5h457v-110h-87v-263q0 -32 10 -43.5t32 -11.5q16 0 29.5 3t15.5 4v-111q-4 -1 -24.5 -4.5t-52.5 -3.5z" />
    <glyph glyph-name="uni0401" unicode="&#x401;" horiz-adv-x="575" 
d="M89 700h436v-114h-308v-176h268v-107h-268v-189h308v-114h-436v700zM199 773q-73 0 -73 67t73 67t73 -67t-73 -67zM416 773q-73 0 -73 67t73 67t73 -67t-73 -67z" />
    <glyph glyph-name="uni0402" unicode="&#x402;" horiz-adv-x="770" 
d="M226 586h-196v114h520v-114h-196v-171q29 11 65 19t80 8q118 0 172 -52t54 -158v-34q0 -211 -205 -211q-21 0 -44.5 3t-39.5 7v117q10 -5 25 -8.5t34 -3.5q48 0 73.5 25.5t25.5 70.5v34q0 45 -29.5 70t-98.5 25q-32 0 -60.5 -6.5t-51.5 -16.5v-304h-128v586z" />
    <glyph glyph-name="uni0403" unicode="&#x403;" horiz-adv-x="535" 
d="M89 700h416v-114h-288v-586h-128v700zM333 915h158l-152 -150h-100z" />
    <glyph glyph-name="uni0404" unicode="&#x404;" horiz-adv-x="590" 
d="M365 -13q-81 0 -141 20.5t-100 64.5t-59.5 114t-19.5 169q0 95 19.5 162.5t59 111t98.5 64t138 20.5q38 0 71.5 -5.5t58.5 -12.5q29 -8 52 -18v-129q-30 20 -71.5 33t-107.5 13q-83 0 -129 -41.5t-55 -142.5h271v-108h-271q9 -107 56.5 -151.5t132.5 -44.5q64 0 106 17
t71 35v-130q-23 -12 -51 -21q-24 -8 -57 -14t-72 -6z" />
    <glyph glyph-name="uni0405" unicode="&#x405;" horiz-adv-x="580" 
d="M283 -13q-67 0 -122.5 15t-89.5 36v139q13 -12 33.5 -24.5t46.5 -23t58 -17t68 -6.5q64 0 90.5 22.5t26.5 61.5q0 38 -24.5 59.5t-60.5 37t-79 29.5t-79 37t-60.5 60.5t-24.5 99.5q0 96 57 148t184 52q58 0 107.5 -10t81.5 -25v-139q-33 26 -82.5 40.5t-100.5 14.5
q-34 0 -56 -5t-35 -14t-18.5 -23t-5.5 -32q0 -36 24.5 -56t60.5 -34.5t79 -28.5t79 -37.5t60.5 -63t24.5 -103.5q0 -101 -58.5 -155.5t-184.5 -54.5z" />
    <glyph glyph-name="uni0406" unicode="&#x406;" horiz-adv-x="330" 
d="M101 700h128v-700h-128v700z" />
    <glyph glyph-name="uni0407" unicode="&#x407;" horiz-adv-x="330" 
d="M101 700h128v-700h-128v700zM58 773q-73 0 -73 67t73 67t73 -67t-73 -67zM275 773q-73 0 -73 67t73 67t73 -67t-73 -67z" />
    <glyph glyph-name="uni0408" unicode="&#x408;" horiz-adv-x="420" 
d="M140 -13q-26 0 -46 2.5t-34 5.5q-17 4 -30 9v129q10 -8 24 -14q11 -5 28 -9t37 -4q45 0 65 22.5t20 82.5v489h127v-489q0 -63 -10.5 -106t-34 -69.5t-59.5 -37.5t-87 -11z" />
    <glyph glyph-name="uni0409" unicode="&#x409;" horiz-adv-x="985" 
d="M663 -6q-30 0 -64 2t-63 4q-34 3 -67 6v580h-195l-4 -67q-9 -170 -23 -274.5t-36.5 -161.5t-56 -76.5t-82.5 -19.5q-24 0 -42 7v121q10 -3 23 -3q23 0 40 17t28.5 64.5t19 133t12.5 223.5l6 150h437v-230q14 1 31 2q14 1 31.5 2t34.5 1q130 0 188.5 -57t58.5 -175
q0 -66 -14.5 -113t-47.5 -77.5t-86 -44.5t-129 -14zM808 236q0 33 -6.5 56t-22.5 37t-42.5 20.5t-66.5 6.5q-15 0 -28.5 -0.5t-23.5 -1.5q-12 -1 -22 -2v-234q10 -2 22 -3q10 -1 23.5 -1.5t28.5 -0.5q77 0 107.5 28.5t30.5 94.5z" />
    <glyph glyph-name="uni040A" unicode="&#x40a;" horiz-adv-x="1010" 
d="M688 -6q-30 0 -64 2t-63 4q-34 3 -67 6v295h-277v-301h-128v700h128v-285h277v285h127v-230q14 1 31 2q14 1 31.5 2t34.5 1q130 0 188.5 -57t58.5 -175q0 -66 -14.5 -113t-47.5 -77.5t-86 -44.5t-129 -14zM833 236q0 33 -6.5 56t-22.5 37t-42.5 20.5t-66.5 6.5
q-15 0 -28.5 -0.5t-23.5 -1.5q-12 -1 -22 -2v-234q10 -2 22 -3q10 -1 23.5 -1.5t28.5 -0.5q77 0 107.5 28.5t30.5 94.5z" />
    <glyph glyph-name="uni040B" unicode="&#x40b;" horiz-adv-x="795" 
d="M226 586h-196v114h520v-114h-196v-168q29 12 67 22t86 10q119 0 171 -52t52 -171v-227h-127v221q0 60 -28.5 87t-94.5 27q-37 0 -69 -8.5t-57 -19.5v-307h-128v586z" />
    <glyph glyph-name="uni040C" unicode="&#x40c;" horiz-adv-x="655" 
d="M279 299h-62v-299h-128v700h128v-286h62l187 286h149l-230 -341l250 -359h-154zM388 915h158l-152 -150h-100z" />
    <glyph glyph-name="uni040E" unicode="&#x40e;" horiz-adv-x="630" 
d="M223 -13q-22 0 -43 3.5t-38 11.5v126q11 -10 24.5 -16t33.5 -6q23 0 39.5 15.5t30.5 51.5l-255 527h146l174 -384l139 384h141l-215 -550q-18 -45 -35.5 -76.5t-38.5 -50.5t-46 -27.5t-57 -8.5zM315 765q-38 0 -70 7.5t-55.5 25t-37.5 46.5t-14 71h98q1 -45 20 -61
t59 -16t60 16t22 61h95q-1 -42 -14.5 -71t-37 -46.5t-56 -25t-69.5 -7.5z" />
    <glyph glyph-name="uni040F" unicode="&#x40f;" horiz-adv-x="690" 
d="M89 700h128v-586h256v586h128v-700h-199v-130h-114v130h-199v700z" />
    <glyph glyph-name="uni0410" unicode="&#x410;" horiz-adv-x="640" 
d="M249 700h143l233 -700h-133l-52 166h-246l-52 -166h-127zM227 273h180l-89 287z" />
    <glyph glyph-name="uni0411" unicode="&#x411;" horiz-adv-x="630" 
d="M299 -6q-29 0 -65 2t-68 4q-38 3 -77 6v694h445v-114h-317v-148q14 1 32 2q14 1 33.5 2t40.5 1q68 0 116 -13.5t78 -41t44 -69.5t14 -99t-14.5 -99.5t-47.5 -70.5t-85.5 -42t-128.5 -14zM443 224q0 29 -6.5 49.5t-22.5 33.5t-43 19t-68 6q-19 0 -35 -1t-27 -2
q-13 -1 -24 -2v-209q11 -2 24 -3q11 -1 27 -1.5t35 -0.5q40 0 67 6.5t43 20t23 34.5t7 50z" />
    <glyph glyph-name="uni0412" unicode="&#x412;" horiz-adv-x="625" 
d="M307 -6q-38 0 -76.5 1.5t-70.5 3.5q-37 3 -71 6v690q34 2 71 5q32 2 70 4t75 2q73 0 122 -11t78.5 -33.5t41.5 -57.5t12 -83q0 -125 -113 -156q65 -9 100 -50t35 -116q0 -52 -13.5 -90.5t-45.5 -64t-84.5 -38t-130.5 -12.5zM449 208q0 51 -27 74.5t-99 23.5h-106v-197
q15 -1 32 -2q14 -1 32.5 -1h38.5q37 0 62 5.5t40 18t21 32t6 46.5zM427 502q0 50 -24 71t-91 21q-20 0 -37 -0.5t-30 -1.5q-15 -1 -28 -1v-184h96q64 0 89 22.5t25 72.5z" />
    <glyph glyph-name="uni0413" unicode="&#x413;" horiz-adv-x="535" 
d="M89 700h416v-114h-288v-586h-128v700z" />
    <glyph glyph-name="uni0414" unicode="&#x414;" horiz-adv-x="695" 
d="M20 114h65q17 37 30.5 90t22.5 115t14 131.5t7 141.5l2 108h425v-586h74v-244h-115v130h-410v-130h-115v244zM459 114v472h-184q0 -63 -4.5 -128t-12.5 -127.5t-21 -118t-29 -98.5h251z" />
    <glyph glyph-name="uni0415" unicode="&#x415;" horiz-adv-x="575" 
d="M89 700h436v-114h-308v-176h268v-107h-268v-189h308v-114h-436v700z" />
    <glyph glyph-name="uni0416" unicode="&#x416;" horiz-adv-x="900" 
d="M218 354l-174 346h146l136 -286h60v286h127v-286h59l144 286h140l-176 -336l196 -364h-148l-156 299h-59v-299h-127v299h-60l-157 -299h-145z" />
    <glyph glyph-name="uni0417" unicode="&#x417;" horiz-adv-x="545" 
d="M248 -13q-59 0 -111.5 11.5t-91.5 28.5v139q31 -27 82 -45.5t112 -18.5q71 0 99 25.5t28 82.5q0 49 -27.5 72.5t-98.5 23.5h-93v101h86q63 0 88.5 23t25.5 74q0 50 -24.5 72t-87.5 22q-51 0 -94.5 -15t-84.5 -40v135q37 14 86.5 24.5t111.5 10.5q65 0 108.5 -12.5t70 -36
t37.5 -57.5t11 -77q0 -66 -31.5 -107t-89.5 -58q68 -8 104.5 -51.5t36.5 -117.5q0 -50 -13 -88.5t-42.5 -65.5t-78 -41t-119.5 -14z" />
    <glyph glyph-name="uni0418" unicode="&#x418;" horiz-adv-x="740" 
d="M89 700h128v-404q0 -22 -0.5 -42t-1.5 -36q-1 -18 -1 -36h2q8 18 17 36l18 36t22 42l235 404h143v-700h-128v404v43t1 36q1 18 2 35h-2q-7 -17 -16 -35q-8 -16 -18.5 -36t-22.5 -43l-235 -404h-143v700z" />
    <glyph glyph-name="uni0419" unicode="&#x419;" horiz-adv-x="740" 
d="M89 700h128v-404q0 -22 -0.5 -42t-1.5 -36q-1 -18 -1 -36h2q8 18 17 36l18 36t22 42l235 404h143v-700h-128v404v43t1 36q1 18 2 35h-2q-7 -17 -16 -35q-8 -16 -18.5 -36t-22.5 -43l-235 -404h-143v700zM363 765q-38 0 -70 7.5t-55.5 25t-37.5 46.5t-14 71h98
q1 -45 20 -61t59 -16t60 16t22 61h95q-1 -42 -14.5 -71t-37 -46.5t-56 -25t-69.5 -7.5z" />
    <glyph glyph-name="uni041A" unicode="&#x41a;" horiz-adv-x="655" 
d="M279 299h-62v-299h-128v700h128v-286h62l187 286h149l-230 -341l250 -359h-154z" />
    <glyph glyph-name="uni041B" unicode="&#x41b;" horiz-adv-x="695" 
d="M72 -13q-24 0 -42 7v121q10 -3 23 -3q23 0 40 17t28.5 64.5t19 133t12.5 223.5l6 150h447v-700h-128v586h-204l-4 -67q-9 -170 -23 -274.5t-36.5 -161.5t-56 -76.5t-82.5 -19.5z" />
    <glyph glyph-name="uni041C" unicode="&#x41c;" horiz-adv-x="850" 
d="M89 700h162l177 -405l176 405h157v-700h-123v421v29t0.5 25t1 24.5t2.5 28.5h-3q-6 -16 -10.5 -28.5t-9 -24.5t-10 -24.5t-12.5 -29.5l-119 -270h-106l-119 270q-7 17 -12.5 29.5t-10 24.5t-9 24.5t-10.5 28.5h-3q1 -16 2 -28.5t1.5 -24.5t0.5 -25v-29v-421h-123v700z
" />
    <glyph glyph-name="uni041D" unicode="&#x41d;" horiz-adv-x="720" 
d="M89 700h128v-285h286v285h128v-700h-128v301h-286v-301h-128v700z" />
    <glyph glyph-name="uni041E" unicode="&#x41e;" horiz-adv-x="710" 
d="M355 -13q-153 0 -231.5 85.5t-78.5 277.5q0 190 79.5 276.5t230.5 86.5q78 0 136.5 -20t97 -63.5t57.5 -112.5t19 -167q0 -190 -79.5 -276.5t-230.5 -86.5zM355 102q44 0 77 12.5t55.5 41.5t34 76.5t11.5 117.5t-11.5 117.5t-34 76.5t-55.5 41.5t-77 12.5t-77 -12.5
t-55.5 -41.5t-34 -76.5t-11.5 -117.5q0 -69 11.5 -116.5t34 -77t56 -42t76.5 -12.5z" />
    <glyph glyph-name="uni041F" unicode="&#x41f;" horiz-adv-x="700" 
d="M89 700h522v-700h-128v586h-266v-586h-128v700z" />
    <glyph glyph-name="uni0420" unicode="&#x420;" horiz-adv-x="620" 
d="M89 695q33 2 68 5q30 2 67 4t74 2q76 0 129 -14t86 -44t47.5 -76t14.5 -109q0 -128 -66 -191t-211 -63h-31.5t-25.5 1q-13 1 -24 2v-212h-128v695zM443 463q0 33 -7 56.5t-24 38.5t-45 22t-69 7q-17 0 -31.5 -0.5t-25.5 -1.5q-13 -1 -24 -2v-252q11 -1 24 -2
q11 -1 25.5 -1h31.5q40 0 68 7.5t45 23.5t24.5 41.5t7.5 62.5z" />
    <glyph glyph-name="uni0421" unicode="&#x421;" horiz-adv-x="575" 
d="M362 -13q-81 0 -140.5 20t-99 64t-58.5 114t-19 170q0 189 79 273.5t236 84.5q36 0 67.5 -5t54.5 -11q27 -7 50 -16v-129q-29 17 -69.5 29.5t-98.5 12.5q-47 0 -82 -12.5t-58.5 -41t-35 -74t-11.5 -111.5q0 -69 12 -117t35.5 -77t58.5 -42t82 -13q59 0 102.5 16t67.5 33
v-129q-22 -11 -48 -20q-23 -8 -55 -13.5t-70 -5.5z" />
    <glyph glyph-name="uni0422" unicode="&#x422;" horiz-adv-x="580" 
d="M226 586h-196v114h520v-114h-196v-586h-128v586z" />
    <glyph glyph-name="uni0423" unicode="&#x423;" horiz-adv-x="630" 
d="M223 -13q-22 0 -43 3.5t-38 11.5v126q11 -10 24.5 -16t33.5 -6q23 0 39.5 15.5t30.5 51.5l-255 527h146l174 -384l139 384h141l-215 -550q-18 -45 -35.5 -76.5t-38.5 -50.5t-46 -27.5t-57 -8.5z" />
    <glyph glyph-name="uni0424" unicode="&#x424;" horiz-adv-x="830" 
d="M351 60h-18q-152 0 -222.5 70.5t-70.5 224.5t70 224.5t223 70.5h18v70h128v-70h18q78 0 133.5 -16.5t91 -52t52 -91.5t16.5 -135q0 -154 -70.5 -224.5t-222.5 -70.5h-18v-80h-128v80zM172 355q0 -54 8.5 -90t28 -58t51 -31t77.5 -9h18v376h-18q-46 0 -77.5 -9t-51 -30.5
t-28 -57.5t-8.5 -91zM658 355q0 55 -8.5 91t-28 57.5t-51 30.5t-77.5 9h-18v-376h18q46 0 77.5 9t51 31t28 58t8.5 90z" />
    <glyph glyph-name="uni0425" unicode="&#x425;" horiz-adv-x="630" 
d="M231 358l-200 342h148l138 -240l137 240h145l-200 -339l211 -361h-151l-146 258l-147 -258h-146z" />
    <glyph glyph-name="uni0426" unicode="&#x426;" horiz-adv-x="730" 
d="M580 0h-491v700h128v-586h271v586h127v-586h80v-244h-115v130z" />
    <glyph glyph-name="uni0427" unicode="&#x427;" horiz-adv-x="650" 
d="M433 273q-17 -10 -40 -17q-20 -7 -48.5 -12t-65.5 -5q-56 0 -96.5 12.5t-66.5 39.5t-38.5 69t-12.5 102v238h127v-232q0 -60 27.5 -87t87.5 -27q32 0 55.5 4.5t39.5 9.5q18 6 31 15v317h128v-700h-128v273z" />
    <glyph glyph-name="uni0428" unicode="&#x428;" horiz-adv-x="930" 
d="M89 700h128v-586h184v586h128v-586h184v586h128v-700h-752v700z" />
    <glyph glyph-name="uni0429" unicode="&#x429;" horiz-adv-x="950" 
d="M89 700h128v-586h184v586h128v-586h184v586h128v-586h74v-244h-115v130h-711v700z" />
    <glyph glyph-name="uni042A" unicode="&#x42a;" horiz-adv-x="690" 
d="M363 -6q-30 0 -64 2t-63 4q-34 3 -67 6v580h-139v114h266v-230q14 1 31 2q14 1 31.5 2t35.5 1q133 0 192 -57t59 -175q0 -66 -14.5 -113t-48 -77.5t-87.5 -44.5t-132 -14zM513 236q0 33 -6.5 56t-23 37t-44 20.5t-69.5 6.5q-15 0 -28 -0.5t-24 -1.5q-12 -1 -22 -2v-234
q10 -2 22 -3q11 -1 24 -1.5t28 -0.5q81 0 112 28.5t31 94.5z" />
    <glyph glyph-name="uni042B" unicode="&#x42b;" horiz-adv-x="850" 
d="M283 -6q-30 0 -64 2t-63 4q-34 3 -67 6v694h127v-230q14 1 31 2q14 1 31.5 2t35.5 1q128 0 186 -56.5t58 -175.5q0 -66 -14.5 -113t-47 -77.5t-85 -44.5t-128.5 -14zM427 236q0 66 -29.5 93t-107.5 27q-15 0 -28 -0.5t-24 -1.5q-12 -1 -22 -2v-234q10 -2 22 -3
q11 -1 24 -1.5t28 -0.5q76 0 106.5 28.5t30.5 94.5zM633 700h128v-700h-128v700z" />
    <glyph glyph-name="uni042C" unicode="&#x42c;" horiz-adv-x="610" 
d="M283 -6q-30 0 -64 2t-63 4q-34 3 -67 6v694h128v-230q15 1 31 2q14 1 31 2t35 1q133 0 192 -57t59 -175q0 -66 -14.5 -113t-48 -77.5t-87.5 -44.5t-132 -14zM433 236q0 33 -6.5 56t-23 37t-44 20.5t-69.5 6.5q-15 0 -28 -0.5t-23 -1.5l-22 -2v-234q11 -2 22 -3
q10 -1 23 -1.5t28 -0.5q81 0 112 28.5t31 94.5z" />
    <glyph glyph-name="uni042D" unicode="&#x42d;" horiz-adv-x="590" 
d="M140 410h270q-9 101 -54.5 142.5t-128.5 41.5q-66 0 -107.5 -13t-71.5 -33v129q23 10 52 18q25 7 58 12.5t72 5.5q79 0 138 -20.5t98.5 -64t59 -111t19.5 -162.5q0 -99 -19.5 -169t-59.5 -114t-100 -64.5t-141 -20.5q-40 0 -72.5 6t-56.5 14q-28 9 -51 21v130
q29 -18 71 -35t106 -17q85 0 132.5 44.5t56.5 151.5h-271v108z" />
    <glyph glyph-name="uni042E" unicode="&#x42e;" horiz-adv-x="960" 
d="M615 -13q-67 0 -119.5 17t-89 54.5t-57.5 96.5t-26 143h-106v-298h-128v700h128v-288h107q12 159 87.5 230t203.5 71q76 0 132 -19.5t93.5 -63t56 -112.5t18.5 -168q0 -97 -19 -166t-57 -112.5t-94 -64t-130 -20.5zM615 106q40 0 71 12t52 40.5t32 75t11 116.5t-11 116.5
t-32 75t-52 40.5t-71 12t-71 -12t-52 -40.5t-32 -75t-11 -116.5t11 -116.5t32 -75t52 -40.5t71 -12z" />
    <glyph glyph-name="uni042F" unicode="&#x42f;" horiz-adv-x="640" 
d="M189 260q-62 25 -88.5 77.5t-26.5 138.5q0 58 15 101t47.5 71.5t84 43t124.5 14.5q37 0 74 -2t66 -4q34 -3 66 -5v-695h-128v237h-85h-26l-131 -237h-142zM206 469q0 -62 30 -90t102 -28h88v233q-13 0 -27 1q-12 1 -28 1.5t-33 0.5q-74 0 -103 -27t-29 -91z" />
    <glyph glyph-name="uni0430" unicode="&#x430;" horiz-adv-x="535" 
d="M198 -13q-78 0 -118.5 41t-40.5 120q0 42 11 73t36 51.5t65 31t98 10.5h100v36q0 47 -23 66.5t-85 19.5q-47 0 -89.5 -12t-68.5 -29v120q30 13 77 22t101 9q58 0 98.5 -10t65 -33t35.5 -60t11 -91v-352h-110l-5 85q-15 -40 -54 -69t-104 -29zM242 91q50 0 78.5 29.5
t28.5 86.5v29h-86q-56 0 -77 -18.5t-21 -58.5q0 -34 18 -51t59 -17z" />
    <glyph glyph-name="uni0431" unicode="&#x431;" horiz-adv-x="590" 
d="M303 -13q-59 0 -106 16t-80 55t-50.5 104t-17.5 163q0 126 18.5 204t54.5 123.5t88.5 65.5t119.5 28q64 8 105 14.5t69 18.5v-123q-18 -9 -51.5 -15t-94.5 -13q-50 -6 -89 -15.5t-66.5 -32t-43 -62.5t-16.5 -106h3q31 51 77 81t119 30q56 0 95.5 -15t65 -46.5t37 -82
t11.5 -120.5q0 -72 -17 -123.5t-49 -84.5t-78 -48.5t-104 -15.5zM303 97q62 0 92 39t30 122q0 86 -28 120.5t-90 34.5q-66 0 -97.5 -38.5t-31.5 -114.5q0 -83 30 -123t95 -40z" />
    <glyph glyph-name="uni0432" unicode="&#x432;" horiz-adv-x="540" 
d="M270 -6q-41 0 -77 0.5t-64 2.5q-33 1 -60 3v536q25 1 57 2q27 1 63 1.5t78 0.5q62 0 103 -9.5t66 -28t35 -46.5t10 -64q0 -42 -21.5 -69t-62.5 -41q51 -8 77.5 -40t26.5 -86q0 -39 -11.5 -69.5t-38.5 -51t-71.5 -31t-109.5 -10.5zM375 164q0 38 -20 54t-78 16h-86v-136
q0 -1 7.5 -1.5t19.5 -1t26.5 -1t28.5 -0.5q31 0 51 4t31 12t15.5 21.5t4.5 32.5zM361 377q0 33 -19 48t-75 15q-15 0 -28.5 -0.5t-24.5 -1.5q-12 -1 -23 -1v-124h86q48 0 66 16t18 48z" />
    <glyph glyph-name="uni0433" unicode="&#x433;" horiz-adv-x="435" 
d="M69 534h341v-110h-219v-424h-122v534z" />
    <glyph glyph-name="uni0434" unicode="&#x434;" horiz-adv-x="595" 
d="M25 110h56q29 63 39.5 171.5t10.5 252.5h365v-424h69v-240h-109v130h-322v-130h-109v240zM374 110v314h-133q0 -83 -9 -164t-32 -150h174z" />
    <glyph glyph-name="uni0435" unicode="&#x435;" horiz-adv-x="550" 
d="M293 -13q-136 0 -195 70t-59 217q0 138 63.5 205t177.5 67q124 0 177.5 -64.5t53.5 -188.5v-58h-350q3 -76 37.5 -110t108.5 -34q51 0 98.5 16.5t73.5 40.5v-113q-29 -19 -73 -33.5t-113 -14.5zM280 450q-57 0 -86 -32.5t-33 -104.5h228q0 67 -23 102t-86 35z" />
    <glyph glyph-name="uni0436" unicode="&#x436;" horiz-adv-x="770" 
d="M177 269l-138 265h134l99 -204h56v204h115v-204h56l103 204h129l-137 -249l152 -285h-135l-112 223h-56v-223h-115v223h-55l-119 -223h-130z" />
    <glyph glyph-name="uni0437" unicode="&#x437;" horiz-adv-x="475" 
d="M215 -13q-49 0 -98.5 10t-81.5 28v123q30 -23 74.5 -40t95.5 -17q60 0 83 18.5t23 52.5q0 17 -4.5 29.5t-16.5 21t-32.5 12.5t-52.5 4h-72v86h72q48 0 67 16.5t19 48.5t-19 47.5t-74 15.5q-41 0 -81 -13.5t-75 -38.5v123q74 32 180 32q55 0 92.5 -9t60 -27t32 -46
t9.5 -67q0 -40 -23.5 -73t-65.5 -44q57 -11 83 -43.5t26 -91.5q0 -36 -12.5 -65t-39 -49.5t-68.5 -32t-101 -11.5z" />
    <glyph glyph-name="uni0438" unicode="&#x438;" horiz-adv-x="590" 
d="M69 534h122v-287q0 -14 -0.5 -28t-1.5 -25q-1 -13 -1 -25h4q5 12 11 25q5 11 13 25.5t17 29.5l167 285h121v-534h-122v283v31t1 26q1 13 2 25h-4q-6 -12 -12 -25q-5 -11 -12.5 -25.5t-16.5 -29.5l-167 -285h-121v534z" />
    <glyph glyph-name="uni0439" unicode="&#x439;" horiz-adv-x="590" 
d="M69 534h122v-287q0 -14 -0.5 -28t-1.5 -25q-1 -13 -1 -25h4q5 12 11 25q5 11 13 25.5t17 29.5l167 285h121v-534h-122v283v31t1 26q1 13 2 25h-4q-6 -12 -12 -25q-5 -11 -12.5 -25.5t-16.5 -29.5l-167 -285h-121v534zM295 618q-38 0 -68.5 7.5t-52.5 25t-34 46.5t-14 72
h98q4 -45 20.5 -62t50.5 -17t51.5 17t22.5 62h95q-2 -43 -14.5 -72t-34 -46.5t-52 -25t-68.5 -7.5z" />
    <glyph glyph-name="uni043A" unicode="&#x43a;" horiz-adv-x="555" 
d="M69 534h122v-204h56l129 204h137l-170 -254l188 -280h-142l-142 223h-56v-223h-122v534z" />
    <glyph glyph-name="uni043B" unicode="&#x43b;" horiz-adv-x="575" 
d="M25 118q9 -4 21 -4q18 0 31 12.5t22 49.5t14 105t7 180l1 73h385v-534h-122v420h-150l-1 -28q-3 -117 -13.5 -194.5t-30 -124.5t-49 -66.5t-69.5 -19.5q-14 0 -26 1.5t-20 4.5v125z" />
    <glyph glyph-name="uni043C" unicode="&#x43c;" horiz-adv-x="680" 
d="M69 534h159l112 -284l115 284h156v-534h-115v309q0 17 0.5 35t1.5 32q1 17 2 33h-4q-6 -17 -12 -35q-5 -15 -11.5 -32.5t-11.5 -32.5l-82 -197h-80l-79 197q-6 16 -12.5 33.5t-11.5 32.5q-6 18 -12 34h-3q0 -16 1 -33q1 -14 1.5 -32t0.5 -35v-309h-115v534z" />
    <glyph glyph-name="uni043D" unicode="&#x43d;" horiz-adv-x="580" 
d="M69 534h122v-207h198v207h122v-534h-122v217h-198v-217h-122v534z" />
    <glyph glyph-name="uni043E" unicode="&#x43e;" horiz-adv-x="570" 
d="M285 -13q-122 0 -184 66.5t-62 213.5q0 143 64 211t182 68q125 0 185.5 -64.5t60.5 -214.5q0 -147 -62.5 -213.5t-183.5 -66.5zM285 97q30 0 52.5 8.5t37.5 28t22.5 52.5t7.5 81t-7.5 80.5t-22.5 52t-37.5 28t-52.5 8.5q-59 0 -89.5 -37.5t-30.5 -131.5q0 -48 7.5 -81
t22.5 -52.5t37.5 -28t52.5 -8.5z" />
    <glyph glyph-name="uni043F" unicode="&#x43f;" horiz-adv-x="570" 
d="M69 534h432v-534h-122v424h-188v-424h-122v534z" />
    <glyph glyph-name="uni0440" unicode="&#x440;" horiz-adv-x="590" 
d="M69 534h117l5 -80q10 19 24.5 36t34.5 29.5t46.5 19.5t60.5 7q49 0 85.5 -15t60.5 -47.5t36 -84.5t12 -127q0 -153 -51.5 -219t-155.5 -66q-33 0 -58 8t-43.5 20.5t-31 29t-20.5 33.5v-258h-122v714zM425 272q0 47 -7 78.5t-21.5 50.5t-36 27t-50.5 8q-57 0 -88 -33.5
t-31 -107.5v-56q0 -73 31.5 -107.5t86.5 -34.5q29 0 51 8t36.5 28.5t21.5 54t7 84.5z" />
    <glyph glyph-name="uni0441" unicode="&#x441;" horiz-adv-x="475" 
d="M295 -13q-66 0 -114.5 15.5t-80 50t-46.5 88.5t-15 131q0 142 64 208t189 66q31 0 57 -3.5t45 -8.5t30.5 -9.5t14.5 -5.5v-127q-24 18 -56.5 31t-77.5 13q-72 0 -106 -37.5t-34 -126.5q0 -95 36.5 -135t113.5 -40q38 0 74 13t56 32v-121q-3 -2 -15 -7.5t-31.5 -11.5
t-46 -10.5t-57.5 -4.5z" />
    <glyph glyph-name="uni0442" unicode="&#x442;" horiz-adv-x="480" 
d="M179 424h-154v110h430v-110h-154v-424h-122v424z" />
    <glyph glyph-name="uni0443" unicode="&#x443;" horiz-adv-x="520" 
d="M174 -193q-26 0 -47 5.5t-24 7.5v112q11 -7 22.5 -11t27.5 -4q10 0 19.5 3t17.5 12t15.5 25.5t14.5 42.5l-205 534h132l129 -366l104 366h125l-162 -528q-20 -64 -38 -103t-37.5 -60.5t-42.5 -28.5t-51 -7z" />
    <glyph glyph-name="uni0444" unicode="&#x444;" horiz-adv-x="720" 
d="M299 -9q-7 -1 -15 -2q-7 -1 -15.5 -1.5t-17.5 -0.5q-52 0 -91.5 14.5t-66.5 47.5t-40.5 86.5t-13.5 131.5q0 76 14.5 129t41.5 86.5t66.5 48.5t89.5 15q9 0 17.5 -0.5t15.5 -1.5q8 -1 15 -2v208h122v-208q7 1 15 2q7 1 15 1.5t18 0.5q54 0 94 -14t66 -46t39 -86t13 -133
q0 -76 -14.5 -129.5t-41.5 -87t-66.5 -48.5t-89.5 -15q-10 0 -18 0.5t-15 1.5q-8 1 -15 2v-171h-122v171zM165 267q0 -50 7 -82.5t20.5 -52t34 -27.5t47.5 -8h9t8 1q4 0 8 1v335q-4 0 -8 1q-4 0 -8.5 0.5t-8.5 0.5q-27 0 -47.5 -8t-34 -27t-20.5 -52t-7 -82zM555 267
q0 50 -7 82.5t-20.5 52t-34 27t-47.5 7.5q-5 0 -9 -0.5t-8 -0.5q-4 -1 -8 -1v-335q4 -1 8 -1q5 -1 17 -1q27 0 47.5 8t34 27.5t20.5 52t7 82.5z" />
    <glyph glyph-name="uni0445" unicode="&#x445;" horiz-adv-x="540" 
d="M187 274l-151 260h136l100 -173l100 173h132l-151 -257l163 -277h-138l-110 194l-110 -194h-134z" />
    <glyph glyph-name="uni0446" unicode="&#x446;" horiz-adv-x="590" 
d="M451 0h-382v534h122v-425h178v425h122v-425h69v-239h-109v130z" />
    <glyph glyph-name="uni0447" unicode="&#x447;" horiz-adv-x="530" 
d="M339 193q-16 -7 -34 -11q-16 -5 -38 -8t-48 -3q-174 0 -174 171v192h121v-165q0 -49 19.5 -69t64.5 -20q21 0 37.5 2.5t27.5 6.5q13 4 24 9v236h122v-534h-122v193z" />
    <glyph glyph-name="uni0448" unicode="&#x448;" horiz-adv-x="780" 
d="M69 534h122v-424h138v424h122v-424h138v424h122v-534h-642v534z" />
    <glyph glyph-name="uni0449" unicode="&#x449;" horiz-adv-x="810" 
d="M671 0h-602v534h122v-424h138v424h122v-424h138v424h122v-424h69v-240h-109v130z" />
    <glyph glyph-name="uni044A" unicode="&#x44a;" horiz-adv-x="600" 
d="M326 -6q-30 0 -61.5 1t-57.5 3q-30 2 -58 4v422h-124v110h246v-161q12 1 26 2q12 1 27 1.5t30 0.5q58 0 98.5 -11t65.5 -34t36 -59t11 -86q0 -49 -12.5 -85.5t-40.5 -60.5t-74 -35.5t-112 -11.5zM440 187q0 43 -20.5 61.5t-79.5 18.5q-13 0 -25 -0.5t-22 -1.5l-22 -2
v-156l22 -2q10 -1 22 -1h25q58 0 79 18.5t21 64.5z" />
    <glyph glyph-name="uni044B" unicode="&#x44b;" horiz-adv-x="730" 
d="M239 -6q-30 0 -60.5 1t-54.5 3q-29 2 -55 4v532h122v-161q11 1 23 2q11 1 24.5 1.5t28.5 0.5q111 0 158 -45t47 -145q0 -49 -12.5 -85.5t-40.5 -60.5t-72 -35.5t-108 -11.5zM346 187q0 44 -19.5 62t-73.5 18q-12 0 -23.5 -0.5t-19.5 -1.5q-11 -1 -19 -2v-156q8 -1 19 -2
q8 -1 19.5 -1h23.5q53 0 73 18.5t20 64.5zM539 534h122v-534h-122v534z" />
    <glyph glyph-name="uni044C" unicode="&#x44c;" horiz-adv-x="520" 
d="M246 -6q-30 0 -61.5 1t-57.5 3q-30 2 -58 4v532h122v-161q12 1 26 2q12 1 27 1.5t30 0.5q58 0 98.5 -11t65.5 -34t36 -59t11 -86q0 -49 -12.5 -85.5t-40.5 -60.5t-74 -35.5t-112 -11.5zM360 187q0 43 -20.5 61.5t-79.5 18.5q-13 0 -25 -0.5t-22 -1.5l-22 -2v-156l22 -2
q10 -1 22 -1h25q58 0 79 18.5t21 64.5z" />
    <glyph glyph-name="uni044D" unicode="&#x44d;" horiz-adv-x="495" 
d="M127 316h208q-3 36 -12.5 60.5t-26 39.5t-41 21t-57.5 6q-56 0 -92.5 -14.5t-65.5 -31.5v119q20 11 60.5 20.5t97.5 9.5q69 0 118 -14.5t80 -47t45.5 -84.5t14.5 -128t-16 -130t-48.5 -88.5t-82.5 -50.5t-118 -16q-62 0 -99 11.5t-57 22.5v118q10 -8 26.5 -16t37 -15.5
t44 -12t48.5 -4.5q35 0 60.5 7t43 23.5t27.5 43t13 66.5h-208v85z" />
    <glyph glyph-name="uni044E" unicode="&#x44e;" horiz-adv-x="770" 
d="M495 -13q-104 0 -162 53.5t-67 176.5h-75v-217h-122v534h122v-207h76q11 117 68.5 168t159.5 51q117 0 176.5 -64.5t59.5 -214.5t-59.5 -215t-176.5 -65zM495 97q27 0 47.5 8t34 27.5t20.5 52t7 81.5q0 50 -7 82.5t-20.5 52t-34 27.5t-47.5 8t-47 -8t-34 -27t-21 -52
t-7 -82q0 -50 7 -82.5t21 -52t34 -27.5t47 -8z" />
    <glyph glyph-name="uni044F" unicode="&#x44f;" horiz-adv-x="550" 
d="M147 186q-46 20 -67 60.5t-21 103.5q0 49 13.5 84.5t43 59t76 35t113.5 11.5q32 0 64 -1t57 -3q29 -2 55 -4v-532h-122v165h-88h-10l-88 -165h-134zM185 350q0 -44 21 -62.5t79 -18.5h74v158q-13 0 -25 1q-11 1 -24 1.5t-25 0.5q-58 0 -79 -19t-21 -61z" />
    <glyph glyph-name="uni0451" unicode="&#x451;" horiz-adv-x="550" 
d="M293 -13q-136 0 -195 70t-59 217q0 138 63.5 205t177.5 67q124 0 177.5 -64.5t53.5 -188.5v-58h-350q3 -76 37.5 -110t108.5 -34q51 0 98.5 16.5t73.5 40.5v-113q-29 -19 -73 -33.5t-113 -14.5zM280 450q-57 0 -86 -32.5t-33 -104.5h228q0 67 -23 102t-86 35zM173 628
q-71 0 -71 66q0 65 71 65t71 -65q0 -66 -71 -66zM381 628q-71 0 -71 66q0 65 71 65t71 -65q0 -66 -71 -66z" />
    <glyph glyph-name="uni0452" unicode="&#x452;" horiz-adv-x="605" 
d="M3 534h86v223h122v-223h186v-88h-186v-168q43 95 156 95q86 0 130 -45.5t44 -150.5v-46q0 -66 -15 -115.5t-40.5 -88t-61 -67.5t-75.5 -53l-58 77q35 24 59.5 46.5t39.5 48t22 57t7 74.5v23q0 75 -24 102.5t-77 27.5q-51 0 -79 -30.5t-28 -99.5v-133h-122v446h-86v88z
" />
    <glyph glyph-name="uni0453" unicode="&#x453;" horiz-adv-x="435" 
d="M69 534h341v-110h-219v-424h-122v534zM268 769h156l-144 -151h-98z" />
    <glyph glyph-name="uni0454" unicode="&#x454;" horiz-adv-x="495" 
d="M304 -13q-68 0 -118 16t-82.5 50.5t-48.5 88.5t-16 130t14.5 128t45.5 84.5t80 47t118 14.5q57 0 97.5 -9.5t60.5 -20.5v-119q-29 17 -65.5 31.5t-92.5 14.5q-33 0 -57.5 -6t-41.5 -21t-26.5 -39.5t-12.5 -60.5h209v-85h-209q3 -40 13 -66.5t27.5 -43t43.5 -23.5t61 -7
q25 0 48.5 4.5t44 12t36.5 15.5t27 16v-118q-20 -11 -57 -22.5t-99 -11.5z" />
    <glyph glyph-name="uni0455" unicode="&#x455;" horiz-adv-x="475" 
d="M223 -13q-38 0 -81 8t-83 25v123q29 -25 71 -38.5t90 -13.5q45 0 62.5 15t17.5 44q0 27 -18 41t-45.5 23.5t-59.5 18.5t-59.5 26t-45.5 45.5t-18 77.5q0 82 45.5 123t153.5 41q39 0 79 -7t69 -18v-122q-32 23 -66.5 33.5t-77.5 10.5q-44 0 -60.5 -13.5t-16.5 -39.5
q0 -25 18 -37.5t45.5 -21.5t59.5 -18t59.5 -26.5t45.5 -47.5t18 -80q0 -86 -47 -129t-156 -43z" />
    <glyph glyph-name="uni0456" unicode="&#x456;" horiz-adv-x="290" 
d="M84 534h122v-534h-122v534zM145 626q-74 0 -74 68t74 68t74 -68t-74 -68z" />
    <glyph glyph-name="uni0457" unicode="&#x457;" horiz-adv-x="290" 
d="M84 534h122v-534h-122v534zM44 628q-71 0 -71 66q0 65 71 65t71 -65q0 -66 -71 -66zM252 628q-71 0 -71 66q0 65 71 65t71 -65q0 -66 -71 -66z" />
    <glyph glyph-name="uni0458" unicode="&#x458;" horiz-adv-x="290" 
d="M62 -186q-30 0 -53.5 5t-26.5 7v114q11 -7 24 -11.5t28 -4.5q26 0 38 14t12 52v544h122v-550q0 -92 -36 -131t-108 -39zM145 626q-74 0 -74 68t74 68t74 -68t-74 -68z" />
    <glyph glyph-name="uni0459" unicode="&#x459;" horiz-adv-x="820" 
d="M551 -6q-29 0 -60 1t-57 3q-30 2 -58 4v418h-142l-1 -28q-3 -117 -13.5 -194.5t-30 -124.5t-49 -66.5t-69.5 -19.5q-14 0 -26 1.5t-20 4.5v125q9 -4 21 -4q18 0 31 12.5t22 49.5t14 105t7 180l1 73h376v-161q13 1 27 2q12 1 26 1.5t28 0.5q113 0 160 -45t47 -145
q0 -49 -12.5 -85.5t-40 -60.5t-72.5 -35.5t-109 -11.5zM660 187q0 44 -19.5 62t-75.5 18q-12 0 -24 -0.5t-22 -1.5l-22 -2v-156l22 -2q10 -1 22 -1h24q55 0 75 18.5t20 64.5z" />
    <glyph glyph-name="uni045A" unicode="&#x45a;" horiz-adv-x="830" 
d="M561 -6q-29 0 -60 1t-57 3q-30 2 -58 4v215h-195v-217h-122v534h122v-207h195v207h121v-161q13 1 27 2q12 1 26 1.5t28 0.5q113 0 160 -45t47 -145q0 -49 -12.5 -85.5t-40 -60.5t-72.5 -35.5t-109 -11.5zM670 187q0 44 -19.5 62t-75.5 18q-12 0 -24 -0.5t-22 -1.5l-22 -2
v-156l22 -2q10 -1 22 -1h24q55 0 75 18.5t20 64.5z" />
    <glyph glyph-name="uni045B" unicode="&#x45b;" horiz-adv-x="605" 
d="M3 534h86v223h122v-223h186v-88h-186v-168q43 95 156 95q86 0 130 -45.5t44 -150.5v-177h-122v133q0 75 -24 102.5t-77 27.5q-51 0 -79 -30.5t-28 -99.5v-133h-122v446h-86v88z" />
    <glyph glyph-name="uni045C" unicode="&#x45c;" horiz-adv-x="555" 
d="M69 534h122v-204h56l129 204h137l-170 -254l188 -280h-142l-142 223h-56v-223h-122v534zM319 769h156l-144 -151h-98z" />
    <glyph glyph-name="uni045E" unicode="&#x45e;" horiz-adv-x="520" 
d="M174 -193q-26 0 -47 5.5t-24 7.5v112q11 -7 22.5 -11t27.5 -4q10 0 19.5 3t17.5 12t15.5 25.5t14.5 42.5l-205 534h132l129 -366l104 366h125l-162 -528q-20 -64 -38 -103t-37.5 -60.5t-42.5 -28.5t-51 -7zM260 618q-38 0 -68.5 7.5t-52.5 25t-34 46.5t-14 72h98
q4 -45 20.5 -62t50.5 -17t51.5 17t22.5 62h95q-2 -43 -14.5 -72t-34 -46.5t-52 -25t-68.5 -7.5z" />
    <glyph glyph-name="uni045F" unicode="&#x45f;" horiz-adv-x="560" 
d="M69 534h122v-424h178v424h122v-534h-156v-130h-110v130h-156v534z" />
    <glyph glyph-name="uni0490" unicode="&#x490;" horiz-adv-x="535" 
d="M89 700h301v110h115v-224h-288v-586h-128v700z" />
    <glyph glyph-name="uni0491" unicode="&#x491;" horiz-adv-x="435" 
d="M69 534h232v110h109v-220h-219v-424h-122v534z" />
    <glyph glyph-name="uni0492" unicode="&#x492;" horiz-adv-x="545" 
d="M13 396h86v304h416v-114h-288v-190h194v-92h-194v-304h-128v304h-86v92z" />
    <glyph glyph-name="uni0493" unicode="&#x493;" horiz-adv-x="465" 
d="M13 311h86v223h341v-110h-219v-113h150v-88h-150v-223h-122v223h-86v88z" />
    <glyph glyph-name="uni049A" unicode="&#x49a;" horiz-adv-x="655" 
d="M279 299h-62v-299h-128v700h128v-286h62l187 286h149l-230 -341l170 -245h92v-244h-115v130h-51z" />
    <glyph glyph-name="uni049B" unicode="&#x49b;" horiz-adv-x="555" 
d="M434 0h-45l-142 223h-56v-223h-122v534h122v-204h56l129 204h137l-170 -254l115 -171h86v-239h-110v130z" />
    <glyph glyph-name="uni04A2" unicode="&#x4a2;" horiz-adv-x="745" 
d="M595 0h-92v301h-286v-301h-128v700h128v-285h286v285h127v-586h80v-244h-115v130z" />
    <glyph glyph-name="uni04A3" unicode="&#x4a3;" horiz-adv-x="610" 
d="M471 0h-82v217h-198v-217h-122v534h122v-207h198v207h122v-425h69v-239h-109v130z" />
    <glyph glyph-name="uni04AE" unicode="&#x4ae;" horiz-adv-x="610" 
d="M246 259l-231 441h146l150 -298l144 298h140l-221 -441v-259h-128v259z" />
    <glyph glyph-name="uni04AF" unicode="&#x4af;" horiz-adv-x="520" 
d="M199 0l-184 534h132l116 -380l117 380h125l-184 -534v-180h-122v180z" />
    <glyph glyph-name="uni04B0" unicode="&#x4b0;" horiz-adv-x="610" 
d="M100 305h122l-207 395h146l150 -298l144 298h140l-198 -395h123v-92h-146v-213h-128v213h-146v92z" />
    <glyph glyph-name="uni04B1" unicode="&#x4b1;" horiz-adv-x="520" 
d="M81 47h102l-168 487h132l116 -380l117 380h125l-168 -487h102v-87h-118v-140h-122v140h-118v87z" />
    <glyph glyph-name="uni04BA" unicode="&#x4ba;" horiz-adv-x="650" 
d="M217 427q17 9 40 17q20 6 48.5 11.5t65.5 5.5q112 0 163 -52t51 -171v-238h-127v232q0 60 -27.5 87t-87.5 27q-32 0 -55.5 -5t-39.5 -10q-18 -6 -31 -14v-317h-128v700h128v-273z" />
    <glyph glyph-name="uni04BB" unicode="&#x4bb;" horiz-adv-x="585" 
d="M69 757h122v-305q43 94 156 94q85 0 129.5 -45.5t44.5 -149.5v-351h-122v307q0 75 -24 102t-77 27q-51 0 -79 -30.5t-28 -98.5v-307h-122v757z" />
    <glyph glyph-name="uni04C0" unicode="&#x4c0;" horiz-adv-x="330" 
d="M101 700h128v-700h-128v700z" />
    <glyph glyph-name="uni04CF" unicode="&#x4cf;" horiz-adv-x="290" 
d="M84 757h122v-757h-122v757z" />
    <glyph glyph-name="uni04D8" unicode="&#x4d8;" horiz-adv-x="690" 
d="M343 -13q-141 0 -219.5 85.5t-78.5 269.5v47h462q-2 39 -10 76.5t-30 67t-61 47.5t-103 18q-53 0 -103 -8.5t-89 -25.5v120q50 14 102.5 21.5t108.5 7.5q101 0 164 -29.5t98.5 -79t48 -113.5t12.5 -134q0 -75 -15.5 -142t-51 -117.5t-93 -80.5t-142.5 -30zM343 102
q34 0 63 10t51 32.5t35 58.5t15 89h-330q0 -95 38 -142.5t128 -47.5z" />
    <glyph glyph-name="uni04D9" unicode="&#x4d9;" horiz-adv-x="550" 
d="M270 -13q-62 0 -106 16.5t-72 48.5t-40.5 79.5t-12.5 109.5v58h350q-3 75 -37.5 109.5t-108.5 34.5q-51 0 -98.5 -16.5t-73.5 -41.5v114q19 16 68 31.5t118 15.5q136 0 195 -69.5t59 -216.5q0 -138 -63.5 -205.5t-177.5 -67.5zM270 84q57 0 86 31t33 106h-228
q0 -70 23 -103.5t86 -33.5z" />
    <glyph glyph-name="uni04E8" unicode="&#x4e8;" horiz-adv-x="710" 
d="M355 -13q-153 0 -231.5 85.5t-78.5 277.5q0 190 79.5 276.5t230.5 86.5q78 0 136.5 -20t97 -63.5t57.5 -112.5t19 -167q0 -190 -79.5 -276.5t-230.5 -86.5zM355 598q-39 0 -70 -10.5t-53.5 -33.5t-35.5 -61t-17 -93h352q-4 55 -17 93t-35 61t-53 33.5t-71 10.5zM355 102
q40 0 71 10.5t53 33.5t35 61t17 93h-352q4 -55 17.5 -93t35.5 -61t53 -33.5t70 -10.5z" />
    <glyph glyph-name="uni04E9" unicode="&#x4e9;" horiz-adv-x="570" 
d="M285 -13q-122 0 -184 66.5t-62 213.5q0 143 64 211t182 68q125 0 185.5 -64.5t60.5 -214.5q0 -147 -62.5 -213.5t-183.5 -66.5zM285 97q53 0 82.5 28t35.5 100h-237q7 -72 36 -100t83 -28zM285 436q-51 0 -81 -28t-37 -96h236q-7 70 -36 97t-82 27z" />
    <glyph glyph-name="uni1E9E" unicode="&#x1e9e;" horiz-adv-x="675" 
d="M79 465q0 118 65.5 183t189.5 65q72 0 137.5 -30t115.5 -96l-140 -175v-1q57 -7 92.5 -27.5t56 -48.5t28 -60t7.5 -62q0 -51 -16.5 -93t-47 -71.5t-75 -45.5t-101.5 -16q-31 0 -57.5 3.5t-46.5 9.5v112q15 -5 36.5 -7.5t39.5 -2.5q71 0 103.5 29t32.5 82q0 52 -34.5 82
t-112.5 30h-36v68l127 165q-20 18 -46 29t-62 11q-63 0 -95.5 -36t-32.5 -105v-457h-128v465z" />
    <glyph glyph-name="figuredash" unicode="&#x2012;" horiz-adv-x="650" 
d="M80 407h490v-101h-490v101z" />
    <glyph glyph-name="endash" unicode="&#x2013;" horiz-adv-x="650" 
d="M80 331h490v-101h-490v101z" />
    <glyph glyph-name="emdash" unicode="&#x2014;" horiz-adv-x="830" 
d="M80 331h670v-101h-670v101z" />
    <glyph glyph-name="quoteleft" unicode="&#x2018;" horiz-adv-x="320" 
d="M259.007 642.986q-45.9951 -12.998 -73.4912 -42.9941q-27.4971 -29.9971 -32.4961 -60.9932q80.9902 0 80.9902 -79.9902q0 -80.9902 -80.9902 -80.9902q-47.9941 0 -68.4912 28.4971q-20.498 28.4961 -20.498 82.4902q0 41.9941 12.499 77.9902
q12.498 35.9951 32.9951 64.9922q20.498 28.9961 47.9941 49.4932q27.4971 20.498 57.4932 31.4971z" />
    <glyph glyph-name="quoteright" unicode="&#x2019;" horiz-adv-x="320" 
d="M61 441q46 13 73.5 43t32.5 61q-81 0 -81 80q0 81 81 81q48 0 68.5 -28.5t20.5 -82.5q0 -42 -12.5 -78t-33 -65t-48 -49.5t-57.5 -31.5z" />
    <glyph glyph-name="quotesinglbase" unicode="&#x201a;" horiz-adv-x="330" 
d="M59 -110q46 13 73.5 43t32.5 61q-81 0 -81 80q0 81 81 81q48 0 68.5 -28.5t20.5 -82.5q0 -42 -12.5 -78t-33 -65t-48 -49.5t-57.5 -31.5z" />
    <glyph glyph-name="quotedblleft" unicode="&#x201c;" horiz-adv-x="560" 
d="M263.007 642.986q-45.9951 -12.998 -73.4912 -42.9941q-27.4971 -29.9971 -32.4961 -60.9932q80.9902 0 80.9902 -79.9902q0 -80.9902 -80.9902 -80.9902q-47.9941 0 -68.4912 28.4971q-20.498 28.4961 -20.498 82.4902q0 41.9941 12.499 77.9902
q12.498 35.9951 32.9951 64.9922q20.498 28.9961 47.9941 49.4932q27.4971 20.498 57.4932 31.4971zM496.007 642.986q-45.9951 -12.998 -73.4912 -42.9941q-27.4971 -29.9971 -32.4961 -60.9932q80.9902 0 80.9902 -79.9902q0 -80.9902 -80.9902 -80.9902
q-47.9941 0 -68.4912 28.4971q-20.498 28.4961 -20.498 82.4902q0 41.9941 12.499 77.9902q12.498 35.9951 32.9951 64.9922q20.498 28.9961 47.9941 49.4932q27.4971 20.498 57.4932 31.4971z" />
    <glyph glyph-name="quotedblright" unicode="&#x201d;" horiz-adv-x="560" 
d="M64 441q46 13 73.5 43t32.5 61q-81 0 -81 80q0 81 81 81q48 0 68.5 -28.5t20.5 -82.5q0 -42 -12.5 -78t-33 -65t-48 -49.5t-57.5 -31.5zM297 441q46 13 73.5 43t32.5 61q-81 0 -81 80q0 81 81 81q48 0 68.5 -28.5t20.5 -82.5q0 -42 -12.5 -78t-33 -65t-48 -49.5
t-57.5 -31.5z" />
    <glyph glyph-name="quotedblbase" unicode="&#x201e;" horiz-adv-x="570" 
d="M62 -110q46 13 73.5 43t32.5 61q-81 0 -81 80q0 81 81 81q48 0 68.5 -28.5t20.5 -82.5q0 -42 -12.5 -78t-33 -65t-48 -49.5t-57.5 -31.5zM296 -110q46 13 73.5 43t32.5 61q-81 0 -81 80q0 81 81 81q48 0 68.5 -28.5t20.5 -82.5q0 -42 -12.5 -78t-33 -65t-48 -49.5
t-57.5 -31.5z" />
    <glyph glyph-name="dagger" unicode="&#x2020;" horiz-adv-x="500" 
d="M189 424h-159v110h159v166h122v-166h159v-110h-159v-424h-122v424z" />
    <glyph glyph-name="daggerdbl" unicode="&#x2021;" horiz-adv-x="500" 
d="M189 166h-159v110h159v148h-159v110h159v166h122v-166h159v-110h-159v-148h159v-110h-159v-166h-122v166z" />
    <glyph glyph-name="bullet" unicode="&#x2022;" horiz-adv-x="400" 
d="M200 222q-57 0 -92.5 35.5t-35.5 92.5t35.5 92.5t92.5 35.5t92.5 -35.5t35.5 -92.5t-35.5 -92.5t-92.5 -35.5z" />
    <glyph glyph-name="ellipsis" unicode="&#x2026;" horiz-adv-x="990" 
d="M165 -6q-81 0 -81 80q0 81 81 81t81 -81q0 -80 -81 -80zM495 -6q-81 0 -81 80q0 81 81 81t81 -81q0 -80 -81 -80zM825 -6q-81 0 -81 80q0 81 81 81t81 -81q0 -80 -81 -80z" />
    <glyph glyph-name="perthousand" unicode="&#x2030;" horiz-adv-x="1260" 
d="M611 700h89l-451 -700h-89zM232 374q-82 0 -124.5 42.5t-42.5 123.5q0 80 43 123t124 43t123.5 -42.5t42.5 -123.5q0 -80 -43 -123t-123 -43zM232 452q40 0 60 20.5t20 67.5t-20 67.5t-60 20.5q-41 0 -61 -20.5t-20 -67.5t20 -67.5t61 -20.5zM628 -6q-81 0 -123.5 42.5
t-42.5 123.5q0 80 43 123t123 43q82 0 124.5 -42.5t42.5 -123.5q0 -80 -43 -123t-124 -43zM628 72q41 0 61 20.5t20 67.5t-20 67.5t-61 20.5t-60.5 -20.5t-19.5 -67.5t19.5 -67.5t60.5 -20.5zM1028 -6q-81 0 -123.5 42.5t-42.5 123.5q0 80 43 123t123 43q82 0 124.5 -42.5
t42.5 -123.5q0 -80 -43 -123t-124 -43zM1028 72q41 0 61 20.5t20 67.5t-20 67.5t-61 20.5t-60.5 -20.5t-19.5 -67.5t19.5 -67.5t60.5 -20.5z" />
    <glyph glyph-name="guilsinglleft" unicode="&#x2039;" horiz-adv-x="340" 
d="M167 496h114l-127 -211l127 -213h-117l-125 210z" />
    <glyph glyph-name="guilsinglright" unicode="&#x203a;" horiz-adv-x="340" 
d="M186 282l-127 214h117l125 -211l-128 -213h-114z" />
    <glyph glyph-name="fraction" unicode="&#x2044;" horiz-adv-x="180" 
d="M271 700h89l-451 -700h-89z" />
    <glyph glyph-name="uni2070" unicode="&#x2070;" 
d="M30 590q0 116 51 166t143 50q101 0 148.5 -50t47.5 -166q0 -59 -13 -100t-38 -67t-61 -37.5t-82 -11.5q-97 0 -146.5 50.5t-49.5 165.5zM129 590q0 -76 24 -107t74 -31q48 0 70.5 31t22.5 107t-22.5 107.5t-73.5 31.5q-48 0 -71.5 -32t-23.5 -107z" />
    <glyph glyph-name="uni2074" unicode="&#x2074;" 
d="M20 542l235 258h113v-255h57v-77h-57v-88h-95v88h-253v74zM274 719h-1l-160 -174h161v174z" />
    <glyph glyph-name="uni2075" unicode="&#x2075;" 
d="M80 800h304v-78h-233l-3 -72q20 1 41.5 1.5t50.5 0.5q86 0 125 -34.5t39 -95.5q0 -31 -11 -58t-34 -47t-59.5 -31.5t-88.5 -11.5q-35 0 -73 3.5t-73 14.5v80q35 -11 66 -14.5t69 -3.5q104 0 104 66q0 31 -24 47t-81 16q-38 0 -67.5 -1t-63.5 -3z" />
    <glyph glyph-name="uni2076" unicode="&#x2076;" 
d="M230 374q-54 0 -91 15t-60 42t-33 64.5t-10 82.5q0 47 11 88.5t36.5 72.5t67 49t103.5 18q27 0 58.5 -2.5t62.5 -10.5v-79q-30 8 -60 11t-59 3q-24 0 -47 -6t-41 -20t-29 -36.5t-12 -55.5q26 19 58.5 31t70.5 12q72 0 115 -31t43 -101q0 -69 -49 -108t-135 -39zM129 549
q2 -48 27.5 -75.5t74.5 -27.5q37 0 61.5 17.5t24.5 55.5q0 33 -22.5 48.5t-60.5 15.5q-29 0 -57 -8.5t-48 -25.5z" />
    <glyph glyph-name="uni2077" unicode="&#x2077;" 
d="M293 722h-253v78h362v-64l-186 -356h-106z" />
    <glyph glyph-name="uni2078" unicode="&#x2078;" 
d="M225 374q-94 0 -144 30t-50 92q0 40 24.5 68t71.5 36q-41 9 -62.5 34t-21.5 61q0 54 44 82.5t138 28.5t138 -28.5t44 -82.5q0 -36 -21.5 -61t-62.5 -34q47 -8 71.5 -36t24.5 -68q0 -62 -49.5 -92t-144.5 -30zM225 446q54 0 75.5 18t21.5 44t-21 42.5t-76 16.5t-76 -16.5
t-21 -42.5t21.5 -44t75.5 -18zM225 734q-50 0 -69.5 -15t-19.5 -39q0 -25 20.5 -39t68.5 -14t68.5 14t20.5 39q0 24 -19.5 39t-69.5 15z" />
    <glyph glyph-name="uni2079" unicode="&#x2079;" 
d="M216 806q56 0 94 -14.5t61 -41t33 -63.5t10 -82q0 -47 -11 -89t-35 -73.5t-63 -50t-95 -18.5q-22 0 -40 1t-34.5 3t-33 4.5t-35.5 6.5v81q34 -10 63.5 -14t68.5 -4q23 0 45 6.5t39.5 20.5t28.5 37t12 56q-24 -21 -57 -34.5t-74 -13.5q-33 0 -61.5 8t-49.5 25t-33.5 42.5
t-12.5 61.5q0 69 48 107t132 38zM322 636q-2 43 -28 70.5t-78 27.5q-35 0 -59 -17.5t-24 -53.5q0 -37 23.5 -54t60.5 -17q33 0 59.5 13t45.5 31z" />
    <glyph glyph-name="uni2080" unicode="&#x2080;" 
d="M30 111q0 116 51 166t143 50q101 0 148.5 -50t47.5 -166q0 -59 -13 -100t-38 -67t-61 -37.5t-82 -11.5q-97 0 -146.5 50.5t-49.5 165.5zM129 111q0 -76 24 -107t74 -31q48 0 70.5 31t22.5 107t-22.5 107.5t-73.5 31.5q-48 0 -71.5 -32t-23.5 -107z" />
    <glyph glyph-name="uni2081" unicode="&#x2081;" 
d="M221 218l-115 -62l-38 73l172 92h79v-420h-98v317z" />
    <glyph glyph-name="uni2082" unicode="&#x2082;" 
d="M50 -13l129 82q58 38 82 63.5t24 54.5q0 26 -20 42.5t-68 16.5q-34 0 -68.5 -6.5t-62.5 -20.5v84q37 13 71.5 18.5t73.5 5.5q90 0 132 -33t42 -90q0 -25 -8.5 -47t-27.5 -43.5t-49.5 -44t-73.5 -49.5l-59 -36v-1h223v-82h-340v86z" />
    <glyph glyph-name="uni2083" unicode="&#x2083;" 
d="M128 150h74q43 0 65 11t22 37t-21 37.5t-71 11.5q-36 0 -71 -4.5t-61 -14.5v79q35 12 78 16t81 4q46 0 78 -9t51.5 -24t28 -34.5t8.5 -40.5q0 -42 -26.5 -63.5t-75.5 -35.5v-1q66 -11 89 -38t23 -61q0 -59 -50.5 -92t-142.5 -33q-31 0 -70 3.5t-77 15.5v82
q34 -12 68.5 -16.5t66.5 -4.5q59 0 81.5 14.5t22.5 38.5q0 30 -21 42t-67 12h-83v68z" />
    <glyph glyph-name="uni2084" unicode="&#x2084;" 
d="M23 63l235 258h113v-255h57v-77h-57v-88h-95v88h-253v74zM277 240h-1l-160 -174h161v174z" />
    <glyph glyph-name="uni2085" unicode="&#x2085;" 
d="M79 321h304v-78h-233l-3 -72q20 1 41.5 1.5t50.5 0.5q86 0 125 -34.5t39 -95.5q0 -31 -11 -58t-34 -47t-59.5 -31.5t-88.5 -11.5q-35 0 -73 3.5t-73 14.5v80q35 -11 66 -14.5t69 -3.5q104 0 104 66q0 31 -24 47t-81 16q-38 0 -67.5 -1t-63.5 -3z" />
    <glyph glyph-name="uni2086" unicode="&#x2086;" 
d="M231 -105q-54 0 -91 15t-60 42t-33 64.5t-10 82.5q0 47 11 88.5t36.5 72.5t67 49t103.5 18q27 0 58.5 -2.5t62.5 -10.5v-79q-30 8 -60 11t-59 3q-24 0 -47 -6t-41 -20t-29 -36.5t-12 -55.5q26 19 58.5 31t70.5 12q72 0 115 -31t43 -101q0 -69 -49 -108t-135 -39zM130 70
q2 -48 27.5 -75.5t74.5 -27.5q37 0 61.5 17.5t24.5 55.5q0 33 -22.5 48.5t-60.5 15.5q-29 0 -57 -8.5t-48 -25.5z" />
    <glyph glyph-name="uni2087" unicode="&#x2087;" 
d="M298 243h-253v78h362v-64l-186 -356h-106z" />
    <glyph glyph-name="uni2088" unicode="&#x2088;" 
d="M225 -105q-94 0 -144 30t-50 92q0 40 24.5 68t71.5 36q-41 9 -62.5 34t-21.5 61q0 54 44 82.5t138 28.5t138 -28.5t44 -82.5q0 -36 -21.5 -61t-62.5 -34q47 -8 71.5 -36t24.5 -68q0 -62 -49.5 -92t-144.5 -30zM225 -33q54 0 75.5 18t21.5 44t-21 42.5t-76 16.5t-76 -16.5
t-21 -42.5t21.5 -44t75.5 -18zM225 255q-50 0 -69.5 -15t-19.5 -39q0 -25 20.5 -39t68.5 -14t68.5 14t20.5 39q0 24 -19.5 39t-69.5 15z" />
    <glyph glyph-name="uni2089" unicode="&#x2089;" 
d="M216 327q56 0 94 -14.5t61 -41t33 -63.5t10 -82q0 -47 -11 -89t-35 -73.5t-63 -50t-95 -18.5q-22 0 -40 1t-34.5 3t-33 4.5t-35.5 6.5v81q34 -10 63.5 -14t68.5 -4q23 0 45 6.5t39.5 20.5t28.5 37t12 56q-24 -21 -57 -34.5t-74 -13.5q-33 0 -61.5 8t-49.5 25t-33.5 42.5
t-12.5 61.5q0 69 48 107t132 38zM322 157q-2 43 -28 70.5t-78 27.5q-35 0 -59 -17.5t-24 -53.5q0 -37 23.5 -54t60.5 -17q33 0 59.5 13t45.5 31z" />
    <glyph glyph-name="Euro" unicode="&#x20ac;" horiz-adv-x="600" 
d="M59 477h63q22 125 93.5 180.5t191.5 55.5q38 0 67 -6t49 -13q23 -8 39 -18l-31 -116q-26 18 -56 26t-65 8q-61 0 -100 -26t-55 -91h255l-24 -94h-243v-28v-20t1 -18h225l-24 -94h-189q17 -66 56 -91.5t100 -25.5q54 0 87.5 14.5t55.5 32.5v-129q-14 -11 -35 -19
q-18 -7 -46 -12.5t-66 -5.5q-62 0 -110.5 12.5t-84 40.5t-58.5 73t-34 110h-86l24 94h53v38v28h-77z" />
    <glyph glyph-name="uni20B4" unicode="&#x20b4;" horiz-adv-x="600" 
d="M71 473h284q19 20 26.5 35t7.5 35q0 19 -8 31.5t-20.5 19.5t-28 9.5t-30.5 2.5q-23 0 -41.5 -1t-36 -4t-36 -7.5t-40.5 -11.5v108q51 12 101 16.5t79 4.5q64 0 103.5 -14t61.5 -36t30 -47.5t8 -48.5q0 -26 -7.5 -48.5t-21.5 -43.5h51v-93h-136l-53 -46l-13 -11h202v-93
h-292q-17 -27 -17 -56q0 -38 30.5 -59t93.5 -21q29 0 70 5t81 22v-108q-51 -15 -98 -19.5t-87 -4.5q-71 0 -116 17t-70.5 42t-35 54t-9.5 53q0 38 16 75h-48v93h120q14 14 29.5 27.5t32.5 29.5h-182v93z" />
    <glyph glyph-name="uni20B8" unicode="&#x20b8;" horiz-adv-x="600" 
d="M236 458h-196v92h520v-92h-196v-458h-128v458zM40 700h520v-92h-520v92z" />
    <glyph glyph-name="uni20BD" unicode="&#x20bd;" horiz-adv-x="600" 
d="M118 106h-85v93h85v50h-85v93h85v356q10 1 32 2t50.5 2.5t60.5 2.5t62 1q126 0 181.5 -57.5t55.5 -181.5q0 -107 -58 -162.5t-184 -55.5h-48q-13 0 -25 1v-51h177v-93h-177v-106h-127v106zM431 467q0 70 -25.5 98.5t-85.5 28.5q-13 0 -26 -0.5t-24 -0.5q-13 -1 -25 -1
v-250q13 -1 25 -1h45q61 0 88.5 29t27.5 97z" />
    <glyph glyph-name="uni2116" unicode="&#x2116;" horiz-adv-x="1080" 
d="M743 306h298v-72h-298v72zM89 700h150l230 -397q12 -22 22 -42l18 -36q9 -18 16 -36h2l-2 36q-1 16 -1.5 36t-0.5 42v397h128v-700h-150l-230 397q-13 23 -23 43l-18 36q-9 18 -15 35h-2q1 -17 2 -35q1 -16 1.5 -36t0.5 -43v-397h-128v700zM890 374q-81 0 -120.5 42.5
t-39.5 123.5q0 80 40 123t120 43q82 0 121.5 -42.5t39.5 -123.5q0 -80 -40 -123t-121 -43zM890 444q36 0 56.5 21t20.5 75t-20.5 75t-56.5 21t-56.5 -21t-20.5 -75t20.5 -75t56.5 -21z" />
    <glyph glyph-name="uni2120" unicode="&#x2120;" horiz-adv-x="780" 
d="M160 374q-25 0 -57 4.5t-59 14.5v82q18 -14 49 -22.5t66 -8.5q41 0 55 5.5t14 24.5q0 15 -14 21.5t-35 11.5t-45.5 9.5t-45.5 15t-35 28.5t-14 50q0 23 7.5 41t25 30t47 18.5t74.5 6.5q26 0 54 -4t48 -11v-75q-38 23 -103 23q-39 0 -51.5 -6.5t-12.5 -21.5t14 -21.5
t35 -10.5t45.5 -8.5t45.5 -14.5t35 -28t14 -49q0 -26 -8 -46t-26 -33t-48 -19.5t-75 -6.5zM376 700h91l91 -170h2l90 170h91v-320h-81v204h-1l-75 -133h-51l-75 133h-1v-204h-81v320z" />
    <glyph glyph-name="trademark" unicode="&#x2122;" horiz-adv-x="780" 
d="M140 630h-101v70h287v-70h-100v-250h-86v250zM376 700h91l91 -170h2l90 170h91v-320h-81v204h-1l-75 -133h-51l-75 133h-1v-204h-81v320z" />
    <glyph glyph-name="onethird" unicode="&#x2153;" horiz-adv-x="950" 
d="M615 700h89l-451 -700h-89zM186 598l-115 -62l-38 73l172 92h79v-420h-98v317zM632 250h74q43 0 65 11t22 37t-21 37.5t-71 11.5q-36 0 -71 -4.5t-61 -14.5v79q35 12 78 16t81 4q46 0 78 -9t51.5 -24t28 -34.5t8.5 -40.5q0 -42 -26.5 -63.5t-75.5 -35.5v-1q66 -11 89 -38
t23 -61q0 -59 -50.5 -92t-142.5 -33q-31 0 -70 3.5t-77 15.5v82q34 -12 68.5 -16.5t66.5 -4.5q59 0 81.5 14.5t22.5 38.5q0 30 -21 42t-67 12h-83v68z" />
    <glyph glyph-name="twothirds" unicode="&#x2154;" horiz-adv-x="950" 
d="M663 700h89l-451 -700h-89zM20 367l129 82q58 38 82 63.5t24 54.5q0 26 -20 42.5t-68 16.5q-34 0 -68.5 -6.5t-62.5 -20.5v84q37 13 71.5 18.5t73.5 5.5q90 0 132 -33t42 -90q0 -25 -8.5 -47t-27.5 -43.5t-49.5 -44t-73.5 -49.5l-59 -36v-1h223v-82h-340v86zM654 250h74
q43 0 65 11t22 37t-21 37.5t-71 11.5q-36 0 -71 -4.5t-61 -14.5v79q35 12 78 16t81 4q46 0 78 -9t51.5 -24t28 -34.5t8.5 -40.5q0 -42 -26.5 -63.5t-75.5 -35.5v-1q66 -11 89 -38t23 -61q0 -59 -50.5 -92t-142.5 -33q-31 0 -70 3.5t-77 15.5v82q34 -12 68.5 -16.5t66.5 -4.5
q59 0 81.5 14.5t22.5 38.5q0 30 -21 42t-67 12h-83v68z" />
    <glyph glyph-name="oneeighth" unicode="&#x215b;" horiz-adv-x="950" 
d="M621 700h89l-451 -700h-89zM184 598l-115 -62l-38 73l172 92h79v-420h-98v317zM730 -5q-94 0 -144 30t-50 92q0 40 24.5 68t71.5 36q-41 9 -62.5 34t-21.5 61q0 54 44 82.5t138 28.5t138 -28.5t44 -82.5q0 -36 -21.5 -61t-62.5 -34q47 -8 71.5 -36t24.5 -68
q0 -62 -49.5 -92t-144.5 -30zM730 67q54 0 75.5 18t21.5 44t-21 42.5t-76 16.5t-76 -16.5t-21 -42.5t21.5 -44t75.5 -18zM730 355q-50 0 -69.5 -15t-19.5 -39q0 -25 20.5 -39t68.5 -14t68.5 14t20.5 39q0 24 -19.5 39t-69.5 15z" />
    <glyph glyph-name="threeeighths" unicode="&#x215c;" horiz-adv-x="950" 
d="M641 700h89l-451 -700h-89zM739 -5q-94 0 -144 30t-50 92q0 40 24.5 68t71.5 36q-41 9 -62.5 34t-21.5 61q0 54 44 82.5t138 28.5t138 -28.5t44 -82.5q0 -36 -21.5 -61t-62.5 -34q47 -8 71.5 -36t24.5 -68q0 -62 -49.5 -92t-144.5 -30zM739 67q54 0 75.5 18t21.5 44
t-21 42.5t-76 16.5t-76 -16.5t-21 -42.5t21.5 -44t75.5 -18zM739 355q-50 0 -69.5 -15t-19.5 -39q0 -25 20.5 -39t68.5 -14t68.5 14t20.5 39q0 24 -19.5 39t-69.5 15zM88 530h74q43 0 65 11t22 37t-21 37.5t-71 11.5q-36 0 -71 -4.5t-61 -14.5v79q35 12 78 16t81 4
q46 0 78 -9t51.5 -24t28 -34.5t8.5 -40.5q0 -42 -26.5 -63.5t-75.5 -35.5v-1q66 -11 89 -38t23 -61q0 -59 -50.5 -92t-142.5 -33q-31 0 -70 3.5t-77 15.5v82q34 -12 68.5 -16.5t66.5 -4.5q59 0 81.5 14.5t22.5 38.5q0 30 -21 42t-67 12h-83v68z" />
    <glyph glyph-name="fiveeighths" unicode="&#x215d;" horiz-adv-x="950" 
d="M644 700h89l-451 -700h-89zM54 701h304v-78h-233l-3 -72q20 1 41.5 1.5t50.5 0.5q86 0 125 -34.5t39 -95.5q0 -31 -11 -58t-34 -47t-59.5 -31.5t-88.5 -11.5q-35 0 -73 3.5t-73 14.5v80q35 -11 66 -14.5t69 -3.5q104 0 104 66q0 31 -24 47t-81 16q-38 0 -67.5 -1
t-63.5 -3zM742 -5q-94 0 -144 30t-50 92q0 40 24.5 68t71.5 36q-41 9 -62.5 34t-21.5 61q0 54 44 82.5t138 28.5t138 -28.5t44 -82.5q0 -36 -21.5 -61t-62.5 -34q47 -8 71.5 -36t24.5 -68q0 -62 -49.5 -92t-144.5 -30zM742 67q54 0 75.5 18t21.5 44t-21 42.5t-76 16.5
t-76 -16.5t-21 -42.5t21.5 -44t75.5 -18zM742 355q-50 0 -69.5 -15t-19.5 -39q0 -25 20.5 -39t68.5 -14t68.5 14t20.5 39q0 24 -19.5 39t-69.5 15z" />
    <glyph glyph-name="seveneighths" unicode="&#x215e;" horiz-adv-x="950" 
d="M611 700h89l-451 -700h-89zM733 -5q-94 0 -144 30t-50 92q0 40 24.5 68t71.5 36q-41 9 -62.5 34t-21.5 61q0 54 44 82.5t138 28.5t138 -28.5t44 -82.5q0 -36 -21.5 -61t-62.5 -34q47 -8 71.5 -36t24.5 -68q0 -62 -49.5 -92t-144.5 -30zM733 67q54 0 75.5 18t21.5 44
t-21 42.5t-76 16.5t-76 -16.5t-21 -42.5t21.5 -44t75.5 -18zM733 355q-50 0 -69.5 -15t-19.5 -39q0 -25 20.5 -39t68.5 -14t68.5 14t20.5 39q0 24 -19.5 39t-69.5 15zM292 623h-253v78h362v-64l-186 -356h-106z" />
    <glyph glyph-name="minus" unicode="&#x2212;" horiz-adv-x="600" 
d="M90 410h420v-107h-420v107z" />
    <glyph glyph-name="infinity" unicode="&#x221e;" horiz-adv-x="720" 
d="M360 289l-52 -54q-26 -29 -57 -39t-62 -10q-39 0 -67.5 15t-47 38.5t-27 52.5t-8.5 57t8.5 57t27 53t47 39.5t67.5 15.5q28 0 59.5 -10t60.5 -39l51 -54l54 56q25 26 55.5 36.5t61.5 10.5q37 0 65 -13.5t47 -36.5t28.5 -53t9.5 -62q0 -27 -8.5 -56t-27 -53t-47 -39
t-68.5 -15q-29 0 -59.5 10.5t-58.5 39.5zM456 305q15 -16 31 -23.5t37 -7.5q32 0 49.5 21.5t17.5 53.5q0 35 -18.5 56.5t-47.5 21.5q-20 0 -38 -7.5t-38 -30.5l-37 -40zM263 396q-15 17 -30 24t-36 7q-18 0 -30.5 -6.5t-20.5 -17.5t-12 -25t-4 -29q0 -35 18.5 -55t46.5 -20
q19 0 37.5 8t38.5 28l38 39z" />
    <glyph glyph-name="approxequal" unicode="&#x2248;" horiz-adv-x="600" 
d="M90 289q19 22 44.5 37t62.5 15q34 0 61 -11.5t50.5 -25t46 -25t48.5 -11.5q34 0 62.5 18t44.5 38v-105q-19 -22 -44.5 -37t-62.5 -15q-34 0 -61 11.5t-50.5 25t-46.5 25t-48 11.5q-34 0 -62.5 -18t-44.5 -38v105zM90 502q19 22 44.5 37t62.5 15q34 0 61 -11.5t50.5 -25
t46 -25t48.5 -11.5q34 0 62.5 18t44.5 38v-105q-19 -22 -44.5 -37t-62.5 -15q-34 0 -61 11.5t-50.5 25t-46.5 25t-48 11.5q-34 0 -62.5 -18t-44.5 -38v105z" />
    <glyph glyph-name="notequal" unicode="&#x2260;" horiz-adv-x="600" 
d="M90 514h248l52 100h87l-52 -100h85v-108h-141l-55 -106h196v-107h-252l-48 -94h-87l48 94h-81v107h137l55 106h-192v108z" />
    <glyph glyph-name="lessequal" unicode="&#x2264;" horiz-adv-x="600" 
d="M90 362v117l420 185v-119l-282 -120l282 -116v-126zM90 150h420v-107h-420v107z" />
    <glyph glyph-name="greaterequal" unicode="&#x2265;" horiz-adv-x="600" 
d="M90 302l282 120l-282 116v126l420 -178v-118l-420 -185v119zM90 150h420v-107h-420v107z" />
    <glyph glyph-name="lozenge" unicode="&#x25ca;" horiz-adv-x="600" 
d="M38 350l262 363l262 -363l-262 -363zM440 350l-140 193l-140 -193l140 -194z" />
    <glyph glyph-name="uniF406" unicode="&#xf406;" horiz-adv-x="380" 
d="M190 761q-68 0 -111 34t-60 102l80 22q20 -73 91 -73q70 0 92 73l79 -22q-17 -69 -60 -102.5t-111 -33.5z" />
    <glyph glyph-name="uniF407" unicode="&#xf407;" horiz-adv-x="260" 
d="M107 -226q-52 0 -88 15l11 60q30 -12 62 -12q31 0 42.5 9.5t11.5 26.5t-11.5 26.5t-43.5 9.5q-8 0 -17.5 -0.5t-16.5 -1.5l18 96h72l-9 -46q47 -1 75 -20.5t28 -64.5t-33 -71.5t-101 -26.5z" />
    <glyph glyph-name="uniF408" unicode="&#xf408;" horiz-adv-x="420" 
d="M145 915h130l119 -150h-103l-81 85l-83 -85h-101z" />
    <glyph glyph-name="uniF409" unicode="&#xf409;" horiz-adv-x="210" 
d="M36 -178q29 1 50.5 7t26.5 29q-29 0 -47 3t-27.5 9t-13 14.5t-3.5 19.5q0 20 18.5 34.5t64.5 14.5q43 0 63 -18.5t20 -50.5q0 -22 -9.5 -42.5t-28.5 -37t-47 -26.5t-64 -11z" />
    <glyph glyph-name="uniF40A" unicode="&#xf40a;" horiz-adv-x="240" 
d="M97 700h120l-87 -214h-87z" />
    <glyph glyph-name="uniF40B" unicode="&#xf40b;" horiz-adv-x="200" 
d="M100 770q-76 0 -76 70t76 70t76 -70t-76 -70z" />
    <glyph glyph-name="uniF40C" unicode="&#xf40c;" horiz-adv-x="260" 
d="M20 840q0 47 30.5 77t79.5 30t79.5 -30t30.5 -77t-30.5 -77t-79.5 -30t-79.5 30t-30.5 77zM83 840q0 -22 12.5 -34.5t34.5 -12.5t34.5 12.5t12.5 34.5t-12.5 34.5t-34.5 12.5t-34.5 -12.5t-12.5 -34.5z" />
    <glyph glyph-name="uniF40D" unicode="&#xf40d;" horiz-adv-x="420" 
d="M27 778q3 57 33 86.5t72 29.5q21 0 41.5 -6t43.5 -17q24 -11 37.5 -16t27.5 -5q15 0 27 10t16 33l68 -12q-4 -54 -33.5 -84.5t-71.5 -30.5q-22 0 -39.5 3.5t-45.5 17.5q-21 10 -35 17t-28 7t-26.5 -10.5t-17.5 -34.5z" />
    <glyph glyph-name="uniF40E" unicode="&#xf40e;" horiz-adv-x="250" 
d="M138 -203q-63 0 -89 22.5t-26 62.5q0 46 38 82.5t113 67.5l53 -32q-54 -23 -78.5 -49.5t-24.5 -48.5q0 -15 9.5 -23.5t32.5 -8.5q32 0 61 16v-70q-16 -8 -38.5 -13.5t-50.5 -5.5z" />
    <glyph glyph-name="zero.tab" unicode="&#xf4e0;" horiz-adv-x="650" 
d="M325 -13q-56 0 -100.5 18.5t-75.5 61t-47.5 112t-16.5 171.5q0 103 16 173t46.5 112t75.5 60t102 18q60 0 105 -17t75 -58.5t45 -111.5t15 -176q0 -104 -15.5 -173.5t-46 -111.5t-75.5 -60t-103 -18zM325 106q27 0 47 9t33.5 35t20.5 74t7 126t-7 125.5t-20.5 74
t-33.5 35.5t-47 9t-47 -9t-33.5 -35.5t-20.5 -74.5t-7 -125q0 -75 7.5 -122.5t22 -74.5t34.5 -37t44 -10z" />
    <glyph glyph-name="one.tab" unicode="&#xf4e1;" horiz-adv-x="650" 
d="M129 107h182v450l-182 -119v119l220 143h89v-593h133v-107h-442v107z" />
    <glyph glyph-name="two.tab" unicode="&#xf4e2;" horiz-adv-x="650" 
d="M92 85q68 65 126.5 115.5t102 94.5t68 86t24.5 91q0 63 -30.5 92.5t-95.5 29.5q-53 0 -100 -19.5t-82 -50.5v143q39 20 92 33t113 13q66 0 110.5 -15t72.5 -42.5t40 -66t12 -85.5q0 -59 -18.5 -106t-54 -92t-86 -91t-113.5 -101h275v-114h-456v85z" />
    <glyph glyph-name="three.tab" unicode="&#xf4e3;" horiz-adv-x="650" 
d="M212 408h68q69 0 97.5 25t28.5 76q0 43 -25.5 64.5t-95.5 21.5q-56 0 -104 -17t-82 -40v130q42 18 101 30.5t116 12.5q65 0 108 -12t68.5 -35t36 -56t10.5 -75q0 -133 -130 -169q79 -10 115 -52t36 -114q0 -50 -14 -88.5t-45 -65.5t-80 -41t-118 -14q-60 0 -117 12
t-96 32v138q35 -26 86.5 -45.5t110.5 -19.5q43 0 70.5 7t43 20.5t21 33t5.5 43.5q0 22 -6.5 39.5t-22.5 29.5t-42.5 18t-66.5 6h-77v105z" />
    <glyph glyph-name="four.tab" unicode="&#xf4e4;" horiz-adv-x="650" 
d="M367 167h-309v75l278 458h158v-419h83v-114h-83v-167h-127v167zM366 281l1 285l-168 -285h167z" />
    <glyph glyph-name="five.tab" unicode="&#xf4e5;" horiz-adv-x="650" 
d="M136 700h392v-114h-296l-11 -149q18 3 48 4.5t61 1.5q61 0 104 -14t70 -41.5t39 -67t12 -90.5q0 -56 -13 -101t-44 -76.5t-82 -48.5t-127 -17q-45 0 -94.5 9t-89.5 26v131q29 -21 78 -36t100 -15q78 0 110 31.5t32 94.5q0 30 -7 51.5t-24 35.5t-45.5 20.5t-71.5 6.5
q-45 0 -91 -4.5t-74 -9.5z" />
    <glyph glyph-name="six.tab" unicode="&#xf4e6;" horiz-adv-x="650" 
d="M337 -13q-72 0 -121 21.5t-80 64.5t-44.5 106t-13.5 146q0 196 75 292t230 96q43 0 81 -7t68 -19v-130q-23 16 -59.5 28.5t-93.5 12.5q-40 0 -74.5 -13t-60 -41t-40 -70.5t-14.5 -102.5v-26q27 54 71.5 81.5t111.5 27.5q103 0 152.5 -57.5t49.5 -160.5
q0 -65 -16.5 -111.5t-47.5 -77.5t-75 -45.5t-99 -14.5zM333 95q51 0 82.5 31.5t31.5 100.5q0 70 -27.5 100t-84.5 30q-60 0 -90.5 -33t-35.5 -84q1 -63 31.5 -104t92.5 -41z" />
    <glyph glyph-name="seven.tab" unicode="&#xf4e7;" horiz-adv-x="650" 
d="M418 586h-338v114h480v-76l-255 -624h-136z" />
    <glyph glyph-name="eight.tab" unicode="&#xf4e8;" horiz-adv-x="650" 
d="M326 -13q-134 0 -193 54t-59 152q0 32 6 60t21 51t40 40t63 28q-63 17 -88.5 54.5t-25.5 103.5q0 85 55.5 134t180.5 49q122 0 177 -44.5t55 -128.5q0 -31 -5 -57t-17.5 -47t-34.5 -37.5t-55 -26.5q38 -8 63 -23t40 -37t21 -51t6 -65q0 -47 -14.5 -85t-44.5 -66
t-77.5 -43t-113.5 -15zM326 95q118 0 118 116q0 113 -118 113q-64 -1 -92 -31.5t-28 -81.5q0 -61 31 -88.5t89 -27.5zM326 408q60 1 83.5 28t23.5 74q0 51 -25 73t-83 22q-59 0 -84.5 -25t-25.5 -73t27 -74t84 -25z" />
    <glyph glyph-name="nine.tab" unicode="&#xf4e9;" horiz-adv-x="650" 
d="M268 -13q-43 0 -80.5 8t-67.5 19v131q24 -17 59.5 -30t92.5 -13q39 0 74 13t60.5 41t40.5 71t15 103v14t-1 11q-26 -54 -70.5 -81.5t-110.5 -27.5q-104 0 -154 58t-50 160q0 64 16.5 111t47.5 78t75.5 45.5t99.5 14.5q72 0 121 -22t80 -64.5t44.5 -106t13.5 -147.5
q0 -196 -75 -291t-231 -95zM316 343q62 0 93 32t34 87q-1 69 -31.5 106t-93.5 37q-51 0 -82 -31.5t-31 -100.5q0 -68 27 -99t84 -31z" />
    <glyph glyph-name="dollar.tab" unicode="&#xf4ec;" horiz-adv-x="650" 
d="M280 -11q-55 4 -100 17.5t-74 31.5v139q13 -12 33.5 -24.5t46.5 -23t58 -17t68 -6.5q64 0 90.5 22.5t26.5 61.5q0 38 -24.5 59.5t-60.5 37t-79 29.5t-79 37t-60.5 60.5t-24.5 99.5q0 84 42.5 133.5t136.5 62.5v91h100v-88q46 -3 85.5 -12.5t65.5 -21.5v-139
q-33 26 -82.5 40.5t-100.5 14.5q-34 0 -56 -5t-35 -14t-18.5 -23t-5.5 -32q0 -36 24.5 -56t60.5 -34.5t79 -28.5t79 -37.5t60.5 -63t24.5 -103.5q0 -88 -43.5 -140.5t-137.5 -65.5v-111h-100v109z" />
    <glyph glyph-name="Euro.tab" unicode="&#xf4ed;" horiz-adv-x="650" 
d="M84 477h63q22 125 93.5 180.5t191.5 55.5q38 0 67 -6t49 -13q23 -8 39 -18l-31 -116q-26 18 -56 26t-65 8q-61 0 -100 -26t-55 -91h255l-24 -94h-243v-28v-20t1 -18h225l-24 -94h-189q17 -66 56 -91.5t100 -25.5q54 0 87.5 14.5t55.5 32.5v-129q-14 -11 -35 -19
q-18 -7 -46 -12.5t-66 -5.5q-62 0 -110.5 12.5t-84 40.5t-58.5 73t-34 110h-86l24 94h53v38v28h-77z" />
    <glyph glyph-name="cent.tab" unicode="&#xf4ee;" horiz-adv-x="650" 
d="M316 -8q-101 15 -146.5 81.5t-45.5 198.5q0 121 47.5 186.5t144.5 81.5v94h101v-89q58 -3 90 -14.5t37 -13.5v-127q-24 18 -59 32t-85 14q-79 0 -114.5 -37.5t-35.5 -126.5q0 -95 38 -135t122 -40q43 0 81.5 14t58.5 32v-120q-5 -4 -39 -17.5t-94 -17.5v-108h-101v112z
" />
    <glyph glyph-name="sterling.tab" unicode="&#xf4ef;" horiz-adv-x="650" 
d="M73 110h100v200h-100v93h100v75q0 42 11.5 83.5t39 75.5t74 55t116.5 21q44 0 82.5 -7.5t70.5 -16.5v-111q-34 11 -64.5 18t-68.5 7q-69 0 -101.5 -37.5t-32.5 -97.5v-65h174v-93h-174v-200h267v-110h-494v110z" />
    <glyph glyph-name="yen.tab" unicode="&#xf4fa;" horiz-adv-x="650" 
d="M99 349h120l-179 351h146l145 -301l139 301h140l-171 -351h122v-92h-167v-58h167v-92h-167v-107h-128v107h-167v92h167v58h-167v92z" />
    <glyph glyph-name="florin.tab" unicode="&#xf4fb;" horiz-adv-x="650" 
d="M171 534h109l9 46q18 88 71 135.5t144 47.5q23 0 41.5 -2t38.5 -6l-22 -108q-6 2 -17.5 4.5t-27.5 2.5q-48 0 -70 -22t-33 -76l-5 -22h131l-22 -109h-130l-80 -400q-10 -51 -26 -90.5t-41.5 -66.5t-61.5 -40.5t-86 -13.5q-19 0 -36 2t-28 4l22 106q16 -3 35 -3
q16 0 30 3.5t25.5 14t21 30t15.5 51.5l80 403h-109z" />
    <glyph glyph-name="uni20B4.tab" unicode="&#xf4fc;" horiz-adv-x="650" 
d="M96 473h284q19 20 26.5 35t7.5 35q0 19 -8 31.5t-20.5 19.5t-28 9.5t-30.5 2.5q-23 0 -41.5 -1t-36 -4t-36 -7.5t-40.5 -11.5v108q51 12 101 16.5t79 4.5q64 0 103.5 -14t61.5 -36t30 -47.5t8 -48.5q0 -26 -7.5 -48.5t-21.5 -43.5h51v-93h-136l-53 -46l-13 -11h202v-93
h-292q-17 -27 -17 -56q0 -38 30.5 -59t93.5 -21q29 0 70 5t81 22v-108q-51 -15 -98 -19.5t-87 -4.5q-71 0 -116 17t-70.5 42t-35 54t-9.5 53q0 38 16 75h-48v93h120q14 14 29.5 27.5t32.5 29.5h-182v93z" />
    <glyph glyph-name="uni20BD.tab" unicode="&#xf4fd;" horiz-adv-x="650" 
d="M143 106h-85v93h85v50h-85v93h85v356q10 1 32 2t50.5 2.5t60.5 2.5t62 1q126 0 181.5 -57.5t55.5 -181.5q0 -107 -58 -162.5t-184 -55.5h-48q-13 0 -25 1v-51h177v-93h-177v-106h-127v106zM456 467q0 70 -25.5 98.5t-85.5 28.5q-13 0 -26 -0.5t-24 -0.5q-13 -1 -25 -1
v-250q13 -1 25 -1h45q61 0 88.5 29t27.5 97z" />
    <glyph glyph-name="uni20B8.tab" unicode="&#xf5f3;" horiz-adv-x="650" 
d="M261 458h-196v92h520v-92h-196v-458h-128v458zM65 700h520v-92h-520v92z" />
    <glyph glyph-name="zero.denominator" unicode="&#xf655;" 
d="M30 211q0 116 51 166t143 50q101 0 148.5 -50t47.5 -166q0 -59 -13 -100t-38 -67t-61 -37.5t-82 -11.5q-97 0 -146.5 50.5t-49.5 165.5zM129 211q0 -76 24 -107t74 -31q48 0 70.5 31t22.5 107t-22.5 107.5t-73.5 31.5q-48 0 -71.5 -32t-23.5 -107z" />
    <glyph glyph-name="one.denominator" unicode="&#xf656;" 
d="M221 318l-115 -62l-38 73l172 92h79v-420h-98v317z" />
    <glyph glyph-name="two.denominator" unicode="&#xf657;" 
d="M50 87l129 82q58 38 82 63.5t24 54.5q0 26 -20 42.5t-68 16.5q-34 0 -68.5 -6.5t-62.5 -20.5v84q37 13 71.5 18.5t73.5 5.5q90 0 132 -33t42 -90q0 -25 -8.5 -47t-27.5 -43.5t-49.5 -44t-73.5 -49.5l-59 -36v-1h223v-82h-340v86z" />
    <glyph glyph-name="three.denominator" unicode="&#xf658;" 
d="M128 250h74q43 0 65 11t22 37t-21 37.5t-71 11.5q-36 0 -71 -4.5t-61 -14.5v79q35 12 78 16t81 4q46 0 78 -9t51.5 -24t28 -34.5t8.5 -40.5q0 -42 -26.5 -63.5t-75.5 -35.5v-1q66 -11 89 -38t23 -61q0 -59 -50.5 -92t-142.5 -33q-31 0 -70 3.5t-77 15.5v82
q34 -12 68.5 -16.5t66.5 -4.5q59 0 81.5 14.5t22.5 38.5q0 30 -21 42t-67 12h-83v68z" />
    <glyph glyph-name="four.denominator" unicode="&#xf659;" 
d="M23 163l235 258h113v-255h57v-77h-57v-88h-95v88h-253v74zM277 340h-1l-160 -174h161v174z" />
    <glyph glyph-name="five.denominator" unicode="&#xf65a;" 
d="M79 421h304v-78h-233l-3 -72q20 1 41.5 1.5t50.5 0.5q86 0 125 -34.5t39 -95.5q0 -31 -11 -58t-34 -47t-59.5 -31.5t-88.5 -11.5q-35 0 -73 3.5t-73 14.5v80q35 -11 66 -14.5t69 -3.5q104 0 104 66q0 31 -24 47t-81 16q-38 0 -67.5 -1t-63.5 -3z" />
    <glyph glyph-name="six.denominator" unicode="&#xf65b;" 
d="M231 -5q-54 0 -91 15t-60 42t-33 64.5t-10 82.5q0 47 11 88.5t36.5 72.5t67 49t103.5 18q27 0 58.5 -2.5t62.5 -10.5v-79q-30 8 -60 11t-59 3q-24 0 -47 -6t-41 -20t-29 -36.5t-12 -55.5q26 19 58.5 31t70.5 12q72 0 115 -31t43 -101q0 -69 -49 -108t-135 -39zM130 170
q2 -48 27.5 -75.5t74.5 -27.5q37 0 61.5 17.5t24.5 55.5q0 33 -22.5 48.5t-60.5 15.5q-29 0 -57 -8.5t-48 -25.5z" />
    <glyph glyph-name="seven.denominator" unicode="&#xf65c;" 
d="M298 343h-253v78h362v-64l-186 -356h-106z" />
    <glyph glyph-name="eight.denominator" unicode="&#xf65d;" 
d="M225 -5q-94 0 -144 30t-50 92q0 40 24.5 68t71.5 36q-41 9 -62.5 34t-21.5 61q0 54 44 82.5t138 28.5t138 -28.5t44 -82.5q0 -36 -21.5 -61t-62.5 -34q47 -8 71.5 -36t24.5 -68q0 -62 -49.5 -92t-144.5 -30zM225 67q54 0 75.5 18t21.5 44t-21 42.5t-76 16.5t-76 -16.5
t-21 -42.5t21.5 -44t75.5 -18zM225 355q-50 0 -69.5 -15t-19.5 -39q0 -25 20.5 -39t68.5 -14t68.5 14t20.5 39q0 24 -19.5 39t-69.5 15z" />
    <glyph glyph-name="nine.denominator" unicode="&#xf65e;" 
d="M216 427q56 0 94 -14.5t61 -41t33 -63.5t10 -82q0 -47 -11 -89t-35 -73.5t-63 -50t-95 -18.5q-22 0 -40 1t-34.5 3t-33 4.5t-35.5 6.5v81q34 -10 63.5 -14t68.5 -4q23 0 45 6.5t39.5 20.5t28.5 37t12 56q-24 -21 -57 -34.5t-74 -13.5q-33 0 -61.5 8t-49.5 25t-33.5 42.5
t-12.5 61.5q0 69 48 107t132 38zM322 257q-2 43 -28 70.5t-78 27.5q-35 0 -59 -17.5t-24 -53.5q0 -37 23.5 -54t60.5 -17q33 0 59.5 13t45.5 31z" />
    <glyph glyph-name="zero.numerator" unicode="&#xf661;" 
d="M30 491q0 116 51 166t143 50q101 0 148.5 -50t47.5 -166q0 -59 -13 -100t-38 -67t-61 -37.5t-82 -11.5q-97 0 -146.5 50.5t-49.5 165.5zM129 491q0 -76 24 -107t74 -31q48 0 70.5 31t22.5 107t-22.5 107.5t-73.5 31.5q-48 0 -71.5 -32t-23.5 -107z" />
    <glyph glyph-name="one.numerator" unicode="&#xf662;" 
d="M221 598l-115 -62l-38 73l172 92h79v-420h-98v317z" />
    <glyph glyph-name="two.numerator" unicode="&#xf663;" 
d="M50 367l129 82q58 38 82 63.5t24 54.5q0 26 -20 42.5t-68 16.5q-34 0 -68.5 -6.5t-62.5 -20.5v84q37 13 71.5 18.5t73.5 5.5q90 0 132 -33t42 -90q0 -25 -8.5 -47t-27.5 -43.5t-49.5 -44t-73.5 -49.5l-59 -36v-1h223v-82h-340v86z" />
    <glyph glyph-name="three.numerator" unicode="&#xf664;" 
d="M128 530h74q43 0 65 11t22 37t-21 37.5t-71 11.5q-36 0 -71 -4.5t-61 -14.5v79q35 12 78 16t81 4q46 0 78 -9t51.5 -24t28 -34.5t8.5 -40.5q0 -42 -26.5 -63.5t-75.5 -35.5v-1q66 -11 89 -38t23 -61q0 -59 -50.5 -92t-142.5 -33q-31 0 -70 3.5t-77 15.5v82
q34 -12 68.5 -16.5t66.5 -4.5q59 0 81.5 14.5t22.5 38.5q0 30 -21 42t-67 12h-83v68z" />
    <glyph glyph-name="four.numerator" unicode="&#xf665;" 
d="M23 443l235 258h113v-255h57v-77h-57v-88h-95v88h-253v74zM277 620h-1l-160 -174h161v174z" />
    <glyph glyph-name="five.numerator" unicode="&#xf666;" 
d="M79 701h304v-78h-233l-3 -72q20 1 41.5 1.5t50.5 0.5q86 0 125 -34.5t39 -95.5q0 -31 -11 -58t-34 -47t-59.5 -31.5t-88.5 -11.5q-35 0 -73 3.5t-73 14.5v80q35 -11 66 -14.5t69 -3.5q104 0 104 66q0 31 -24 47t-81 16q-38 0 -67.5 -1t-63.5 -3z" />
    <glyph glyph-name="six.numerator" unicode="&#xf667;" 
d="M231 275q-54 0 -91 15t-60 42t-33 64.5t-10 82.5q0 47 11 88.5t36.5 72.5t67 49t103.5 18q27 0 58.5 -2.5t62.5 -10.5v-79q-30 8 -60 11t-59 3q-24 0 -47 -6t-41 -20t-29 -36.5t-12 -55.5q26 19 58.5 31t70.5 12q72 0 115 -31t43 -101q0 -69 -49 -108t-135 -39zM130 450
q2 -48 27.5 -75.5t74.5 -27.5q37 0 61.5 17.5t24.5 55.5q0 33 -22.5 48.5t-60.5 15.5q-29 0 -57 -8.5t-48 -25.5z" />
    <glyph glyph-name="seven.numerator" unicode="&#xf668;" 
d="M298 623h-253v78h362v-64l-186 -356h-106z" />
    <glyph glyph-name="eight.numerator" unicode="&#xf669;" 
d="M225 275q-94 0 -144 30t-50 92q0 40 24.5 68t71.5 36q-41 9 -62.5 34t-21.5 61q0 54 44 82.5t138 28.5t138 -28.5t44 -82.5q0 -36 -21.5 -61t-62.5 -34q47 -8 71.5 -36t24.5 -68q0 -62 -49.5 -92t-144.5 -30zM225 347q54 0 75.5 18t21.5 44t-21 42.5t-76 16.5t-76 -16.5
t-21 -42.5t21.5 -44t75.5 -18zM225 635q-50 0 -69.5 -15t-19.5 -39q0 -25 20.5 -39t68.5 -14t68.5 14t20.5 39q0 24 -19.5 39t-69.5 15z" />
    <glyph glyph-name="nine.numerator" unicode="&#xf66a;" 
d="M216 707q56 0 94 -14.5t61 -41t33 -63.5t10 -82q0 -47 -11 -89t-35 -73.5t-63 -50t-95 -18.5q-22 0 -40 1t-34.5 3t-33 4.5t-35.5 6.5v81q34 -10 63.5 -14t68.5 -4q23 0 45 6.5t39.5 20.5t28.5 37t12 56q-24 -21 -57 -34.5t-74 -13.5q-33 0 -61.5 8t-49.5 25t-33.5 42.5
t-12.5 61.5q0 69 48 107t132 38zM322 537q-2 43 -28 70.5t-78 27.5q-35 0 -59 -17.5t-24 -53.5q0 -37 23.5 -54t60.5 -17q33 0 59.5 13t45.5 31z" />
    <glyph glyph-name="uniF6BA" unicode="&#xf6ba;" horiz-adv-x="400" 
d="M40 410h320v-107h-320v107z" />
    <glyph glyph-name="uniF6BB" unicode="&#xf6bb;" horiz-adv-x="650" 
d="M80 407h490v-101h-490v101z" />
    <glyph glyph-name="uniF6BC" unicode="&#xf6bc;" horiz-adv-x="830" 
d="M80 407h670v-101h-670v101z" />
    <glyph glyph-name="uniF6C3" unicode="&#xf6c3;" horiz-adv-x="200" 
d="M35 -179q32 2 51 9.5t23 28.5q-53 0 -70.5 11.5t-17.5 33.5q0 20 18 34.5t61 14.5q40 0 59.5 -19t19.5 -51q0 -21 -8.5 -41.5t-25.5 -36.5t-43.5 -26.5t-63.5 -11.5z" />
    <glyph glyph-name="uniF6C9" unicode="&#xf6c9;" horiz-adv-x="310" 
d="M123 915h158l-152 -150h-100z" />
    <glyph glyph-name="uniF6CA" unicode="&#xf6ca;" horiz-adv-x="420" 
d="M26 915h103l81 -85l83 85h101l-119 -150h-130z" />
    <glyph glyph-name="uniF6CB" unicode="&#xf6cb;" horiz-adv-x="420" 
d="M102 773q-73 0 -73 67t73 67t73 -67t-73 -67zM319 773q-73 0 -73 67t73 67t73 -67t-73 -67z" />
    <glyph glyph-name="uniF6CE" unicode="&#xf6ce;" horiz-adv-x="310" 
d="M29 915h160l92 -150h-102z" />
    <glyph glyph-name="uniF6CF" unicode="&#xf6cf;" horiz-adv-x="480" 
d="M89 915h130l-97 -150h-90zM301 915h147l-152 -150h-102z" />
    <glyph glyph-name="uniF6D0" unicode="&#xf6d0;" horiz-adv-x="360" 
d="M23 874h314v-88h-314v88z" />
    <glyph glyph-name="uniF6D1" unicode="&#xf6d1;" horiz-adv-x="400" 
d="M200 765q-38 0 -70 7.5t-55.5 25t-37.5 46.5t-14 71h98q1 -45 20 -61t59 -16t60 16t22 61h95q-1 -42 -14.5 -71t-37 -46.5t-56 -25t-69.5 -7.5z" />
    <glyph glyph-name="uniF6D4" unicode="&#xf6d4;" horiz-adv-x="380" 
d="M190 618q-38 0 -68.5 7.5t-52.5 25t-34 46.5t-14 72h98q4 -45 20.5 -62t50.5 -17t51.5 17t22.5 62h95q-2 -43 -14.5 -72t-34 -46.5t-52 -25t-68.5 -7.5z" />
    <glyph glyph-name="uniFEFF" unicode="&#xfeff;" horiz-adv-x="0" 
 />
    <glyph glyph-name="cyrbreve" horiz-adv-x="500" 
d="M442 8v496h-384v-496h384zM50 512h400v-512h-400v512z" />
    <glyph glyph-name="percent.tab" horiz-adv-x="650" 
d="M524 700h86l-484 -700h-86zM162 374q-68 0 -102.5 38t-34.5 128q0 88 35.5 127t101.5 39q67 0 101.5 -38t34.5 -128q0 -88 -35.5 -127t-100.5 -39zM162 449q12 0 22 4t16.5 14t10.5 27.5t4 45.5q0 56 -14 73.5t-39 17.5q-26 0 -40 -18t-14 -73q0 -28 3.5 -46t10.5 -28
t17 -13.5t23 -3.5zM488 -6q-67 0 -101.5 38t-34.5 128q0 88 35.5 127t100.5 39q68 0 102.5 -38t34.5 -128q0 -88 -35.5 -127t-101.5 -39zM488 69q12 0 22 4t17 14t11 27.5t4 45.5t-3.5 46t-10.5 28t-17 13.5t-23 3.5q-25 0 -39 -18t-14 -73q0 -56 14 -73.5t39 -17.5z" />
    <glyph glyph-name="plus.tab" horiz-adv-x="650" 
d="M115 410h156v157h108v-157h156v-107h-156v-157h-108v157h-156v107z" />
    <glyph glyph-name="less.tab" horiz-adv-x="650" 
d="M115 294v118l420 202v-122l-296 -135l296 -135v-130z" />
    <glyph glyph-name="equal.tab" horiz-adv-x="650" 
d="M115 300h420v-107h-420v107zM115 514h420v-108h-420v108z" />
    <glyph glyph-name="greater.tab" horiz-adv-x="650" 
d="M535 412v-118l-420 -202v122l296 135l-296 136v129z" />
    <glyph glyph-name="multiply.tab" horiz-adv-x="650" 
d="M126 233l127 127l-127 127l72 72l127 -127l127 127l72 -72l-127 -127l127 -127l-72 -72l-127 127l-127 -127z" />
    <glyph glyph-name="divide.tab" horiz-adv-x="650" 
d="M115 410h420v-107h-420v107zM325 85q-81 0 -81 81t81 81t81 -81t-81 -81zM325 466q-40 0 -60.5 21t-20.5 60q0 81 81 81t81 -81q0 -39 -20.5 -60t-60.5 -21z" />
    <glyph glyph-name="perthousand.tab" horiz-adv-x="650" 
d="M53 252l-28 59l460 220l27 -60zM20 565q0 73 31 108t88 35q56 0 89.5 -33t33.5 -110q0 -78 -31.5 -111.5t-86.5 -33.5q-60 0 -92 33.5t-32 111.5zM95 565q0 -40 12.5 -55t35.5 -15q21 0 32.5 14t12.5 56q0 38 -11.5 53t-35.5 15q-23 0 -34.5 -15t-11.5 -53zM115 137
q0 73 31.5 108t88.5 35q56 0 89.5 -33t33.5 -110q0 -78 -32 -111.5t-86 -33.5q-60 0 -92.5 33.5t-32.5 111.5zM191 137q0 -40 12.5 -55t35.5 -15q21 0 32 14t12 56q0 38 -11 53t-35 15q-23 0 -34.5 -15t-11.5 -53zM388 137q0 73 31 108t88 35q56 0 89.5 -33t33.5 -110
q0 -78 -32 -111.5t-86 -33.5q-60 0 -92 33.5t-32 111.5zM463 137q0 -40 12.5 -55t35.5 -15q21 0 32 14t12 56q0 38 -11 53t-35 15q-23 0 -34.5 -15t-11.5 -53z" />
    <glyph glyph-name="minus.tab" horiz-adv-x="650" 
d="M115 410h420v-107h-420v107z" />
    <glyph glyph-name="f_b" horiz-adv-x="965" 
d="M719 -13q-33 0 -58 8t-43.5 20.5t-31 29t-20.5 33.5l-5 -78h-117v647q-32 2 -64.5 4t-59.5 2q-46 0 -64 -17t-18 -57v-45h103v-107h-103v-427h-122v427h-86v107h86v59q0 45 9.5 77t30.5 52.5t56 30.5t86 10q36 0 83.5 -1.5t88.5 -4.5h96v-303q10 19 24.5 36t34.5 29.5
t46.5 19.5t60.5 7q49 0 85.5 -15t60.5 -47.5t36 -84.5t12 -127q0 -153 -51.5 -219t-155.5 -66zM690 97q29 0 51 8t36.5 28.5t22 54t7.5 84.5q0 47 -7.5 78.5t-21.5 50.5t-35.5 27t-49.5 8q-58 0 -89 -33.5t-31 -107.5v-56q0 -73 31.5 -107.5t85.5 -34.5z" />
    <glyph glyph-name="f_f_b" horiz-adv-x="1295" 
d="M446 427h-208v-427h-122v427h-86v107h86v59q0 90 37.5 130t127.5 40q23 0 42 -2t34 -5v-112q-11 4 -24 6.5t-30 2.5q-34 0 -49.5 -18t-15.5 -59v-42h208v59q0 45 9.5 77t30.5 52.5t56 30.5t86 10q36 0 83.5 -1.5t88.5 -4.5h96v-303q10 19 24.5 36t34.5 29.5t46.5 19.5
t60.5 7q49 0 85.5 -15t60.5 -47.5t36 -84.5t12 -127q0 -153 -51.5 -219t-155.5 -66q-33 0 -58 8t-43.5 20.5t-31 29t-20.5 33.5l-5 -78h-117v647q-32 2 -64.5 4t-59.5 2q-46 0 -64 -17t-18 -57v-45h103v-107h-103v-427h-122v427zM1020 97q29 0 51 8t36.5 28.5t22 54
t7.5 84.5q0 47 -7.5 78.5t-21.5 50.5t-35.5 27t-49.5 8q-58 0 -89 -33.5t-31 -107.5v-56q0 -73 31.5 -107.5t85.5 -34.5z" />
    <glyph glyph-name="f_f_h" horiz-adv-x="1290" 
d="M446 427h-208v-427h-122v427h-86v107h86v59q0 90 37.5 130t127.5 40q23 0 42 -2t34 -5v-112q-11 4 -24 6.5t-30 2.5q-34 0 -49.5 -18t-15.5 -59v-42h208v59q0 45 9.5 77t30.5 52.5t56 30.5t86 10q36 0 83.5 -1.5t88.5 -4.5h96v-305q43 94 156 94q85 0 129.5 -45.5
t44.5 -149.5v-351h-122v307q0 75 -24 102t-77 27q-51 0 -79 -30.5t-28 -98.5v-307h-122v647q-32 2 -64.5 4t-59.5 2q-46 0 -64 -17t-18 -57v-45h103v-107h-103v-427h-122v427z" />
    <glyph glyph-name="f_f_j" horiz-adv-x="955" 
d="M439 427h-201v-427h-122v427h-86v107h86v59q0 90 37.5 130t127.5 40q23 0 42 -2t34 -5v-112q-11 4 -24 6.5t-30 2.5q-34 0 -49.5 -18t-15.5 -59v-42h201v59q0 90 37.5 130t127.5 40q23 0 42 -2t34 -5v-112q-10 4 -23.5 6.5t-30.5 2.5q-34 0 -49.5 -18t-15.5 -59v-42h325
v-550q0 -92 -36 -131t-108 -39q-30 0 -53.5 5t-26.5 7v114q10 -7 23 -11.5t28 -4.5q26 0 38.5 14t12.5 52v437h-203v-427h-122v427zM825 626q-74 0 -74 68t74 68q73 0 73 -68t-73 -68z" />
    <glyph glyph-name="f_f_k" horiz-adv-x="1250" 
d="M438 427h-200v-427h-122v427h-86v107h86v59q0 90 37.5 130t127.5 40q23 0 42 -2t34 -5v-112q-11 4 -24 6.5t-30 2.5q-34 0 -49.5 -18t-15.5 -59v-42h200v59q0 45 9.5 77t30.5 52.5t56 30.5t86 10q36 0 82.5 -1.5t87.5 -4.5h96v-427h49l136 204h137l-177 -254l195 -280
h-142l-148 223h-50v-223h-122v647q-32 2 -63.5 4t-58.5 2q-46 0 -64 -17t-18 -57v-45h103v-107h-103v-427h-122v427z" />
    <glyph glyph-name="f_h" horiz-adv-x="960" 
d="M444 647q-32 2 -64.5 4t-59.5 2q-46 0 -64 -17t-18 -57v-45h103v-107h-103v-427h-122v427h-86v107h86v59q0 45 9.5 77t30.5 52.5t56 30.5t86 10q36 0 83.5 -1.5t88.5 -4.5h96v-305q43 94 156 94q85 0 129.5 -45.5t44.5 -149.5v-351h-122v307q0 75 -24 102t-77 27
q-51 0 -79 -30.5t-28 -98.5v-307h-122v647z" />
    <glyph glyph-name="f_j" horiz-adv-x="635" 
d="M422 -186q-30 0 -53.5 5t-26.5 7v114q10 -7 23 -11.5t28 -4.5q26 0 38.5 14t12.5 52v437h-206v-427h-122v427h-86v107h86v59q0 90 37.5 130t127.5 40q23 0 42 -2t34 -5v-112q-11 4 -24 6.5t-30 2.5q-34 0 -49.5 -18t-15.5 -59v-42h328v-550q0 -92 -36 -131t-108 -39z
M505 626q-74 0 -74 68t74 68q73 0 73 -68t-73 -68z" />
    <glyph glyph-name="f_k" horiz-adv-x="930" 
d="M444 647q-32 2 -64.5 4t-59.5 2q-46 0 -64 -17t-18 -57v-45h103v-107h-103v-427h-122v427h-86v107h86v59q0 45 9.5 77t30.5 52.5t56 30.5t86 10q36 0 83.5 -1.5t88.5 -4.5h96v-427h49l136 204h137l-177 -254l195 -280h-142l-148 223h-50v-223h-122v647z" />
    </font>
</defs>
</svg>
