<svg width="92" height="58" viewBox="0 0 92 58" fill="none" xmlns="http://www.w3.org/2000/svg">
<g clip-path="url(#clip0_2958_63589)">
<path fill-rule="evenodd" clip-rule="evenodd" d="M64.5922 7.34399C63.5914 7.70911 63.1045 8.04718 62.4015 8.84502C61.306 10.0891 60.4677 12.5503 60.3053 14.9979L60.2782 15.4712L49.6491 15.5118L38.8443 15.5388V17.8782C38.8318 18.8115 38.8376 19.8818 38.8416 20.6283V20.6304C38.843 20.9051 38.8443 21.1359 38.8443 21.2995V22.3949L40.7781 22.4761C46.2818 22.706 50.1901 24.7074 51.8804 28.1421C52.7188 29.846 52.9623 31.0766 52.8677 33.1861C52.7865 34.9847 52.5972 35.7691 51.8399 37.3106C51.3124 38.3926 50.0278 39.8935 49.0271 40.5833C47.6072 41.5434 45.457 42.4088 43.6854 42.7198C43.5513 42.7435 43.4091 42.7683 43.2699 42.7926C42.9324 42.8515 42.612 42.9075 42.4684 42.9362L42.0897 43.0173V44.7618V46.5062H47.8371H53.5843V48.8727V51.2393L69.0412 51.2122L84.4846 51.1716L84.5522 44.613L84.6198 38.0545L85.5664 37.9598C86.797 37.838 87.5408 37.6487 88.3927 37.216C90.1778 36.3235 91.1379 35.2146 91.5436 33.6054C92.125 31.2525 90.9215 28.7643 88.6902 27.6689C88.0266 27.3431 86.5232 26.9851 85.5826 26.9117H84.3836V15.5524H84.417V15.5388L78.3721 15.5118L72.3274 15.4712L72.1515 14.1325C71.8811 11.9688 71.3537 10.4813 70.3936 9.15605C69.758 8.27707 69.0412 7.74967 67.9594 7.3575C66.7829 6.92478 65.7145 6.92478 64.5922 7.34399ZM70.353 21.6106C73.044 22.422 74.4639 24.0042 74.8426 26.587C75.1941 29.0212 74.3287 31.1848 72.5573 32.3072L71.9893 32.6723L72.6653 32.9834C74.3287 33.7677 75.2213 35.4716 75.2213 37.8786C75.2213 41.2323 73.8149 43.2743 70.7991 44.302C70.2583 44.4913 69.2981 44.5319 64.7138 44.5724L59.2641 44.6266V32.9158V21.1914L64.3081 21.2455C69.0548 21.2995 69.3929 21.3267 70.353 21.6106ZM64.3034 40.7185V37.6623V34.6061H66.3995C68.712 34.6061 69.0095 34.6738 69.6179 35.404C70.3347 36.2695 70.4564 38.3655 69.8344 39.4879C69.2798 40.4886 68.8877 40.6103 66.4401 40.6643L64.3034 40.7185ZM64.4117 25.2212C64.344 25.2754 64.3034 26.6276 64.3034 28.2233V31.1172L66.1696 31.063C67.8464 31.0224 68.0764 30.9954 68.6172 30.6845C69.388 30.2518 69.7532 29.5485 69.8208 28.3856C69.9154 26.8439 69.4693 25.8568 68.5091 25.4376C67.9816 25.2212 64.5873 25.0319 64.4117 25.2212ZM0.0390625 15.2799H35.9935V28.8197C37.9881 27.8224 42.7482 26.7709 45.8316 30.5439C46.6429 31.9637 47.4035 35.3208 43.9552 37.3897C43.0085 37.5419 40.5473 38.1099 38.2756 39.1647C35.8645 40.2841 35.9757 43.2675 36.1572 48.1462C36.1896 49.0139 36.2241 49.9416 36.247 50.9296V51.1831H24.0255C23.8903 53.4312 22.3116 57.8262 17.0781 57.4205C15.5906 57.3699 12.5039 56.0513 12.0577 51.1831H0.0390625V15.2799ZM23.0387 21.9463C25.7298 22.7577 27.1496 24.3399 27.5283 26.9227C27.8799 29.3569 27.0144 31.5205 25.243 32.6429L24.675 33.008L25.3511 33.319C27.0144 34.1034 27.907 35.8072 27.907 38.2143C27.907 41.568 26.5006 43.6099 23.4849 44.6377C22.9441 44.827 21.9838 44.8676 17.3995 44.9081L11.9497 44.9623V21.5271L16.9938 21.5812C21.7405 21.6352 22.0786 21.6622 23.0387 21.9463ZM17.0298 27.9559C17.0298 26.3602 17.0704 25.0078 17.138 24.9538C17.3138 24.7645 20.7081 24.9538 21.2355 25.1702C22.1956 25.5894 22.6419 26.5765 22.5473 28.1182C22.4796 29.2812 22.1145 29.9844 21.3437 30.4171C20.8027 30.7281 20.5728 30.7551 18.8959 30.7957L17.0298 30.8499V27.9559ZM17.0298 40.4511V37.395V34.3388H19.126C21.4383 34.3388 21.7358 34.4064 22.3444 35.1366C23.061 36.0021 23.1828 38.0982 22.5607 39.2205C22.0063 40.2213 21.6142 40.3429 19.1664 40.3969L17.0298 40.4511Z" fill="url(#paint0_linear_2958_63589)"/>
<path d="M7.2703 11.543L4.08641 7.2184L5.10174 6.59165L8.69928 11.543H7.2703ZM1.36631 11.543V2.76847H2.59474V11.543H1.36631ZM2.21869 7.68219V6.57911H5.06414V7.68219H2.21869ZM5.21456 7.29361L4.06134 7.11812L7.20762 2.76847H8.54886L5.21456 7.29361ZM13.9431 11.543V10.139L13.8804 9.87581V7.48163C13.8804 6.97188 13.73 6.57911 13.4292 6.30334C13.1367 6.01922 12.6938 5.87715 12.1005 5.87715C11.7077 5.87715 11.3233 5.94401 10.9473 6.07771C10.5712 6.20306 10.2537 6.37437 9.9946 6.59165L9.4932 5.68913C9.83582 5.41336 10.2453 5.20444 10.7216 5.06238C11.2063 4.91196 11.7119 4.83675 12.2384 4.83675C13.1492 4.83675 13.8512 5.0582 14.3442 5.5011C14.8373 5.94401 15.0838 6.6209 15.0838 7.53177V11.543H13.9431ZM11.762 11.6182C11.269 11.6182 10.8344 11.5346 10.4584 11.3675C10.0907 11.2003 9.80657 10.9705 9.60601 10.6781C9.40545 10.3772 9.30517 10.0388 9.30517 9.66272C9.30517 9.30338 9.38874 8.97747 9.55587 8.68499C9.73136 8.39251 10.0113 8.15852 10.3957 7.98303C10.7885 7.80754 11.315 7.7198 11.9751 7.7198H14.081V8.58471H12.0253C11.4236 8.58471 11.0183 8.68499 10.8094 8.88555C10.6005 9.08611 10.496 9.32845 10.496 9.61258C10.496 9.93849 10.6255 10.2017 10.8846 10.4023C11.1436 10.5945 11.503 10.6906 11.9626 10.6906C12.4139 10.6906 12.8066 10.5903 13.1409 10.3897C13.4835 10.1892 13.73 9.89671 13.8804 9.5123L14.1186 10.3396C13.9598 10.7324 13.6799 11.0457 13.2788 11.2797C12.8776 11.5054 12.3721 11.6182 11.762 11.6182ZM20.3218 11.6432C19.7702 11.6432 19.2814 11.5555 18.8552 11.38C18.4373 11.2045 18.078 10.9455 17.7772 10.6028C17.4763 10.2519 17.2465 9.81314 17.0877 9.28667C16.9373 8.75184 16.8621 8.12509 16.8621 7.40642C16.8621 6.83817 16.9122 6.32841 17.0125 5.87715C17.1128 5.42589 17.2549 5.02477 17.4387 4.67379C17.6309 4.32281 17.8649 4.0178 18.1407 3.75874C18.4248 3.49968 18.7424 3.28659 19.0933 3.11945C19.4527 2.94396 19.8454 2.81026 20.2716 2.71833L23.3051 2.04145L23.4806 3.15706L20.6853 3.75874C20.5181 3.79217 20.3176 3.84231 20.0836 3.90916C19.8496 3.97601 19.6115 4.08047 19.3691 4.22253C19.1268 4.35624 18.9011 4.54426 18.6922 4.78661C18.4833 5.02895 18.3162 5.3465 18.1908 5.73927C18.0655 6.12367 18.0028 6.6 18.0028 7.16826C18.0028 7.32703 18.007 7.4482 18.0153 7.53177C18.0237 7.61534 18.032 7.6989 18.0404 7.78247C18.0571 7.86604 18.0696 7.99139 18.078 8.15852L17.5766 7.64459C17.7103 7.18497 17.9234 6.78385 18.2159 6.44123C18.5084 6.0986 18.8594 5.83537 19.2688 5.65152C19.6867 5.45932 20.1421 5.36322 20.6351 5.36322C21.2535 5.36322 21.8009 5.49692 22.2772 5.76434C22.7619 6.03175 23.1421 6.39944 23.4179 6.86742C23.6937 7.33539 23.8316 7.87022 23.8316 8.4719C23.8316 9.08193 23.6853 9.62929 23.3928 10.114C23.1087 10.5903 22.7034 10.9664 22.1769 11.2421C21.6505 11.5095 21.0321 11.6432 20.3218 11.6432ZM20.4346 10.6404C20.8608 10.6404 21.2368 10.5485 21.5627 10.3647C21.8886 10.1725 22.1435 9.9176 22.3274 9.60005C22.5112 9.27414 22.6031 8.91062 22.6031 8.5095C22.6031 8.10838 22.5112 7.75322 22.3274 7.44403C22.1435 7.13483 21.8886 6.89249 21.5627 6.717C21.2368 6.53315 20.8524 6.44123 20.4095 6.44123C19.9917 6.44123 19.6156 6.52897 19.2814 6.70446C18.9471 6.8716 18.688 7.10976 18.5042 7.41896C18.3203 7.7198 18.2284 8.07078 18.2284 8.4719C18.2284 8.87302 18.3203 9.24071 18.5042 9.57498C18.6964 9.90088 18.9555 10.1599 19.2814 10.3521C19.6156 10.5443 20 10.6404 20.4346 10.6404ZM25.5502 11.543V4.89942H26.7536V9.73793L30.8275 4.89942H31.918V11.543H30.7146V6.70446L26.6533 11.543H25.5502ZM34.2537 11.543V4.89942H35.4571V7.7198H39.2427V4.89942H40.446V11.543H39.2427V8.7602H35.4571V11.543H34.2537ZM45.7441 11.6182C45.0338 11.6182 44.407 11.4719 43.8639 11.1795C43.329 10.887 42.9112 10.4859 42.6104 9.97609C42.3179 9.46634 42.1716 8.88137 42.1716 8.2212C42.1716 7.56102 42.3137 6.97605 42.5978 6.4663C42.8903 5.95654 43.2872 5.5596 43.7886 5.27547C44.2984 4.98299 44.8708 4.83675 45.5059 4.83675C46.1494 4.83675 46.7177 4.97881 47.2107 5.26294C47.7037 5.54706 48.0881 5.94818 48.3639 6.4663C48.648 6.97605 48.7901 7.57355 48.7901 8.2588C48.7901 8.30894 48.7859 8.36744 48.7776 8.43429C48.7776 8.50114 48.7734 8.56382 48.765 8.62232H43.1118V7.7574H48.1383L47.6494 8.05824C47.6578 7.63205 47.57 7.25182 47.3862 6.91756C47.2023 6.58329 46.9475 6.32423 46.6215 6.14039C46.304 5.94818 45.9321 5.85208 45.5059 5.85208C45.0881 5.85208 44.7162 5.94818 44.3903 6.14039C44.0644 6.32423 43.8095 6.58747 43.6257 6.93009C43.4418 7.26436 43.3499 7.64876 43.3499 8.08331V8.28387C43.3499 8.72677 43.4502 9.12372 43.6508 9.4747C43.8597 9.81732 44.148 10.0847 44.5157 10.2769C44.8834 10.4691 45.3054 10.5652 45.7817 10.5652C46.1745 10.5652 46.5296 10.4984 46.8472 10.3647C47.1731 10.231 47.4572 10.0304 47.6996 9.763L48.3639 10.5402C48.0631 10.8911 47.687 11.1586 47.2358 11.3424C46.7929 11.5263 46.2956 11.6182 45.7441 11.6182ZM51.6916 11.543V5.63899L51.9924 5.95236H49.2598V4.89942H55.3267V5.95236H52.6066L52.8949 5.63899V11.543H51.6916Z" fill="#09152D"/>
</g>
<defs>
<linearGradient id="paint0_linear_2958_63589" x1="31.4903" y1="19.7625" x2="56.0093" y2="40.9157" gradientUnits="userSpaceOnUse">
<stop stop-color="#7387D4"/>
<stop offset="1" stop-color="#29364E"/>
</linearGradient>
<clipPath id="clip0_2958_63589">
<rect width="91.9512" height="58" fill="white"/>
</clipPath>
</defs>
</svg>
