<svg width="42" height="42" viewBox="0 0 42 42" fill="none" xmlns="http://www.w3.org/2000/svg">
<g clip-path="url(#clip0_2408_14729)">
<path d="M42 21C42 9.40201 32.598 0 21 0C9.40201 0 0 9.40201 0 21C0 31.4815 7.67936 40.1695 17.7188 41.7449V27.0703H12.3867V21H17.7188V16.3734C17.7188 11.1103 20.854 8.20312 25.6508 8.20312C27.9476 8.20312 30.3516 8.61328 30.3516 8.61328V13.7812H27.7036C25.095 13.7812 24.2812 15.4001 24.2812 17.0625V21H30.1055L29.1744 27.0703H24.2812V41.7449C34.3206 40.1695 42 31.4815 42 21Z" fill="#1877F2"/>
<path d="M29.1783 27.0703L30.1094 21H24.2852V17.0625C24.2852 15.4018 25.0989 13.7812 27.7075 13.7812H30.3555V8.61328C30.3555 8.61328 27.9524 8.20312 25.6547 8.20312C20.8579 8.20312 17.7227 11.1103 17.7227 16.3734V21H12.3906V27.0703H17.7227V41.7449C19.8969 42.085 22.1109 42.085 24.2852 41.7449V27.0703H29.1783Z" fill="white"/>
</g>
<defs>
<clipPath id="clip0_2408_14729">
<rect width="42" height="42" fill="white"/>
</clipPath>
</defs>
</svg>
