<svg width="42" height="42" viewBox="0 0 42 42" fill="none" xmlns="http://www.w3.org/2000/svg">
<g clip-path="url(#clip0_2408_14788)">
<path d="M21 42C32.598 42 42 32.598 42 21C42 9.40202 32.598 0 21 0C9.40202 0 0 9.40202 0 21C0 32.598 9.40202 42 21 42Z" fill="#005FF9"/>
<path d="M24.9481 20.9982C24.9481 21.7782 24.7169 22.5406 24.2835 23.1891C23.8502 23.8376 23.2343 24.3431 22.5137 24.6415C21.7932 24.94 21.0003 25.0181 20.2353 24.8659C19.4703 24.7138 18.7677 24.3382 18.2162 23.7867C17.6646 23.2352 17.2891 22.5325 17.1369 21.7676C16.9847 21.0026 17.0628 20.2097 17.3613 19.4891C17.6598 18.7685 18.1652 18.1526 18.8137 17.7193C19.4622 17.286 20.2247 17.0547 21.0046 17.0547C22.0501 17.0559 23.0525 17.4718 23.7918 18.2111C24.5311 18.9504 24.9469 19.9527 24.9481 20.9982ZM21.0046 7.88672C18.9518 7.88633 16.9276 8.36794 15.095 9.29279C13.2623 10.2176 11.6724 11.5599 10.4533 13.2115C9.23417 14.863 8.41987 16.7778 8.07595 18.8016C7.73203 20.8253 7.8681 22.9016 8.47322 24.8632C9.07833 26.8248 10.1356 28.6168 11.5598 30.0952C12.9841 31.5735 14.7356 32.6968 16.6733 33.3745C18.6109 34.0522 20.6807 34.2656 22.7159 33.9972C24.7511 33.7289 26.6948 32.9865 28.3906 31.8297L28.4281 31.8027L26.6611 29.7492L26.6326 29.7687C24.5995 31.0754 22.1759 31.6362 19.7755 31.3555C17.375 31.0747 15.1462 29.9699 13.4695 28.2293C11.7927 26.4887 10.7717 24.2203 10.5808 21.811C10.3898 19.4017 11.0407 17.0008 12.4224 15.0178C13.804 13.0349 15.8309 11.5927 18.1572 10.9373C20.4834 10.282 22.9651 10.454 25.1787 11.4241C27.3923 12.3942 29.2007 14.1023 30.2956 16.2569C31.3904 18.4116 31.7037 20.8793 31.1821 23.2392C31.123 23.7206 30.8866 24.1626 30.5191 24.479C30.1516 24.7955 29.6794 24.9637 29.1946 24.9507C28.9725 24.9356 28.7556 24.8764 28.5566 24.7766C28.3575 24.6769 28.1803 24.5385 28.0353 24.3696C27.8903 24.2007 27.7803 24.0046 27.7117 23.7928C27.6432 23.5809 27.6175 23.3576 27.6361 23.1357V20.9982C27.6381 19.4608 27.1065 17.9702 26.1321 16.781C25.1577 15.5917 23.8008 14.7775 22.2929 14.4771C20.7851 14.1768 19.2197 14.4089 17.864 15.134C16.5082 15.8591 15.4461 17.0321 14.8587 18.453C14.2714 19.8738 14.1953 21.4545 14.6435 22.9252C15.0916 24.3959 16.0362 25.6656 17.316 26.5175C18.5959 27.3694 20.1317 27.7509 21.6614 27.5967C23.1911 27.4426 24.62 26.7624 25.7041 25.6722C26.0607 26.2295 26.5424 26.6959 27.1108 27.0344C27.6792 27.3729 28.3188 27.5742 28.9786 27.6222C29.0956 27.6327 29.2141 27.6372 29.3326 27.6372C30.2939 27.6346 31.2281 27.3187 31.9936 26.7372C32.806 26.1029 33.3992 25.23 33.6901 24.2412C33.7411 24.0747 33.8401 23.6907 33.8401 23.6892V23.6742C34.0355 22.7959 34.1281 21.8979 34.1161 20.9982C34.1122 17.5221 32.7295 14.1894 30.2715 11.7314C27.8135 9.27335 24.4808 7.89069 21.0046 7.88672Z" fill="#FF9E00"/>
</g>
<defs>
<clipPath id="clip0_2408_14788">
<rect width="42" height="42" fill="white"/>
</clipPath>
</defs>
</svg>
