<svg width="42" height="42" viewBox="0 0 42 42" fill="none" xmlns="http://www.w3.org/2000/svg">
<g clip-path="url(#clip0_2408_14734)">
<path d="M21 42C32.598 42 42 32.598 42 21C42 9.40202 32.598 0 21 0C9.40202 0 0 9.40202 0 21C0 32.598 9.40202 42 21 42Z" fill="url(#paint0_linear_2408_14734)"/>
<path fill-rule="evenodd" clip-rule="evenodd" d="M9.50529 20.7808C15.6272 18.1136 19.7095 16.3552 21.752 15.5057C27.584 13.08 28.7958 12.6586 29.5856 12.6447C29.7593 12.6416 30.1478 12.6847 30.3994 12.8888C30.6118 13.0612 30.6703 13.2941 30.6982 13.4575C30.7262 13.621 30.7611 13.9933 30.7334 14.2842C30.4173 17.6048 29.0499 25.663 28.3542 29.3821C28.0598 30.9558 27.4802 31.4835 26.919 31.5351C25.6995 31.6474 24.7735 30.7292 23.5923 29.9549C21.744 28.7434 20.6999 27.9892 18.9058 26.8069C16.8324 25.4406 18.1765 24.6897 19.3581 23.4624C19.6673 23.1412 25.0405 18.2539 25.1445 17.8105C25.1575 17.7551 25.1696 17.5484 25.0468 17.4393C24.924 17.3301 24.7428 17.3674 24.612 17.3971C24.4267 17.4392 21.474 19.3908 15.7541 23.2519C14.916 23.8274 14.1569 24.1078 13.4767 24.0931C12.7269 24.0769 11.2846 23.6691 10.2124 23.3206C8.89724 22.8931 7.85201 22.6671 7.94302 21.9411C7.99043 21.5629 8.51119 21.1762 9.50529 20.7808Z" fill="white"/>
</g>
<defs>
<linearGradient id="paint0_linear_2408_14734" x1="21" y1="0" x2="21" y2="41.6885" gradientUnits="userSpaceOnUse">
<stop stop-color="#2AABEE"/>
<stop offset="1" stop-color="#229ED9"/>
</linearGradient>
<clipPath id="clip0_2408_14734">
<rect width="42" height="42" fill="white"/>
</clipPath>
</defs>
</svg>
