<svg width="42" height="42" viewBox="0 0 42 42" fill="none" xmlns="http://www.w3.org/2000/svg">
<path d="M13.2082 38.0647C29.0573 38.0647 37.7261 24.9338 37.7261 13.5468C37.7261 13.1738 37.7261 12.8025 37.7009 12.4329C39.3873 11.2131 40.8431 9.70272 42 7.97253C40.4274 8.66973 38.7591 9.12675 37.0507 9.32828C38.8497 8.25149 40.196 6.55766 40.8391 4.56212C39.1477 5.56594 37.2971 6.27332 35.3674 6.65373C34.0681 5.27223 32.3498 4.35745 30.4783 4.05092C28.6068 3.7444 26.6865 4.06323 25.0144 4.95807C23.3424 5.85291 22.0119 7.27388 21.2288 9.00108C20.4457 10.7283 20.2537 12.6654 20.6825 14.5128C17.2566 14.3409 13.9051 13.4506 10.8455 11.8995C7.78602 10.3485 5.08684 8.17143 2.9232 5.50964C1.82127 7.40664 1.48378 9.65229 1.97942 11.7894C2.47507 13.9265 3.7666 15.7943 5.59104 17.0126C4.21966 16.9724 2.87813 16.6025 1.68 15.934V16.0432C1.68054 18.0327 2.36924 19.9608 3.62927 21.5004C4.88931 23.04 6.64311 24.0963 8.5932 24.4903C7.32459 24.8363 5.99353 24.8869 4.70232 24.6381C5.25318 26.3502 6.32525 27.8473 7.76867 28.9203C9.21209 29.9932 10.9547 30.5883 12.7529 30.6223C10.9663 32.0266 8.9203 33.0649 6.73203 33.6778C4.54376 34.2906 2.25613 34.4661 0 34.194C3.94071 36.7227 8.52587 38.0641 13.2082 38.058" fill="#1DA1F2"/>
</svg>
