<svg width="42" height="42" viewBox="0 0 42 42" fill="none" xmlns="http://www.w3.org/2000/svg">
<rect width="42" height="42" rx="21" fill="url(#paint0_linear_2408_14762)"/>
<path d="M8.26562 33.2187L10.0663 26.6801C8.95303 24.7609 8.36904 22.5874 8.37512 20.3654C8.37512 13.403 14.069 7.74219 21.0586 7.74219C24.4531 7.74219 27.6407 9.05597 30.0314 11.4414C32.4282 13.8268 33.7482 16.9992 33.7422 20.3715C33.7422 27.334 28.0483 32.9947 21.0526 32.9947H21.0465C18.9234 32.9947 16.8369 32.462 14.9815 31.4569L8.26562 33.2187ZM15.3039 29.1745L15.6872 29.4045C17.3053 30.3611 19.1607 30.8636 21.0526 30.8697H21.0586C26.8681 30.8697 31.6009 26.1655 31.6009 20.3775C31.6009 17.5744 30.5059 14.9408 28.5167 12.955C26.5275 10.9691 23.8752 9.87936 21.0586 9.87936C15.2492 9.87331 10.5164 14.5775 10.5164 20.3654C10.5164 22.3452 11.07 24.2765 12.1285 25.9475L12.3779 26.3471L11.3133 30.2158L15.3039 29.1745Z" fill="white"/>
<path d="M8.71094 32.7762L10.4507 26.4616C9.37401 24.615 8.80827 22.5142 8.80827 20.3709C8.81435 13.6506 14.3075 8.18359 21.0599 8.18359C24.3387 8.18359 27.4108 9.455 29.7224 11.7556C32.034 14.0563 33.3054 17.1198 33.3054 20.377C33.3054 27.0973 27.8062 32.5643 21.0599 32.5643H21.0538C19.0037 32.5643 16.9902 32.0497 15.2017 31.081L8.71094 32.7762Z" fill="url(#paint1_linear_2408_14762)"/>
<path d="M8.26562 33.2187L10.0663 26.6801C8.95303 24.7609 8.36904 22.5874 8.37512 20.3654C8.37512 13.403 14.069 7.74219 21.0586 7.74219C24.4531 7.74219 27.6407 9.05597 30.0314 11.4414C32.4282 13.8268 33.7482 16.9992 33.7422 20.3715C33.7422 27.334 28.0483 32.9947 21.0526 32.9947H21.0465C18.9234 32.9947 16.8369 32.462 14.9815 31.4569L8.26562 33.2187ZM15.3039 29.1745L15.6872 29.4045C17.3053 30.3611 19.1607 30.8636 21.0526 30.8697H21.0586C26.8681 30.8697 31.6009 26.1655 31.6009 20.3775C31.6009 17.5744 30.5059 14.9408 28.5167 12.955C26.5275 10.9691 23.8752 9.87936 21.0586 9.87936C15.2492 9.87331 10.5164 14.5775 10.5164 20.3654C10.5164 22.3452 11.07 24.2765 12.1285 25.9475L12.3779 26.3471L11.3133 30.2158L15.3039 29.1745Z" fill="url(#paint2_linear_2408_14762)"/>
<path fill-rule="evenodd" clip-rule="evenodd" d="M17.89 15.0861C17.6527 14.5594 17.4033 14.5473 17.1782 14.5412C16.9957 14.5352 16.7828 14.5352 16.5699 14.5352C16.357 14.5352 16.0163 14.6139 15.7243 14.9287C15.4323 15.2435 14.6172 16.0064 14.6172 17.5623C14.6172 19.1122 15.7547 20.6137 15.9129 20.8256C16.0711 21.0375 18.109 24.325 21.327 25.5903C24.0036 26.6438 24.5511 26.4319 25.129 26.3774C25.7069 26.3229 27.0026 25.6146 27.2703 24.8759C27.5319 24.1373 27.5319 23.5077 27.4528 23.3745C27.3737 23.2413 27.1608 23.1626 26.8445 23.0051C26.5281 22.8477 24.9708 22.0849 24.6788 21.9759C24.3868 21.873 24.1739 21.8185 23.9671 22.1333C23.7542 22.4481 23.1459 23.1565 22.9634 23.3684C22.7809 23.5803 22.5923 23.6045 22.276 23.4471C21.9596 23.2897 20.9377 22.9567 19.7271 21.879C18.7842 21.0435 18.1455 20.0083 17.963 19.6934C17.7805 19.3786 17.9447 19.2091 18.1029 19.0517C18.2428 18.9124 18.4192 18.6824 18.5774 18.5007C18.7355 18.3191 18.7903 18.1859 18.8937 17.974C18.9971 17.7621 18.9484 17.5805 18.8694 17.4231C18.7903 17.2717 18.1698 15.7097 17.89 15.0861Z" fill="white"/>
<defs>
<linearGradient id="paint0_linear_2408_14762" x1="20.9989" y1="41.9979" x2="20.9989" y2="-0.00146947" gradientUnits="userSpaceOnUse">
<stop stop-color="#20B038"/>
<stop offset="1" stop-color="#60D66A"/>
</linearGradient>
<linearGradient id="paint1_linear_2408_14762" x1="21.0075" y1="32.775" x2="21.0075" y2="8.18273" gradientUnits="userSpaceOnUse">
<stop stop-color="#20B038"/>
<stop offset="1" stop-color="#60D66A"/>
</linearGradient>
<linearGradient id="paint2_linear_2408_14762" x1="21.0064" y1="33.2163" x2="21.0064" y2="7.74219" gradientUnits="userSpaceOnUse">
<stop stop-color="#F9F9F9"/>
<stop offset="1" stop-color="white"/>
</linearGradient>
</defs>
</svg>
