<svg width="1372" height="1198" viewBox="0 0 1372 1198" fill="none" xmlns="http://www.w3.org/2000/svg">
<path fill-rule="evenodd" clip-rule="evenodd" d="M516.516 379.632C525.046 345.515 537.923 313.007 554.663 283.075L502.03 202.449L612.768 88.0283L695.017 138.077C724.472 120.375 756.502 106.374 790.303 96.7184L810.101 2.57493L969.448 0L992.303 93.4999C1026.43 102.029 1058.94 114.904 1088.88 131.801L1169.52 79.1772L1283.96 189.897L1233.9 272.131C1251.6 301.582 1265.61 333.606 1275.27 367.402L1369.42 387.196L1372 546.516L1278.48 569.368C1269.95 603.485 1257.08 635.993 1240.34 665.925L1292.97 746.551L1182.23 860.972L1099.98 810.923C1070.53 828.625 1038.5 842.626 1004.7 852.282L984.899 946.425L825.553 949L802.697 855.5C768.574 846.971 736.061 834.096 706.123 817.36L625.483 869.984L511.043 759.265L561.101 677.03C543.396 647.58 529.392 615.554 519.735 581.759L425.575 561.965L423 402.645L516.516 379.793V379.632ZM726.564 469.913C728.174 564.218 805.916 639.533 900.236 637.924C994.557 636.314 1069.88 558.586 1068.27 464.281C1066.67 369.977 988.923 294.662 894.603 296.271C800.282 297.88 724.955 375.609 726.564 469.913Z" fill="#EBEBEB"/>
<path d="M478.037 1001.76H361.875V1164.67H478.037V1001.76Z" fill="#B1C1FF"/>
<g style="mix-blend-mode:multiply" opacity="0.3">
<path d="M478.037 1001.73H361.875V1030.79H478.037V1001.73Z" fill="#B1C1FF"/>
</g>
<path d="M460.977 1001.73V1157.35" stroke="#A9BBFF" stroke-width="0.5" stroke-miterlimit="10"/>
<path d="M460.974 1054.02H430.562" stroke="#A9BBFF" stroke-width="0.5" stroke-miterlimit="10"/>
<path d="M428.483 1059.29C431.387 1059.29 433.74 1056.93 433.74 1054.03C433.74 1051.13 431.387 1048.77 428.483 1048.77C425.58 1048.77 423.227 1051.13 423.227 1054.03C423.227 1056.93 425.58 1059.29 428.483 1059.29Z" fill="#A9BBFF"/>
<path d="M478.065 1020.05H440.758V1109.99H478.065" stroke="#A9BBFF" stroke-width="0.5" stroke-miterlimit="10"/>
<path d="M357.501 1157.39H481.972C494.465 1157.39 504.583 1167.51 504.583 1180V1196.9H334.891V1180C334.891 1167.51 345.009 1157.39 357.501 1157.39Z" fill="#A9BBFF"/>
<path d="M269.99 1001.76H153.828V1164.67H269.99V1001.76Z" fill="#B1C1FF"/>
<path d="M198.472 1001.73V1124.23H153.816" stroke="#A9BBFF" stroke-width="0.5" stroke-miterlimit="10"/>
<path d="M169.805 1001.73V1157.35" stroke="#A9BBFF" stroke-width="0.5" stroke-miterlimit="10"/>
<path d="M153.812 1104.71H214.635" stroke="#A9BBFF" stroke-width="0.5" stroke-miterlimit="10"/>
<path d="M216.788 1109.97C219.692 1109.97 222.045 1107.62 222.045 1104.72C222.045 1101.81 219.692 1099.46 216.788 1099.46C213.885 1099.46 211.531 1101.81 211.531 1104.72C211.531 1107.62 213.885 1109.97 216.788 1109.97Z" fill="#A9BBFF"/>
<g style="mix-blend-mode:multiply" opacity="0.3">
<path d="M269.978 1001.73H153.816V1030.79H269.978V1001.73Z" fill="#B1C1FF"/>
</g>
<path d="M150.15 1157.61H274.621C287.113 1157.61 297.231 1167.73 297.231 1180.22V1197.12H127.539V1180.22C127.539 1167.73 137.657 1157.61 150.15 1157.61Z" fill="#A9BBFF"/>
<path d="M580.107 760.898H549.695V1047.15H580.107V760.898Z" fill="#A9BBFF"/>
<path d="M520.65 1114.86C518.728 1107.85 518.502 1100.16 520.367 1092.19C524.267 1075.29 538.116 1061.72 555.131 1058.22C584.638 1052.06 610.696 1074.33 610.809 1102.82C610.809 1106.72 610.357 1110.56 609.453 1114.18C607.7 1121.19 612.957 1127.97 620.193 1127.91C625.28 1127.91 629.689 1124.47 630.933 1119.55C633.59 1109.09 633.816 1097.73 630.82 1085.92C624.376 1060.42 602.952 1040.47 577.007 1036C533.933 1028.6 496.683 1061.67 496.852 1103.33C496.852 1109.09 497.643 1114.69 499.057 1120.06C500.357 1124.98 504.822 1128.42 509.91 1128.42C517.032 1128.42 522.458 1121.75 520.593 1114.86H520.65Z" fill="#8DA5FF"/>
<path d="M532.453 784.6C567.33 784.6 595.593 756.337 595.593 721.46C595.593 686.583 567.33 658.32 532.453 658.32V784.6Z" fill="#A1B3FF"/>
<path d="M83.2667 760.898H52.8555V1047.15H83.2667V760.898Z" fill="#A9BBFF"/>
<path d="M23.7983 1114.86C21.8764 1107.85 21.6502 1100.16 23.5156 1092.19C27.4159 1075.29 41.2648 1061.72 58.2793 1058.22C87.7861 1052.06 113.845 1074.33 113.958 1102.82C113.958 1106.72 113.506 1110.56 112.601 1114.18C110.849 1121.19 116.106 1127.97 123.341 1127.91C128.429 1127.91 132.838 1124.47 134.081 1119.55C136.738 1109.09 136.964 1097.73 133.968 1085.92C127.524 1060.42 106.101 1040.47 80.1551 1036C37.082 1028.6 -0.169002 1061.67 0.00057673 1103.33C0.00057673 1109.09 0.792029 1114.69 2.20519 1120.06C3.5053 1124.98 7.97079 1128.42 13.0582 1128.42C20.1805 1128.42 25.6071 1121.75 23.7417 1114.86H23.7983Z" fill="#8DA5FF"/>
<path d="M102.281 784.6C67.4039 784.6 39.1406 756.337 39.1406 721.46C39.1406 686.583 67.4039 658.32 102.281 658.32V784.6Z" fill="#A1B3FF"/>
<path d="M426.582 596.477H205.168V643.224H426.582V596.477Z" fill="#B1C1FF"/>
<g style="mix-blend-mode:multiply" opacity="0.3">
<path d="M426.582 596.477H205.168V619.822H426.582V596.477Z" fill="#B1C1FF"/>
</g>
<path d="M523.442 316.094H108.368C103.373 316.094 99.3242 320.143 99.3242 325.138V587.364C99.3242 592.359 103.373 596.408 108.368 596.408H523.442C528.437 596.408 532.486 592.359 532.486 587.364V325.138C532.486 320.143 528.437 316.094 523.442 316.094Z" fill="#8DA5FF"/>
<path d="M505 596.314H528.872C531.154 596.314 533 592.245 533 587.27V325.101C533 320.07 531.154 316 528.872 316H505V596.314Z" fill="#B1C1FF"/>
<path d="M128.145 596.455H108.417C103.386 596.455 99.3164 592.385 99.3164 587.411V325.241C99.3164 320.21 103.386 316.141 108.417 316.141H128.145V596.455Z" fill="#B1C1FF"/>
<path d="M189.504 517.617H246.369" stroke="#7387D4" stroke-width="4" stroke-linecap="round" stroke-linejoin="round"/>
<path d="M387.352 517.617H444.217" stroke="#7387D4" stroke-width="4" stroke-linecap="round" stroke-linejoin="round"/>
<path d="M326.947 571.035C331.755 571.035 335.652 567.138 335.652 562.33C335.652 557.522 331.755 553.625 326.947 553.625C322.14 553.625 318.242 557.522 318.242 562.33C318.242 567.138 322.14 571.035 326.947 571.035Z" fill="#7387D4"/>
<path d="M79.1262 313.25H72.9648V413.415H79.1262V313.25Z" fill="#8DA5FF"/>
<path d="M76.0549 324.75C84.5464 324.75 91.4301 317.867 91.4301 309.375C91.4301 300.884 84.5464 294 76.0549 294C67.5634 294 60.6797 300.884 60.6797 309.375C60.6797 317.867 67.5634 324.75 76.0549 324.75Z" fill="#A9BBFF"/>
<path d="M62.6825 408.961H49.5117V503.586H62.6825V408.961Z" fill="#A9BBFF"/>
<path d="M99.3792 388.109H62.75V523.208H99.3792V388.109Z" fill="#A9BBFF"/>
<path d="M62.75 401.719H99.3226" stroke="#A9BBFF" stroke-width="0.55" stroke-miterlimit="10"/>
<path d="M62.75 417.086H99.3226" stroke="#A9BBFF" stroke-width="0.55" stroke-miterlimit="10"/>
<path d="M62.75 432.547H99.3226" stroke="#A9BBFF" stroke-width="0.55" stroke-miterlimit="10"/>
<path d="M62.75 447.953H99.3226" stroke="#A9BBFF" stroke-width="0.55" stroke-miterlimit="10"/>
<path d="M62.75 463.32H99.3226" stroke="#A9BBFF" stroke-width="0.55" stroke-miterlimit="10"/>
<path d="M62.75 478.781H99.3226" stroke="#A9BBFF" stroke-width="0.55" stroke-miterlimit="10"/>
<path d="M62.75 494.148H99.3226" stroke="#A9BBFF" stroke-width="0.55" stroke-miterlimit="10"/>
<path d="M62.75 509.562H99.3226" stroke="#A9BBFF" stroke-width="0.55" stroke-miterlimit="10"/>
<g style="mix-blend-mode:multiply" opacity="0.47">
<path d="M99.3395 388.109H88.543V523.208H99.3395V388.109Z" fill="#A9BBFF"/>
</g>
<path d="M558.662 313.25H552.5V413.415H558.662V313.25Z" fill="#8DA5FF"/>
<path d="M555.555 324.75C564.046 324.75 570.93 317.867 570.93 309.375C570.93 300.884 564.046 294 555.555 294C547.063 294 540.18 300.884 540.18 309.375C540.18 317.867 547.063 324.75 555.555 324.75Z" fill="#A9BBFF"/>
<path d="M582.225 408.961H569.055V503.586H582.225V408.961Z" fill="#A9BBFF"/>
<path d="M569.067 388.109H532.438V523.208H569.067V388.109Z" fill="#A9BBFF"/>
<path d="M532.438 401.719H569.067" stroke="#A9BBFF" stroke-width="0.55" stroke-miterlimit="10"/>
<path d="M532.438 417.086H569.067" stroke="#A9BBFF" stroke-width="0.55" stroke-miterlimit="10"/>
<path d="M532.438 432.547H569.067" stroke="#A9BBFF" stroke-width="0.55" stroke-miterlimit="10"/>
<path d="M532.438 447.953H569.067" stroke="#A9BBFF" stroke-width="0.55" stroke-miterlimit="10"/>
<path d="M532.438 463.32H569.067" stroke="#A9BBFF" stroke-width="0.55" stroke-miterlimit="10"/>
<path d="M532.438 478.781H569.067" stroke="#A9BBFF" stroke-width="0.55" stroke-miterlimit="10"/>
<path d="M532.438 494.148H569.067" stroke="#A9BBFF" stroke-width="0.55" stroke-miterlimit="10"/>
<path d="M532.438 509.562H569.067" stroke="#A9BBFF" stroke-width="0.55" stroke-miterlimit="10"/>
<g style="mix-blend-mode:multiply" opacity="0.47">
<path d="M543.234 388.109H532.438V523.208H543.234V388.109Z" fill="#A9BBFF"/>
</g>
<path d="M523.506 643.188H108.32C103.356 643.188 99.332 647.211 99.332 652.175V992.803C99.332 997.767 103.356 1001.79 108.32 1001.79H523.506C528.47 1001.79 532.494 997.767 532.494 992.803V652.175C532.494 647.211 528.47 643.188 523.506 643.188Z" fill="#8DA5FF"/>
<path d="M470.781 1001.79H523.52C528.495 1001.79 532.508 997.777 532.508 992.803V652.175C532.508 647.201 528.495 643.188 523.52 643.188H470.781V1001.79Z" fill="#8DA5FF"/>
<path d="M128.147 643.188H108.363C103.388 643.188 99.375 647.201 99.375 652.175V992.803C99.375 997.777 103.388 1001.79 108.363 1001.79H128.147V643.188Z" fill="#B1C1FF"/>
<path d="M99.3359 934.609H106.402" stroke="#A9BBFF" stroke-width="0.5" stroke-miterlimit="10"/>
<path d="M117.758 934.609H519.774" stroke="#A9BBFF" stroke-width="0.5" stroke-miterlimit="10"/>
<path d="M525.438 934.609H532.503" stroke="#A9BBFF" stroke-width="0.5" stroke-miterlimit="10"/>
<path d="M305.144 888.313H289.316V821.442H368.679V799.341H309.779V740.836H325.606V783.513H384.507V837.27H305.144V888.313Z" fill="#A9BBFF"/>
<path d="M407.645 685.461H227.891V740.857H407.645V685.461Z" fill="#A9BBFF" stroke="#A9BBFF" stroke-miterlimit="10"/>
<path d="M361.811 888.336H270.012V919.199H361.811V888.336Z" fill="#A9BBFF"/>
</svg>
