<svg width="599" height="235" viewBox="0 0 599 235" fill="none" xmlns="http://www.w3.org/2000/svg">
<path d="M130.709 1.96875L75.8635 133.702H98.199V89.3513H167.49V133.702H193.762V187.896H167.49V232.563H98.199V187.896H0V138.624L59.1162 1.96875H130.709Z" fill="#7387D4"/>
<path d="M389.159 117.266C389.159 192.818 355.998 234.532 296.214 234.532C236.43 234.532 202.953 192.818 202.953 117.266C202.953 41.7137 235.797 0 296.214 0C356.631 0 389.159 41.7137 389.159 117.266ZM274.88 117.266C274.88 165.554 279.801 183.291 296.232 183.291C312.663 183.291 317.249 165.554 317.249 117.266C317.249 68.9779 312.329 51.2412 296.232 51.2412C280.135 51.2412 274.88 68.6439 274.88 117.266Z" fill="#7387D4"/>
<path d="M535.95 1.96875L481.104 133.702H503.439V89.3513H572.73V133.702H599.002V187.896H572.73V232.563H503.439V187.896H405.258V138.624L464.374 1.96875H535.967H535.95Z" fill="#7387D4"/>
</svg>
