<svg width="60" height="60" viewBox="0 0 60 60" fill="none" xmlns="http://www.w3.org/2000/svg">
<rect width="60" height="60" rx="8" fill="#FAFAFA"/>
<mask id="mask0" mask-type="alpha" maskUnits="userSpaceOnUse" x="0" y="0" width="60" height="60">
<rect width="60" height="60" rx="8" fill="#FAFAFA"/>
</mask>
<g mask="url(#mask0)">
<path d="M42.3909 28.1909H29.3813V52.4705H42.3909V28.1909Z" fill="#AD7C5D"/>
<path d="M35.133 56.639L35.635 5.31943C20.2206 3.04284 18.6712 13.6814 18.6712 13.6814L16.4275 56.639H35.133Z" fill="#C88E6B"/>
<path d="M23.0284 56.6389C23.9581 46.4593 17.3076 47.6131 17.3076 47.6131C14.1033 47.7806 13.4215 53.438 13.2852 56.6389H23.0284Z" fill="#F7BD94"/>
<path d="M34.8666 35.5852H27.6025V45.3181H34.8666V35.5852Z" fill="#F7BD94"/>
<path d="M46.4505 49.5239C44.4362 45.7957 42.4776 45.5476 42.4776 45.5476L34.8665 42.7251H27.6025L19.9976 45.5476C19.9976 45.5476 16.818 46.3974 14.7975 49.5239H46.4505Z" fill="#F7BD94"/>
<path d="M39.4035 31.8694C38.0461 33.9599 36.2549 35.6906 33.8501 36.8568C32.9576 37.291 32.0155 37.6322 31.0486 37.8679C30.3606 38.0354 28.8173 38.5193 28.1417 38.2215C18.3861 33.9599 21.5471 15.1454 21.5471 15.1454C23.016 6.13829 30.7139 6.1631 30.7139 6.1631C36.5276 5.90877 41.8331 8.65681 42.7256 14.7918C43.0665 17.1429 42.614 19.6614 42.4962 22.0062C42.4095 23.7307 42.1987 25.449 41.6471 27.0991C41.0707 28.8112 40.3455 30.424 39.4035 31.8694Z" fill="#F7BD94"/>
<path d="M29.3565 37.4894C33.695 37.1793 37.1783 33.8109 40.0852 30.7217C39.8682 31.1125 39.6451 31.4971 39.4034 31.8693C38.046 33.9598 36.2548 35.6905 33.85 36.8567C32.9575 37.2909 32.0154 37.6321 31.0485 37.8678C30.3605 38.0353 28.8172 38.5192 28.1417 38.2214C26.6046 37.5515 25.3898 36.5155 24.4291 35.2501C25.7492 36.1867 27.6768 37.6073 29.3565 37.4894Z" fill="#EBB48D"/>
<path d="M38.5605 33.048C39.4592 26.4477 39.6204 21.4169 34.6062 19.2147C31.2221 17.7259 22.6317 17.1862 22.6317 11.5847C22.6317 7.15558 27.0137 6.2437 30.6085 5.2946C36.0441 3.86165 44.0767 7.99302 45.3969 13.6504C45.3969 13.6442 47.7211 27.8496 38.5605 33.048Z" fill="#C88E6B"/>
<path d="M38.5605 25.0458C38.5605 25.0458 39.3291 21.8449 41.7897 23.1662C41.7897 23.1662 42.8991 23.7307 42.0996 25.9266C42.0996 25.9266 40.9343 29.0965 38.5543 27.9365L38.5605 25.0458Z" fill="#F7BD94"/>
<path d="M46.1158 56.6391L47.2563 53.5747C46.0105 46.2859 42.676 45.467 42.676 45.467L36.8499 43.4634C36.8499 43.4634 33.503 46.6394 28.4516 47.1729C28.4516 47.1729 25.8113 46.0625 25.2287 43.6123L21.4169 45.0142C21.4169 45.0142 19.5019 50.5351 16 58.5001L28.4516 62.5001L46.1158 56.6391Z" fill="#0062AE"/>
<path d="M48 56.6389L47.9132 56.0683C47.5847 47.9544 43.3453 45.7957 43.3453 45.7957C37.544 46.1554 36.5 52.5 38 59L48 56.6389Z" fill="#F7BD94"/>
<path d="M39.1927 26.9378V60.639H47.4732L46.7171 22.8499C46.7171 22.8499 47.6839 10.2511 39.2857 6.67798L36.7445 19.4009C36.7383 19.4009 38.8642 19.7358 39.1927 26.9378Z" fill="#C88E6B"/>
</g>
</svg>
