<svg width="60" height="60" viewBox="0 0 60 60" fill="none" xmlns="http://www.w3.org/2000/svg">
<rect width="60" height="60" rx="8" fill="#FAFAFA"/>
<mask id="mask0" mask-type="alpha" maskUnits="userSpaceOnUse" x="0" y="0" width="60" height="60">
<rect width="60" height="60" rx="8" fill="#FAFAFA"/>
</mask>
<g mask="url(#mask0)">
<path d="M17.9585 61.3567C16.1148 59.3666 13.9188 57.9433 11.4459 58.1134C11.4459 58.1134 11.3264 59.1462 11.2383 61.3567H17.9585Z" fill="#87B6DB"/>
<path d="M34.4695 39.0942H26.7111V49.4854H34.4695V39.0942Z" fill="#F7BD94"/>
<path d="M48.1428 53.9821C45.9845 50.6381 42.5929 49.7312 42.5929 49.7312L34.4633 46.7146H26.7048L18.5814 49.7312C18.5814 49.7312 15.1899 50.6381 13.0316 53.9821H48.1428Z" fill="#F7BD94"/>
<path d="M48.1994 61.3567L49.7348 58.296C48.6903 51.356 42.593 49.7312 42.593 49.7312L34.4633 46.7146L29.3162 49.832L26.7049 46.7146L18.5815 49.7312C18.5815 49.7312 12.4842 51.356 11.4397 58.296L12.5534 61.3567H48.1994Z" fill="#A0C8EC"/>
<path d="M20.9284 39.2078C22.5392 43.2446 24.5717 44.1515 24.5717 44.1515L27.1578 44.3152C28.5862 43.9374 31.0087 43.0242 31.0087 43.0242C36.5145 40.3099 38.4336 40.1777 39.2328 37.0288C39.2579 36.9344 41.196 20.9319 41.196 20.9319C40.8813 12.7827 32.242 12.2159 30.9458 12.1718C29.6496 12.0459 21.3437 10.8682 19.9846 18.9041C19.9846 18.8978 17.6564 28.3128 20.9284 39.2078Z" fill="#F7BD94"/>
<path d="M20.9976 37.1736C22.0925 39.2833 24.106 41.7331 26.7488 41.7016C28.7183 41.6765 31.0339 40.8326 32.8461 40.0705C34.803 39.2518 37.301 38.4835 38.9874 37.224C39.0692 37.161 39.151 37.0917 39.2328 37.0288C39.2328 37.0288 39.2328 37.0288 39.2328 37.0225C39.2579 36.928 41.196 20.9256 41.196 20.9256C40.8814 12.7764 32.242 12.2096 30.9458 12.1655C29.6496 12.0395 21.3437 10.8619 19.9846 18.8977C19.9846 18.8977 17.9773 27.0469 20.3306 36.9595C20.5571 36.8524 20.8466 36.8776 20.9976 37.1736Z" fill="#F7BD94"/>
<path d="M37.2192 39.3527C34.0165 40.8515 32.1854 41.8843 29.7188 42.7408C25.9434 44.057 23.9487 44.2838 20.9095 39.1259C20.9158 39.1511 20.9221 39.1763 20.9347 39.2015C22.5456 43.2383 24.578 44.1452 24.578 44.1452L27.1641 44.3089C28.5925 43.9311 31.015 43.0179 31.015 43.0179C35.3253 40.8893 37.4395 40.3477 38.5343 38.6914C38.1065 38.937 37.6723 39.1448 37.2192 39.3527Z" fill="#EBB48D"/>
<path d="M39.2328 37.0224C45.1916 29.7549 44.7575 19.5274 44.7575 19.5274C45.3489 5.71032 29.0015 7.6815 29.0015 7.6815C23.2 7.60593 23.3321 4.74048 23.3321 4.74048C20.5635 6.78093 21.3626 10.0179 21.3626 10.0179C20.3558 9.97386 20.2803 8.15382 20.2803 8.15382C16.6308 10.9815 18.7639 14.8924 18.7639 14.8924C18.0529 18.841 19.2421 29.2889 19.2421 29.2889C19.2421 29.2889 19.5693 18.8158 22.3883 16.5738C22.3883 16.5738 25.2135 15.245 27.2019 16.9076C27.2019 16.9076 36.6215 13.2612 37.8737 22.8337L39.0881 31.1782L39.2328 37.0224Z" fill="#9B4D1A"/>
<path d="M38.6035 30.1012C38.6035 30.1012 39.6229 26.8075 42.102 28.3568C42.102 28.3568 43.2221 29.018 42.2405 31.26C42.2405 31.26 40.8121 34.4844 38.4084 33.1178L38.6035 30.1012Z" fill="#F7BD94"/>
<path d="M37.8799 22.8337C37.8799 22.8337 38.5972 28.3883 37.9617 31.4742L39.0754 31.5434C39.0754 31.5434 39.1446 27.6578 41.0953 27.3555L37.8799 22.8337Z" fill="#9B4D1A"/>
<path d="M52 61.3566C51.6665 59.2846 51.4085 57.9684 51.3016 57.6661C51.3016 57.6661 50.4898 51.1417 43.411 52.2942C43.411 52.2942 37.8486 54.0513 38.8491 61.3629H52V61.3566Z" fill="#A0C8EC"/>
<path d="M29.3224 49.8383L26.623 45.6125L22.3945 47.8545L25.5659 52.9619L29.3224 49.8383Z" fill="#CFE4F7"/>
<path d="M29.3224 49.8382L34.4695 45.052L38.7168 47.7285L33.0978 53.2768L29.3224 49.8382Z" fill="#CFE4F7"/>
</g>
</svg>
