<svg width="74" height="74" viewBox="0 0 74 74" fill="none" xmlns="http://www.w3.org/2000/svg">
<rect width="74" height="74" rx="0" fill="#E2E2E2"/>
<g opacity="0.2">
<mask id="mask0_2055_11214" style="mask-type:luminance" maskUnits="userSpaceOnUse" x="8" y="8" width="58" height="58">
<path fill-rule="evenodd" clip-rule="evenodd" d="M8.66406 8.66797H65.2163V65.1924H8.66406V8.66797Z" fill="white"/>
</mask>
<g mask="url(#mask0_2055_11214)">
<path fill-rule="evenodd" clip-rule="evenodd" d="M24.6724 12.918C17.5296 12.918 12.9141 17.8111 12.9141 25.3818V48.4791C12.9141 56.0526 17.5296 60.943 24.6724 60.943H49.1807C56.3406 60.943 60.9674 56.0526 60.9674 48.4791V25.3818C60.9674 17.8111 56.3406 12.918 49.1807 12.918H24.6724ZM49.1807 65.193H24.6724C15.0957 65.193 8.66406 58.4751 8.66406 48.4791V25.3818C8.66406 15.3858 15.0957 8.66797 24.6724 8.66797H49.1807C58.7716 8.66797 65.2174 15.3858 65.2174 25.3818V48.4791C65.2174 58.4751 58.7716 65.193 49.1807 65.193Z" fill="#AFB1B6"/>
</g>
<path fill-rule="evenodd" clip-rule="evenodd" d="M17.961 51.6794C17.434 51.6794 16.9098 51.4868 16.499 51.0958C15.6461 50.2911 15.6121 48.9424 16.4196 48.0953L20.749 43.5251C23.0411 41.0913 26.9086 40.9723 29.3538 43.2673L32.0681 46.0213C32.8246 46.7863 34.0543 46.8004 34.8136 46.0524C35.0998 45.7153 41.2708 38.2211 41.2708 38.2211C42.4438 36.7988 44.0985 35.9204 45.9373 35.7391C47.779 35.5776 49.5668 36.1131 50.992 37.2833C51.1138 37.3824 51.2243 37.4788 57.4463 43.8679C58.2651 44.7066 58.251 46.0524 57.4095 46.8713C56.5708 47.6958 55.2221 47.6703 54.4033 46.8316C54.4033 46.8316 48.5978 40.8731 48.1841 40.4708C47.745 40.1109 47.0395 39.9013 46.3453 39.9693C45.6398 40.0401 45.0051 40.3773 44.5546 40.9241C37.97 48.9113 37.8906 48.9878 37.783 49.0926C35.352 51.4783 31.4278 51.4386 29.0393 49.0019C29.0393 49.0019 26.4043 46.3273 26.359 46.2734C25.7045 45.6671 24.5371 45.7068 23.8373 46.4463L19.5023 51.0164C19.083 51.4584 18.522 51.6794 17.961 51.6794Z" fill="#AFB1B6"/>
<path fill-rule="evenodd" clip-rule="evenodd" d="M27.2403 26.0332C25.6734 26.0332 24.3984 27.3082 24.3984 28.8779C24.3984 30.4475 25.6734 31.7254 27.2431 31.7254C28.8128 31.7254 30.0906 30.4475 30.0906 28.8779C30.0906 27.311 28.8128 26.036 27.2403 26.0332ZM27.2431 35.9754C23.3303 35.9754 20.1484 32.7907 20.1484 28.8779C20.1484 24.965 23.3303 21.7832 27.2431 21.7832C31.1588 21.786 34.3406 24.9707 34.3406 28.8779C34.3406 32.7907 31.1559 35.9754 27.2431 35.9754Z" fill="#AFB1B6"/>
</g>
</svg>
