<svg width="22" height="22" viewBox="0 0 22 22" fill="none" xmlns="http://www.w3.org/2000/svg">
<g clip-path="url(#clip0_26622_1219)">
<path d="M2.54053 11C2.54053 10.8581 2.54417 10.7176 2.55145 10.5771L0.0138312 10.4504C0.0050958 10.6324 0 10.8159 0 11C0 14.0378 1.23096 16.7879 3.22189 18.7782L5.02138 16.9787C3.48905 15.4471 2.54053 13.3324 2.54053 11Z" fill="url(#paint0_linear_26622_1219)"/>
<path d="M10.9993 2.54126C11.1413 2.54126 11.2817 2.54636 11.4222 2.55291L11.5489 0.0138312C11.3669 0.0050958 11.1835 0 10.9993 0C7.96158 0 5.2114 1.23096 3.22119 3.22189L5.02068 5.02137C6.55228 3.48977 8.66769 2.54126 10.9993 2.54126Z" fill="url(#paint1_linear_26622_1219)"/>
<path d="M10.9993 19.4595C10.8574 19.4595 10.7169 19.4558 10.5764 19.4486L10.4497 21.9862C10.6317 21.9949 10.8151 22 10.9993 22C14.037 22 16.7872 20.7691 18.7774 18.7781L16.9779 16.9786C15.4463 18.5102 13.3316 19.4595 10.9993 19.4595Z" fill="url(#paint2_linear_26622_1219)"/>
<path d="M15.768 4.01754L17.9075 2.4408C16.0192 0.915029 13.6162 0 10.9993 0V2.54126C12.7674 2.54126 14.4097 3.08649 15.768 4.01754Z" fill="url(#paint3_linear_26622_1219)"/>
<path d="M21.9992 11C21.9992 10.3273 21.9388 9.66856 21.8231 9.02942L19.4551 10.7743C19.4572 10.8493 19.458 10.9243 19.458 11C19.458 13.4837 18.3821 15.7207 16.6714 17.2698L18.3784 19.1566C20.6023 17.1446 21.9992 14.2357 21.9992 11Z" fill="#21A038"/>
<path d="M10.9993 19.4594C8.51554 19.4594 6.27856 18.3835 4.72949 16.6729L2.84265 18.3799C4.85542 20.603 7.7643 22 10.9993 22V19.4594Z" fill="url(#paint4_linear_26622_1219)"/>
<path d="M5.32711 4.73022L3.62008 2.84338C1.39693 4.85616 0 7.76503 0 11H2.54126C2.54053 8.51627 3.61644 6.27929 5.32711 4.73022Z" fill="url(#paint5_linear_26622_1219)"/>
<path d="M19.7041 4.27527C20.2238 4.94643 20.6679 5.67948 21.0224 6.46202L10.9993 13.8485L6.81213 11.2235V8.06568L10.9993 10.6907L19.7041 4.27527Z" fill="#21A038"/>
</g>
<defs>
<linearGradient id="paint0_linear_26622_1219" x1="3.73549" y1="18.4605" x2="0.958921" y2="10.4346" gradientUnits="userSpaceOnUse">
<stop offset="0.1444" stop-color="#F2E913"/>
<stop offset="0.3037" stop-color="#E7E518"/>
<stop offset="0.5823" stop-color="#CADB26"/>
<stop offset="0.891" stop-color="#A3CD39"/>
</linearGradient>
<linearGradient id="paint1_linear_26622_1219" x1="3.94709" y1="3.67194" x2="11.0983" y2="0.94674" gradientUnits="userSpaceOnUse">
<stop offset="0.0592" stop-color="#0FA8E0"/>
<stop offset="0.5385" stop-color="#0099F9"/>
<stop offset="0.9234" stop-color="#0291EB"/>
</linearGradient>
<linearGradient id="paint2_linear_26622_1219" x1="10.2823" y1="20.4672" x2="18.3691" y2="18.6395" gradientUnits="userSpaceOnUse">
<stop offset="0.1226" stop-color="#A3CD39"/>
<stop offset="0.2846" stop-color="#86C339"/>
<stop offset="0.8693" stop-color="#21A038"/>
</linearGradient>
<linearGradient id="paint3_linear_26622_1219" x1="10.4677" y1="0.851901" x2="17.3818" y2="2.9852" gradientUnits="userSpaceOnUse">
<stop offset="0.0566" stop-color="#0291EB"/>
<stop offset="0.79" stop-color="#0C8ACB"/>
</linearGradient>
<linearGradient id="paint4_linear_26622_1219" x1="3.47987" y1="18.071" x2="11.0059" y2="20.883" gradientUnits="userSpaceOnUse">
<stop offset="0.1324" stop-color="#F2E913"/>
<stop offset="0.2977" stop-color="#EBE716"/>
<stop offset="0.5306" stop-color="#D9E01F"/>
<stop offset="0.8023" stop-color="#BBD62D"/>
<stop offset="0.9829" stop-color="#A3CD39"/>
</linearGradient>
<linearGradient id="paint5_linear_26622_1219" x1="0.945909" y1="11.3083" x2="3.96689" y2="3.44954" gradientUnits="userSpaceOnUse">
<stop offset="0.0698" stop-color="#A3CD39"/>
<stop offset="0.2599" stop-color="#81C55F"/>
<stop offset="0.9216" stop-color="#0FA8E0"/>
</linearGradient>
<clipPath id="clip0_26622_1219">
<rect width="22" height="22" fill="white"/>
</clipPath>
</defs>
</svg>
