<svg width="26" height="26" viewBox="0 0 26 26" fill="none" xmlns="http://www.w3.org/2000/svg">
<path d="M13 12.6343L8.05154 9.53207V13.2641L13 16.3663L24.8455 7.63683C24.4265 6.71287 23.9017 5.84655 23.2875 5.05249L13 12.6343Z" fill="white"/>
<path d="M26 13C26 12.2051 25.9286 11.4265 25.7918 10.6712L22.9932 12.7333C22.9958 12.8219 22.9967 12.9105 22.9967 13C22.9967 18.5119 18.5119 22.9967 13 22.9967C7.48806 22.9967 3.00331 18.5119 3.00331 13C3.00331 7.48806 7.48806 3.00331 13 3.00331C15.0888 3.00331 17.0305 3.64767 18.6358 4.748L21.1642 2.88459C18.9326 1.0814 16.0928 0 13 0C5.81993 0 0 5.81993 0 13C0 20.1801 5.81993 26 13 26C20.1801 26 26 20.1801 26 13Z" fill="white"/>
</svg>