<svg width="60" height="60" viewBox="0 0 60 60" fill="none" xmlns="http://www.w3.org/2000/svg">
<path d="M60 30C60 13.43 46.57 0 30 0C13.43 0 0 13.43 0 30C0 46.57 13.43 60 30 60C46.57 60 60 46.57 60 30Z" fill="#FAFAFA"/>
<mask id="mask0_1429_27859" style="mask-type:alpha" maskUnits="userSpaceOnUse" x="0" y="0" width="60" height="60">
<path d="M60 30C60 13.43 46.57 0 30 0C13.43 0 0 13.43 0 30C0 46.57 13.43 60 30 60C46.57 60 60 46.57 60 30Z" fill="#FAFAFA"/>
</mask>
<g mask="url(#mask0_1429_27859)">
<path d="M17.96 61.3602C16.12 59.3702 13.92 57.9502 11.45 58.1202C11.45 58.1202 11.33 59.1502 11.24 61.3602H17.96Z" fill="#87B6DB"/>
<path d="M34.47 39.0903H26.71V49.4803H34.47V39.0903Z" fill="#F7BD94"/>
<path d="M48.14 53.9804C45.98 50.6404 42.59 49.7304 42.59 49.7304L34.46 46.7104H26.7L18.58 49.7304C18.58 49.7304 15.19 50.6404 13.03 53.9804H48.14Z" fill="#F7BD94"/>
<path d="M48.2 61.3602L49.74 58.3002C48.7 51.3602 42.5999 49.7402 42.5999 49.7402L34.47 46.7202L29.32 49.8402L26.71 46.7202L18.59 49.7402C18.59 49.7402 12.49 51.3602 11.45 58.3002L12.56 61.3602H48.2Z" fill="#A0C8EC"/>
<path d="M20.9299 39.2104C22.5399 43.2504 24.5699 44.1504 24.5699 44.1504L27.1599 44.3104C28.5899 43.9304 31.0099 43.0204 31.0099 43.0204C36.5199 40.3104 38.4299 40.1704 39.2299 37.0204C39.2599 36.9304 41.1899 20.9204 41.1899 20.9204C40.8799 12.7704 32.2399 12.2004 30.9399 12.1604C29.64 12.0304 21.3399 10.8604 19.9799 18.8904C19.9799 18.9004 17.6599 28.3104 20.9299 39.2104Z" fill="#F7BD94"/>
<path d="M20.9999 37.1701C22.0899 39.2801 24.1099 41.7301 26.7499 41.7001C28.7199 41.6701 31.0399 40.8301 32.8499 40.0701C34.8099 39.2501 37.2999 38.4801 38.9899 37.2201C39.0699 37.1601 39.1499 37.0901 39.2399 37.0201C39.2399 37.0201 39.2399 37.0201 39.2399 37.0101C39.2699 36.9201 41.1999 20.9101 41.1999 20.9101C40.8899 12.7601 32.2499 12.1901 30.9499 12.1501C29.6499 12.0201 21.3499 10.8501 19.9899 18.8801C19.9899 18.8801 17.9799 27.0301 20.3399 36.9401C20.5599 36.8501 20.8499 36.8801 20.9999 37.1701Z" fill="#F7BD94"/>
<path d="M37.2199 39.3504C34.0199 40.8504 32.1899 41.8804 29.7199 42.7404C25.9399 44.0604 23.9499 44.2804 20.9099 39.1304C20.9199 39.1604 20.9199 39.1804 20.9399 39.2104C22.5499 43.2504 24.5799 44.1504 24.5799 44.1504L27.1699 44.3104C28.5999 43.9304 31.0199 43.0204 31.0199 43.0204C35.3299 40.8904 37.4399 40.3504 38.5399 38.6904C38.1099 38.9404 37.6699 39.1404 37.2199 39.3504Z" fill="#EBB48D"/>
<path d="M39.2299 37.0202C45.1899 29.7502 44.7499 19.5302 44.7499 19.5302C45.3499 5.71024 28.9999 7.68023 28.9999 7.68023C23.1999 7.60023 23.3299 4.74023 23.3299 4.74023C20.5599 6.78023 21.3599 10.0202 21.3599 10.0202C20.3499 9.98024 20.2799 8.16023 20.2799 8.16023C16.6299 10.9902 18.7599 14.9002 18.7599 14.9002C18.0499 18.8502 19.2399 29.3002 19.2399 29.3002C19.2399 29.3002 19.5699 18.8302 22.3899 16.5802C22.3899 16.5802 25.2199 15.2502 27.1999 16.9102C27.1999 16.9102 36.6199 13.2602 37.8699 22.8402L39.0799 31.1802L39.2299 37.0202Z" fill="#9B4D1A"/>
<path d="M38.5999 30.1004C38.5999 30.1004 39.6199 26.8104 42.0999 28.3604C42.0999 28.3604 43.2199 29.0204 42.2399 31.2604C42.2399 31.2604 40.8099 34.4804 38.4099 33.1204L38.5999 30.1004Z" fill="#F7BD94"/>
<path d="M37.8799 22.8301C37.8799 22.8301 38.5999 28.3801 37.9599 31.4701L39.0699 31.5401C39.0699 31.5401 39.1399 27.6501 41.0899 27.3501L37.8799 22.8301Z" fill="#9B4D1A"/>
<path d="M52.0001 61.3601C51.6701 59.2901 51.4101 57.9701 51.3001 57.6701C51.3001 57.6701 50.4901 51.1501 43.4101 52.3001C43.4101 52.3001 37.8501 54.0601 38.8501 61.3701L52.0001 61.3601Z" fill="#A0C8EC"/>
<path d="M29.3199 49.8404L26.6199 45.6104L22.3899 47.8503L25.5599 52.9604L29.3199 49.8404Z" fill="#CFE4F7"/>
<path d="M29.3201 49.8403L34.4701 45.0503L38.7201 47.7303L33.1001 53.2803L29.3201 49.8403Z" fill="#CFE4F7"/>
<path d="M41 28V21" stroke="#ACACAC" stroke-width="2"/>
<path d="M39.15 33C37.5 36.3 35.86 37.3 32.5 38" stroke="#ACACAC" stroke-width="0.5"/>
<path d="M43.7149 30.7857C44.0803 28.7528 43.0017 26.8577 41.3058 26.5529C39.6099 26.2481 37.9389 27.649 37.5735 29.6819C37.2081 31.7148 38.2867 33.6099 39.9826 33.9147C41.6785 34.2195 43.3495 32.8187 43.7149 30.7857Z" fill="#8F8F8F"/>
<path d="M25.5 37.8401L32.5 37.0601C32.77 37.0301 33.02 37.2301 33.05 37.5001L33.16 38.4901C33.19 38.7601 32.99 39.0101 32.72 39.0401L25.72 39.8201C25.45 39.8501 25.2 39.6501 25.17 39.3801L25.06 38.3901C25.02 38.1201 25.22 37.8701 25.5 37.8401Z" fill="#8F8F8F"/>
<path d="M41 22.0003C41.5 9.50027 21.5 8.00027 18.5 15.5003" stroke="#ACACAC" stroke-width="2"/>
<path d="M18 14H17V15H18V14Z" fill="#FAFAFA"/>
<path d="M17.5 15H18.5V15.5V16H17.5V15Z" fill="#FAFAFA"/>
<path d="M17.5 14H18.5V14.5V15H17.5V14Z" fill="#FAFAFA"/>
<path d="M18 15H17V16H18V15Z" fill="#FAFAFA"/>
<path d="M18.1902 14.0944L18.4048 14.0459L18.3365 13.7435L18.1219 13.792L18.1902 14.0944Z" fill="#FAFAFA"/>
<path d="M18.765 14.8528L18.5073 14.8184L18.3551 15.9582L18.6128 15.9927L18.765 14.8528Z" fill="#FAFAFA"/>
<path d="M18.4087 14.2502L18.2095 14.3652L18.5595 14.9714L18.7587 14.8564L18.4087 14.2502Z" fill="#FAFAFA"/>
<path d="M18.3716 14.0011L18.1584 14.0874L18.4212 14.7362L18.6343 14.6499L18.3716 14.0011Z" fill="#FAFAFA"/>
</g>
</svg>
